<svg width="49" height="48" viewBox="0 0 49 48" fill="none" xmlns="http://www.w3.org/2000/svg">
<path fill-rule="evenodd" clip-rule="evenodd" d="M11.9186 11.8098C11.1722 9.06848 8.32821 7.47622 5.5915 8.19794L3.81807 8.66562C3.01703 8.87687 2.5389 9.69749 2.75015 10.4985C2.9614 11.2996 3.78202 11.7777 4.58306 11.5664L6.35649 11.0988C7.53754 10.7873 8.72048 11.4833 9.02392 12.5978L14.5645 32.9488C15.0445 32.6014 15.5949 32.3341 16.2013 32.1716C16.6068 32.0629 17.014 32.0074 17.4155 32.0007L11.9186 11.8098ZM22.1867 38.7265C22.532 37.7908 22.6013 36.7429 22.3235 35.7062C22.3136 35.6693 22.3034 35.6325 22.2927 35.596L43.8181 29.9194C44.6191 29.7081 45.4397 30.1863 45.651 30.9873C45.8622 31.7883 45.3841 32.609 44.5831 32.8202L22.1867 38.7265Z" fill="#1F7EAD"/>
<path opacity="0.4" d="M22.3235 35.7062C23.0381 38.3729 21.4556 41.1139 18.7889 41.8284C16.1222 42.543 13.3812 40.9604 12.6667 38.2938C11.9522 35.6271 13.5347 32.8861 16.2013 32.1716C18.868 31.457 21.609 33.0396 22.3235 35.7062Z" fill="#1F7EAD"/>
<path opacity="0.4" d="M16.7422 14.2917C16.2174 12.3638 17.3798 10.3821 19.3387 9.8655L33.5262 6.12404C35.4851 5.60745 37.4985 6.75157 38.0234 8.6795L41.8249 22.6428C42.3498 24.5708 41.1873 26.5524 39.2285 27.069L25.041 30.8105C23.0821 31.3271 21.0686 30.1829 20.5438 28.255L16.7422 14.2917Z" fill="#1F7EAD"/>
<path fill-rule="evenodd" clip-rule="evenodd" d="M31.0826 12.3806C31.2939 13.1816 30.8157 14.0022 30.0147 14.2135L26.4678 15.1488C25.6668 15.3601 24.8462 14.882 24.6349 14.0809C24.4237 13.2799 24.9018 12.4593 25.7028 12.248L29.2497 11.3127C30.0507 11.1014 30.8714 11.5795 31.0826 12.3806Z" fill="#1F7EAD"/>
</svg>
