<svg width="16" height="17" viewBox="0 0 16 17" fill="none" xmlns="http://www.w3.org/2000/svg">
<g id="check 1" clip-path="url(#clip0_298_4788)">
<path id="Vector" d="M7.99902 0.5C3.58765 0.5 -0.000976562 4.08862 -0.000976562 8.5C-0.000976562 12.9114 3.58765 16.5 7.99902 16.5C12.4104 16.5 15.999 12.9114 15.999 8.5C15.999 4.08862 12.4104 0.5 7.99902 0.5Z" fill="#52B1E0"/>
<path id="Vector_2" d="M12.0542 6.80444L7.72083 11.1377C7.59082 11.2677 7.42017 11.3331 7.24951 11.3331C7.07886 11.3331 6.9082 11.2677 6.7782 11.1377L4.61157 8.97107C4.35083 8.71045 4.35083 8.28906 4.61157 8.02844C4.87219 7.7677 5.29346 7.7677 5.5542 8.02844L7.24951 9.72375L11.1116 5.86182C11.3722 5.60107 11.7935 5.60107 12.0542 5.86182C12.3148 6.12244 12.3148 6.5437 12.0542 6.80444Z" fill="white"/>
</g>
<defs>
<clipPath id="clip0_298_4788">
<rect width="16" height="16" fill="white" transform="translate(0 0.5)"/>
</clipPath>
</defs>
</svg>
