<svg width="48" height="48" viewBox="0 0 48 48" fill="none" xmlns="http://www.w3.org/2000/svg">
<path opacity="0.4" d="M20.752 5.44415L10.7564 9.88665C7.86514 11.1717 5.95716 14.0493 6.14114 17.2079C6.8604 29.5564 10.4765 34.9926 19.8727 41.354C22.3619 43.0392 25.6431 43.0433 28.1304 41.3554C37.5556 34.9594 41.0422 29.4463 41.8247 17.2507C42.0287 14.0712 40.1177 11.163 37.2063 9.86904L27.2502 5.44415C25.1817 4.5248 22.8205 4.5248 20.752 5.44415Z" fill="#1F7EAD"/>
<path fill-rule="evenodd" clip-rule="evenodd" d="M30.9878 18.8712C31.6113 19.4167 31.6744 20.3643 31.1289 20.9878L25.3891 27.5476C24.1557 28.9571 22.0312 29.1459 20.5687 27.9758L17.063 25.1713C16.4161 24.6538 16.3112 23.7099 16.8288 23.063C17.3463 22.4161 18.2902 22.3112 18.9371 22.8287L22.4427 25.6332C22.6517 25.8004 22.9552 25.7734 23.1314 25.5721L28.8712 19.0123C29.4167 18.3888 30.3644 18.3256 30.9878 18.8712Z" fill="#1F7EAD"/>
</svg>
