<svg width="21" height="21" viewBox="0 0 21 21" fill="none" xmlns="http://www.w3.org/2000/svg">
<path d="M7.16602 7.1665V5.49984C7.16602 3.65889 8.6584 2.1665 10.4993 2.1665L15.4993 2.1665C17.3403 2.1665 18.8327 3.65889 18.8327 5.49984V10.4998C18.8327 12.3408 17.3403 13.8332 15.4993 13.8332H13.8327M7.16602 7.1665H5.49935C3.6584 7.1665 2.16602 8.65889 2.16602 10.4998V15.4998C2.16602 17.3408 3.6584 18.8332 5.49935 18.8332H10.4993C12.3403 18.8332 13.8327 17.3408 13.8327 15.4998V13.8332M7.16602 7.1665H10.4993C12.3403 7.1665 13.8327 8.65889 13.8327 10.4998V13.8332" stroke="#1A1A1A" stroke-width="1.25" stroke-linejoin="round"/>
</svg>
