<svg width="41" height="41" viewBox="0 0 41 41" fill="none" xmlns="http://www.w3.org/2000/svg">
<rect width="41" height="41" rx="20.5" fill="#E6E7FE"/>
<path d="M23.2792 30.1469L20.5577 21.9824C20.2645 21.1028 21.1013 20.266 21.9809 20.5592L30.1454 23.2807C31.1712 23.6226 31.1712 25.0735 30.1454 25.4154L27.1305 26.4204C26.7946 26.5324 26.5309 26.796 26.4189 27.132L25.414 30.1469C25.0721 31.1726 23.6211 31.1726 23.2792 30.1469Z" fill="#070AC5"/>
<path opacity="0.4" fill-rule="evenodd" clip-rule="evenodd" d="M20.4993 16.0728C18.0543 16.0728 16.0723 18.0548 16.0723 20.4998C16.0723 22.3576 17.2169 23.95 18.8423 24.6066C19.2423 24.7682 19.4357 25.2235 19.274 25.6236C19.1124 26.0237 18.6571 26.217 18.257 26.0554C16.0613 25.1684 14.5098 23.0162 14.5098 20.4998C14.5098 17.1919 17.1914 14.5103 20.4993 14.5103C23.0158 14.5103 25.1679 16.0618 26.0549 18.2575C26.2165 18.6576 26.0232 19.1129 25.6231 19.2745C25.223 19.4361 24.7677 19.2428 24.6061 18.8428C23.9495 17.2174 22.3572 16.0728 20.4993 16.0728Z" fill="#070AC5"/>
<path opacity="0.4" fill-rule="evenodd" clip-rule="evenodd" d="M20.4987 10.8643C15.1772 10.8643 10.8633 15.1782 10.8633 20.4997C10.8633 25.794 15.1333 30.0911 20.4172 30.1348C20.8487 30.1383 21.1955 30.491 21.192 30.9224C21.1884 31.3539 20.8357 31.7008 20.4043 31.6972C14.2632 31.6464 9.30078 26.6526 9.30078 20.4997C9.30078 14.3152 14.3143 9.30176 20.4987 9.30176C26.6516 9.30176 31.6454 14.2642 31.6962 20.4053C31.6998 20.8367 31.3529 21.1894 30.9215 21.1929C30.49 21.1965 30.1373 20.8496 30.1338 20.4182C30.0901 15.1343 25.793 10.8643 20.4987 10.8643Z" fill="#070AC5"/>
</svg>
