<svg width="16" height="16" viewBox="0 0 16 16" fill="none" xmlns="http://www.w3.org/2000/svg">
<path d="M14.0875 6.5689C14.8606 7.38228 14.8606 8.61805 14.0875 9.43143C12.7837 10.8033 10.5443 12.6668 8.00065 12.6668C5.45697 12.6668 3.21765 10.8033 1.91379 9.43143C1.14072 8.61805 1.14072 7.38228 1.91379 6.5689C3.21765 5.19705 5.45697 3.3335 8.00065 3.3335C10.5443 3.3335 12.7837 5.19705 14.0875 6.5689Z" stroke="white"/>
<path d="M10.0007 8.00016C10.0007 9.10473 9.10522 10.0002 8.00065 10.0002C6.89608 10.0002 6.00065 9.10473 6.00065 8.00016C6.00065 6.89559 6.89608 6.00016 8.00065 6.00016C9.10522 6.00016 10.0007 6.89559 10.0007 8.00016Z" stroke="white"/>
</svg>
