<svg width="18" height="16" viewBox="0 0 18 16" fill="none" xmlns="http://www.w3.org/2000/svg">
<path d="M2.33268 1.33333L15.666 14.6667M10.666 9.86342C10.2237 10.2593 9.63964 10.5 8.99935 10.5C7.61864 10.5 6.49935 9.38071 6.49935 7.99999C6.49935 7.3597 6.74006 6.77563 7.13593 6.33333M15.3392 11.0064C15.8153 10.5919 16.2412 10.1749 16.6079 9.78908C17.5743 8.77235 17.5743 7.22764 16.6079 6.21091C14.9781 4.49611 12.1789 2.16666 8.99935 2.16666C8.25654 2.16666 7.53449 2.2938 6.84327 2.51053M4.41602 3.66948C3.20055 4.44536 2.16405 5.39731 1.39077 6.21091C0.424431 7.22764 0.42443 8.77235 1.39077 9.78908C3.02059 11.5039 5.81975 13.8333 8.99935 13.8333C10.5561 13.8333 12.0216 13.2749 13.3034 12.5037" stroke="#666666" stroke-width="1.25" stroke-linecap="round"/>
</svg>
