<svg width="40" height="40" viewBox="0 0 40 40" fill="none" xmlns="http://www.w3.org/2000/svg">
<rect width="40" height="40" rx="20" fill="#E8FDEF"/>
<path opacity="0.4" d="M27 10H13C11.8954 10 11 10.8954 11 12V27.1543C11 28.5396 12.3741 29.5053 13.6774 29.0361L15.2392 28.4739C15.7272 28.2982 16.2644 28.319 16.7374 28.5318L19.1793 29.6307C19.7012 29.8655 20.2988 29.8655 20.8207 29.6307L23.2626 28.5318C23.7356 28.319 24.2728 28.2982 24.7608 28.4739L26.3226 29.0361C27.6259 29.5053 29 28.5396 29 27.1543V12C29 10.8954 28.1046 10 27 10Z" fill="#0F973C"/>
<path fill-rule="evenodd" clip-rule="evenodd" d="M25.75 15C25.75 15.4142 25.4142 15.75 25 15.75L15 15.75C14.5858 15.75 14.25 15.4142 14.25 15C14.25 14.5858 14.5858 14.25 15 14.25L25 14.25C25.4142 14.25 25.75 14.5858 25.75 15Z" fill="#0F973C"/>
<path fill-rule="evenodd" clip-rule="evenodd" d="M25.75 19C25.75 19.4142 25.4142 19.75 25 19.75L15 19.75C14.5858 19.75 14.25 19.4142 14.25 19C14.25 18.5858 14.5858 18.25 15 18.25L25 18.25C25.4142 18.25 25.75 18.5858 25.75 19Z" fill="#0F973C"/>
<path fill-rule="evenodd" clip-rule="evenodd" d="M20.75 23C20.75 23.4142 20.4142 23.75 20 23.75L15 23.75C14.5858 23.75 14.25 23.4142 14.25 23C14.25 22.5858 14.5858 22.25 15 22.25L20 22.25C20.4142 22.25 20.75 22.5858 20.75 23Z" fill="#0F973C"/>
</svg>
