<svg width="24" height="24" viewBox="0 0 24 24" fill="none" xmlns="http://www.w3.org/2000/svg">
<g clip-path="url(#clip0_253_2602)">
<path d="M12 0C5.38293 0 0 5.38293 0 12C0 18.6171 5.38293 24 12 24C18.6171 24 24 18.6171 24 12C24 5.38293 18.6171 0 12 0Z" fill="#45ED7D"/>
<path d="M18.0823 9.45679L11.5822 15.9567C11.3872 16.1517 11.1312 16.2498 10.8752 16.2498C10.6193 16.2498 10.3633 16.1517 10.1683 15.9567L6.91833 12.7067C6.52722 12.3158 6.52722 11.6837 6.91833 11.2928C7.30927 10.9017 7.94116 10.9017 8.33228 11.2928L10.8752 13.8358L16.6683 8.04285C17.0593 7.65173 17.6912 7.65173 18.0823 8.04285C18.4732 8.43378 18.4732 9.06567 18.0823 9.45679Z" fill="white"/>
</g>
<defs>
<clipPath id="clip0_253_2602">
<rect width="24" height="24" fill="white"/>
</clipPath>
</defs>
</svg>
