<svg width="49" height="48" viewBox="0 0 49 48" fill="none" xmlns="http://www.w3.org/2000/svg">
<rect x="0.5" width="48" height="48" rx="24" fill="#E8FDEF"/>
<path opacity="0.4" d="M14.5 20C14.5 17.7909 16.2909 16 18.5 16H30.5C32.7091 16 34.5 17.7909 34.5 20V28C34.5 30.2091 32.7091 32 30.5 32H18.5C16.2909 32 14.5 30.2091 14.5 28V20Z" fill="#0F973C"/>
<circle cx="1" cy="1" r="1" transform="matrix(1 0 0 -1 17.5 21)" fill="#0F973C"/>
<circle cx="2" cy="2" r="2" transform="matrix(1 0 0 -1 22.5 26)" fill="#0F973C"/>
<path fill-rule="evenodd" clip-rule="evenodd" d="M31.75 30.6036L31.0303 29.8839C30.7374 29.591 30.2626 29.591 29.9697 29.8839C29.6768 30.1768 29.6768 30.6517 29.9697 30.9445L31.2626 32.2374C31.946 32.9209 33.054 32.9209 33.7374 32.2374L35.0303 30.9445C35.3232 30.6517 35.3232 30.1768 35.0303 29.8839C34.7374 29.591 34.2626 29.591 33.9697 29.8839L33.25 30.6036V26C33.25 25.5858 32.9142 25.25 32.5 25.25C32.0858 25.25 31.75 25.5858 31.75 26V30.6036Z" fill="#0F973C"/>
</svg>
