<svg width="49" height="48" viewBox="0 0 49 48" fill="none" xmlns="http://www.w3.org/2000/svg">
<path opacity="0.4" d="M28.7714 14L20.4278 14L17.6257 10.7859C14.8788 7.63525 18.0833 2.92595 22.0938 4.2197L23.9493 4.81828C24.3718 4.95457 24.8275 4.95457 25.2499 4.81828L27.1055 4.2197C31.1159 2.92595 34.3204 7.63526 31.5736 10.7859L28.7714 14Z" fill="#1F7EAD"/>
<path opacity="0.4" d="M11.9687 20.4207C13.5342 15.411 18.1738 12 23.4224 12H25.7778C31.0265 12 35.6661 15.411 37.2316 20.4207L39.7316 28.4207C42.1463 36.1479 36.3735 44 28.2778 44H20.9224C12.8267 44 7.05393 36.1479 9.46867 28.4207L11.9687 20.4207Z" fill="#1F7EAD"/>
<path fill-rule="evenodd" clip-rule="evenodd" d="M31.9114 33.2723C32.3134 33.9966 32.0522 34.9097 31.3278 35.3118C28.8217 36.7028 26.6789 37.5036 24.4679 37.4946C22.2494 37.4856 20.1873 36.6625 17.8442 35.296C17.1286 34.8787 16.8868 33.9602 17.3041 33.2446C17.7214 32.529 18.6399 32.2872 19.3555 32.7045C21.5212 33.9675 23.0369 34.4888 24.4801 34.4947C25.9308 34.5006 27.5336 33.9866 29.8719 32.6888C30.5962 32.2867 31.5093 32.548 31.9114 33.2723Z" fill="#1F7EAD"/>
</svg>
