<svg width="42" height="34" viewBox="0 0 42 34" fill="none" xmlns="http://www.w3.org/2000/svg">
<path opacity="0.4" d="M0.400391 8C0.400391 3.58172 3.98211 0 8.40039 0H32.4004C36.8187 0 40.4004 3.58172 40.4004 8V24C40.4004 28.4183 36.8187 32 32.4004 32H8.40039C3.98211 32 0.400391 28.4183 0.400391 24V8Z" fill="#1F7EAD"/>
<circle cx="2" cy="2" r="2" transform="matrix(1 0 0 -1 6.40039 10)" fill="#1F7EAD"/>
<circle cx="4" cy="4" r="4" transform="matrix(1 0 0 -1 16.4004 20)" fill="#1F7EAD"/>
<path fill-rule="evenodd" clip-rule="evenodd" d="M34.4004 18.5C35.2288 18.5 35.9004 19.1716 35.9004 20V24.5H40.4004C41.2288 24.5 41.9004 25.1716 41.9004 26C41.9004 26.8284 41.2288 27.5 40.4004 27.5H35.9004V32C35.9004 32.8284 35.2288 33.5 34.4004 33.5C33.572 33.5 32.9004 32.8284 32.9004 32V27.5H28.4004C27.572 27.5 26.9004 26.8284 26.9004 26C26.9004 25.1716 27.572 24.5 28.4004 24.5H32.9004V20C32.9004 19.1716 33.572 18.5 34.4004 18.5Z" fill="#1F7EAD"/>
</svg>
