<svg width="155" height="136" viewBox="0 0 155 136" fill="none" xmlns="http://www.w3.org/2000/svg">
<path d="M43.3406 109.322H113.212C115.133 109.327 116.984 108.601 118.395 107.291C124.281 101.808 128.99 95.1723 132.232 87.7911C135.474 80.4098 137.181 72.4393 137.247 64.3699C137.548 31.5581 111.036 4.56003 78.4194 4.48259C45.7845 4.40511 19.3047 30.9967 19.3047 63.8103C19.2954 71.9774 20.967 80.0579 24.2142 87.5431C27.4614 95.0283 32.214 101.756 38.1726 107.303C39.5806 108.607 41.4264 109.329 43.3406 109.322Z" fill="#F8F8F8"/>
<path d="M65.1175 89.9296C64.3694 89.8819 63.6327 90.1308 63.0669 90.6224C61.796 90.0361 60.4639 90.0223 59.4723 90.7235C58.4807 91.4246 58.0498 92.6851 58.1789 94.0788C57.5268 94.4484 57.0466 95.06 56.8422 95.7812C56.3627 97.6248 58.0241 99.6526 60.5532 100.311C62.3765 100.785 64.1487 100.414 65.1779 99.4817C65.4156 99.3606 65.6345 99.2058 65.8279 99.0221C67.0503 98.3627 67.9902 96.8152 68.1508 94.9382C68.3736 92.3344 67.0155 90.092 65.1175 89.9296Z" fill="#B3B3B3"/>
<path d="M121.964 11.2793C121.037 11.2793 120.119 11.4619 119.263 11.8166C118.406 12.1713 117.628 12.6913 116.973 13.3467C116.317 14.0022 115.797 14.7803 115.443 15.6367C115.088 16.4931 114.905 17.4109 114.905 18.3379C114.905 18.3426 114.906 18.3472 114.906 18.3519L109.617 17.2999V25.3964H121.964C122.891 25.397 123.81 25.2149 124.667 24.8604C125.523 24.5059 126.302 23.9861 126.958 23.3306C127.614 22.6751 128.134 21.8968 128.489 21.0401C128.844 20.1834 129.027 19.2652 129.027 18.3379C129.027 17.4106 128.844 16.4923 128.489 15.6357C128.134 14.779 127.614 14.0007 126.958 13.3452C126.302 12.6896 125.523 12.1698 124.667 11.8153C123.81 11.4609 122.891 11.2787 121.964 11.2793V11.2793Z" fill="white" stroke="#E6E6E6" stroke-width="1.63812" stroke-miterlimit="10"/>
<mask id="path-4-inside-1_1021_4105" fill="white">
<path d="M116.712 23.041C118.242 21.8981 119.474 20.4026 120.302 18.6816C121.13 16.9606 121.53 15.0651 121.469 13.1561C121.407 11.2472 120.886 9.3813 119.948 7.71721C119.011 6.05312 117.686 4.64002 116.085 3.59808C114.484 2.55614 112.656 1.91618 110.755 1.73263C108.853 1.54908 106.936 1.82737 105.166 2.54382C103.395 3.26028 101.824 4.39371 100.586 5.84773C99.3471 7.30175 98.4781 9.03335 98.0525 10.8953C97.0511 10.7006 96.0201 10.7174 95.0255 10.9447C94.031 11.172 93.095 11.6047 92.2775 12.215C91.4601 12.8254 90.7793 13.5999 90.2789 14.4889C89.7784 15.3779 89.4694 16.3617 89.3716 17.3772C89.2738 18.3927 89.3894 19.4174 89.711 20.3855C90.0326 21.3537 90.553 22.2439 91.239 22.9991C91.9249 23.7542 92.7611 24.3576 93.694 24.7705C94.6269 25.1834 95.6358 25.3967 96.6559 25.3967H109.616"/>
</mask>
<path d="M116.712 23.041C118.242 21.8981 119.474 20.4026 120.302 18.6816C121.13 16.9606 121.53 15.0651 121.469 13.1561C121.407 11.2472 120.886 9.3813 119.948 7.71721C119.011 6.05312 117.686 4.64002 116.085 3.59808C114.484 2.55614 112.656 1.91618 110.755 1.73263C108.853 1.54908 106.936 1.82737 105.166 2.54382C103.395 3.26028 101.824 4.39371 100.586 5.84773C99.3471 7.30175 98.4781 9.03335 98.0525 10.8953C97.0511 10.7006 96.0201 10.7174 95.0255 10.9447C94.031 11.172 93.095 11.6047 92.2775 12.215C91.4601 12.8254 90.7793 13.5999 90.2789 14.4889C89.7784 15.3779 89.4694 16.3617 89.3716 17.3772C89.2738 18.3927 89.3894 19.4174 89.711 20.3855C90.0326 21.3537 90.553 22.2439 91.239 22.9991C91.9249 23.7542 92.7611 24.3576 93.694 24.7705C94.6269 25.1834 95.6358 25.3967 96.6559 25.3967H109.616" fill="white"/>
<path d="M98.0525 10.8953L98.0004 11.1633L98.2598 11.2137L98.3187 10.9561L98.0525 10.8953ZM96.6559 25.3967V25.1237H96.6559L96.6559 25.3967ZM116.875 23.2597C118.44 22.0906 119.7 20.5606 120.548 18.8L120.056 18.5632C119.247 20.2446 118.043 21.7057 116.548 22.8222L116.875 23.2597ZM120.548 18.8C121.395 17.0394 121.805 15.1002 121.742 13.1473L121.196 13.1649C121.256 15.0299 120.865 16.8818 120.056 18.5632L120.548 18.8ZM121.742 13.1473C121.679 11.1944 121.145 9.28562 120.186 7.58322L119.711 7.85121C120.626 9.47699 121.136 11.2999 121.196 13.1649L121.742 13.1473ZM120.186 7.58322C119.227 5.88082 117.871 4.43519 116.234 3.36926L115.936 3.82689C117.5 4.84485 118.795 6.22542 119.711 7.85121L120.186 7.58322ZM116.234 3.36926C114.596 2.30334 112.726 1.64865 110.781 1.46088L110.728 2.00439C112.586 2.18372 114.372 2.80894 115.936 3.82689L116.234 3.36926ZM110.781 1.46088C108.836 1.2731 106.874 1.55779 105.063 2.29074L105.268 2.79691C106.998 2.09695 108.871 1.82507 110.728 2.00439L110.781 1.46088ZM105.063 2.29074C103.252 3.02369 101.645 4.18321 100.378 5.6707L100.793 6.02476C102.003 4.60421 103.538 3.49687 105.268 2.79691L105.063 2.29074ZM100.378 5.6707C99.1107 7.15819 98.2218 8.92965 97.7864 10.8344L98.3187 10.9561C98.7345 9.13705 99.5835 7.44531 100.793 6.02476L100.378 5.6707ZM98.1047 10.6273C97.0659 10.4253 95.9963 10.4428 94.9647 10.6785L95.0863 11.2108C96.0438 10.992 97.0364 10.9758 98.0004 11.1633L98.1047 10.6273ZM94.9647 10.6785C93.9331 10.9143 92.9621 11.3631 92.1142 11.9963L92.4409 12.4338C93.2278 11.8462 94.1289 11.4296 95.0863 11.2108L94.9647 10.6785ZM92.1142 11.9963C91.2662 12.6294 90.5601 13.4328 90.041 14.355L90.5168 14.6229C90.9986 13.767 91.6539 13.0214 92.4409 12.4338L92.1142 11.9963ZM90.041 14.355C89.5218 15.2772 89.2013 16.2977 89.0998 17.351L89.6434 17.4034C89.7375 16.4258 90.035 15.4787 90.5168 14.6229L90.041 14.355ZM89.0998 17.351C88.9984 18.4044 89.1183 19.4673 89.4519 20.4716L89.9701 20.2995C89.6605 19.3674 89.5492 18.381 89.6434 17.4034L89.0998 17.351ZM89.4519 20.4716C89.7855 21.4759 90.3253 22.3993 91.0369 23.1826L91.4411 22.8155C90.7807 22.0885 90.2797 21.2315 89.9701 20.2995L89.4519 20.4716ZM91.0369 23.1826C91.7484 23.966 92.6158 24.5919 93.5835 25.0202L93.8045 24.5209C92.9064 24.1234 92.1014 23.5425 91.4411 22.8155L91.0369 23.1826ZM93.5835 25.0202C94.5512 25.4485 95.5977 25.6697 96.656 25.6697L96.6559 25.1237C95.6738 25.1237 94.7026 24.9184 93.8045 24.5209L93.5835 25.0202ZM96.6559 25.6697H109.616V25.1237H96.6559V25.6697Z" fill="#E6E6E6" mask="url(#path-4-inside-1_1021_4105)"/>
<path d="M116.712 23.041C118.242 21.8981 119.474 20.4026 120.302 18.6816C121.13 16.9606 121.53 15.0651 121.469 13.1561C121.407 11.2472 120.886 9.3813 119.948 7.71721C119.011 6.05312 117.686 4.64002 116.085 3.59808C114.484 2.55614 112.656 1.91618 110.755 1.73263C108.853 1.54908 106.936 1.82737 105.166 2.54382C103.395 3.26028 101.824 4.39371 100.586 5.84773C99.3471 7.30175 98.4781 9.03335 98.0525 10.8953C97.0511 10.7006 96.0201 10.7174 95.0255 10.9447C94.031 11.172 93.095 11.6047 92.2775 12.215C91.4601 12.8254 90.7793 13.5999 90.2789 14.4889C89.7784 15.3779 89.4694 16.3617 89.3716 17.3772C89.2738 18.3927 89.3894 19.4174 89.711 20.3855C90.0326 21.3537 90.553 22.2439 91.239 22.9991C91.9249 23.7542 92.7611 24.3576 93.694 24.7705C94.6269 25.1834 95.6358 25.3967 96.6559 25.3967H112.181" stroke="#E6E6E6" stroke-width="1.63812" stroke-linecap="round" stroke-linejoin="round"/>
<path d="M97.7578 13.5372C97.7578 10.3919 99.0073 7.37538 101.231 5.1513C103.455 2.92721 106.472 1.67773 109.617 1.67773C112.763 1.67773 115.779 2.92721 118.003 5.1513C120.227 7.37538 121.477 10.3919 121.477 13.5372" stroke="#E6E6E6" stroke-width="1.63812" stroke-linecap="round" stroke-linejoin="round"/>
<path d="M49.8761 52.7593C48.9491 52.7593 48.0313 52.9419 47.1749 53.2966C46.3185 53.6513 45.5404 54.1712 44.8849 54.8267C44.2295 55.4821 43.7095 56.2603 43.3548 57.1167C43.0001 57.973 42.8175 58.8909 42.8175 59.8179C42.8175 59.8226 42.8179 59.8272 42.8179 59.8319L37.5293 58.7799V66.8764H49.8761C51.7481 66.8764 53.5435 66.1327 54.8672 64.809C56.191 63.4853 56.9347 61.6899 56.9347 59.8178C56.9347 57.9458 56.191 56.1504 54.8672 54.8267C53.5435 53.5029 51.7481 52.7593 49.8761 52.7593Z" fill="white" stroke="#E6E6E6" stroke-width="1.63812" stroke-miterlimit="10"/>
<mask id="path-9-inside-2_1021_4105" fill="white">
<path d="M44.6237 64.5209C46.154 63.3781 47.3856 61.8826 48.2139 60.1616C49.0422 58.4406 49.4426 56.545 49.3811 54.6361C49.3196 52.7271 48.7979 50.8613 47.8606 49.1972C46.9232 47.5331 45.5978 46.12 43.9971 45.0781C42.3964 44.0361 40.5678 43.3962 38.6667 43.2126C36.7656 43.0291 34.8482 43.3073 33.0778 44.0238C31.3073 44.7403 29.7361 45.8737 28.4976 47.3277C27.2592 48.7817 26.3902 50.5133 25.9647 52.3752C24.9632 52.1805 23.9322 52.1974 22.9376 52.4247C21.9431 52.6519 21.0071 53.0846 20.1896 53.695C19.3722 54.3054 18.6914 55.0799 18.191 55.9689C17.6905 56.8579 17.3815 57.8417 17.2837 58.8572C17.1859 59.8727 17.3015 60.8974 17.6231 61.8655C17.9447 62.8337 18.4651 63.7239 19.1511 64.4791C19.837 65.2342 20.6732 65.8376 21.6061 66.2505C22.539 66.6634 23.5479 66.8767 24.5681 66.8767H37.5284"/>
</mask>
<path d="M44.6237 64.5209C46.154 63.3781 47.3856 61.8826 48.2139 60.1616C49.0422 58.4406 49.4426 56.545 49.3811 54.6361C49.3196 52.7271 48.7979 50.8613 47.8606 49.1972C46.9232 47.5331 45.5978 46.12 43.9971 45.0781C42.3964 44.0361 40.5678 43.3962 38.6667 43.2126C36.7656 43.0291 34.8482 43.3073 33.0778 44.0238C31.3073 44.7403 29.7361 45.8737 28.4976 47.3277C27.2592 48.7817 26.3902 50.5133 25.9647 52.3752C24.9632 52.1805 23.9322 52.1974 22.9376 52.4247C21.9431 52.6519 21.0071 53.0846 20.1896 53.695C19.3722 54.3054 18.6914 55.0799 18.191 55.9689C17.6905 56.8579 17.3815 57.8417 17.2837 58.8572C17.1859 59.8727 17.3015 60.8974 17.6231 61.8655C17.9447 62.8337 18.4651 63.7239 19.1511 64.4791C19.837 65.2342 20.6732 65.8376 21.6061 66.2505C22.539 66.6634 23.5479 66.8767 24.5681 66.8767H37.5284" fill="white"/>
<path d="M25.9647 52.3752L25.9125 52.6433L26.1719 52.6937L26.2308 52.4361L25.9647 52.3752ZM24.5681 66.8767V66.6037H24.5681L24.5681 66.8767ZM44.787 64.7397C46.3526 63.5705 47.6126 62.0406 48.4599 60.28L47.9679 60.0432C47.1587 61.7246 45.9554 63.1857 44.4603 64.3022L44.787 64.7397ZM48.4599 60.28C49.3073 58.5194 49.7169 56.5802 49.654 54.6273L49.1082 54.6449C49.1683 56.5099 48.7771 58.3618 47.9679 60.0432L48.4599 60.28ZM49.654 54.6273C49.591 52.6744 49.0574 50.7656 48.0984 49.0632L47.6227 49.3312C48.5385 50.957 49.0481 52.7799 49.1082 54.6449L49.654 54.6273ZM48.0984 49.0632C47.1395 47.3608 45.7836 45.9152 44.146 44.8492L43.8482 45.3069C45.412 46.3248 46.7069 47.7054 47.6227 49.3312L48.0984 49.0632ZM44.146 44.8492C42.5085 43.7833 40.6378 43.1286 38.6929 42.9409L38.6404 43.4844C40.4978 43.6637 42.2843 44.2889 43.8482 45.3069L44.146 44.8492ZM38.6929 42.9409C36.748 42.7531 34.7866 43.0378 32.9754 43.7707L33.1802 44.2769C34.9099 43.5769 36.7831 43.305 38.6404 43.4844L38.6929 42.9409ZM32.9754 43.7707C31.1641 44.5037 29.5567 45.6632 28.2898 47.1507L28.7055 47.5047C29.9154 46.0842 31.4505 44.9768 33.1802 44.2769L32.9754 43.7707ZM28.2898 47.1507C27.0228 48.6382 26.1339 50.4096 25.6985 52.3144L26.2308 52.4361C26.6466 50.617 27.4956 48.9253 28.7055 47.5047L28.2898 47.1507ZM26.0168 52.1072C24.978 51.9053 23.9084 51.9227 22.8768 52.1585L22.9985 52.6908C23.9559 52.472 24.9485 52.4558 25.9125 52.6433L26.0168 52.1072ZM22.8768 52.1585C21.8452 52.3943 20.8742 52.8431 20.0263 53.4762L20.353 53.9138C21.1399 53.3262 22.041 52.9096 22.9985 52.6908L22.8768 52.1585ZM20.0263 53.4762C19.1784 54.1094 18.4722 54.9128 17.9531 55.835L18.4289 56.1028C18.9107 55.247 19.5661 54.5014 20.353 53.9138L20.0263 53.4762ZM17.9531 55.835C17.434 56.7571 17.1134 57.7777 17.0119 58.831L17.5555 58.8834C17.6496 57.9058 17.9471 56.9587 18.4289 56.1028L17.9531 55.835ZM17.0119 58.831C16.9105 59.8844 17.0304 60.9473 17.364 61.9516L17.8822 61.7795C17.5726 60.8474 17.4613 59.8609 17.5555 58.8834L17.0119 58.831ZM17.364 61.9516C17.6976 62.9559 18.2375 63.8793 18.949 64.6626L19.3532 64.2955C18.6928 63.5685 18.1918 62.7115 17.8822 61.7795L17.364 61.9516ZM18.949 64.6626C19.6605 65.446 20.5279 66.0719 21.4956 66.5002L21.7166 66.0009C20.8185 65.6034 20.0135 65.0225 19.3532 64.2955L18.949 64.6626ZM21.4956 66.5002C22.4633 66.9285 23.5098 67.1497 24.5681 67.1497L24.5681 66.6037C23.586 66.6037 22.6147 66.3983 21.7166 66.0009L21.4956 66.5002ZM24.5681 67.1497H37.5284V66.6037H24.5681V67.1497Z" fill="#E6E6E6" mask="url(#path-9-inside-2_1021_4105)"/>
<path d="M44.6237 64.5209C46.154 63.3781 47.3856 61.8826 48.2139 60.1616C49.0422 58.4406 49.4426 56.545 49.3811 54.6361C49.3196 52.7271 48.7979 50.8613 47.8606 49.1972C46.9232 47.5331 45.5978 46.12 43.9971 45.0781C42.3964 44.0361 40.5678 43.3962 38.6667 43.2126C36.7656 43.0291 34.8482 43.3073 33.0778 44.0238C31.3073 44.7403 29.7361 45.8737 28.4976 47.3277C27.2592 48.7817 26.3902 50.5133 25.9647 52.3753C24.9632 52.1805 23.9322 52.1974 22.9376 52.4247C21.9431 52.6519 21.0071 53.0846 20.1896 53.695C19.3722 54.3054 18.6914 55.0799 18.191 55.9689C17.6905 56.8579 17.3815 57.8417 17.2837 58.8572C17.1859 59.8727 17.3015 60.8974 17.6231 61.8655C17.9447 62.8337 18.4651 63.7239 19.1511 64.4791C19.837 65.2342 20.6732 65.8376 21.6061 66.2505C22.539 66.6634 23.5479 66.8767 24.5681 66.8767H40.0931" stroke="#E6E6E6" stroke-width="1.63812" stroke-linecap="round" stroke-linejoin="round"/>
<path d="M25.668 55.0172C25.668 53.4598 25.9747 51.9176 26.5707 50.4788C27.1667 49.0399 28.0403 47.7325 29.1415 46.6313C30.2428 45.53 31.5502 44.6565 32.989 44.0605C34.4279 43.4645 35.97 43.1577 37.5275 43.1577C39.0849 43.1577 40.627 43.4645 42.0659 44.0605C43.5047 44.6565 44.8121 45.53 45.9134 46.6313C47.0146 47.7325 47.8882 49.0399 48.4842 50.4788C49.0802 51.9176 49.3869 53.4598 49.3869 55.0172" stroke="#E6E6E6" stroke-width="1.63812" stroke-linecap="round" stroke-linejoin="round"/>
<path d="M99.2218 75.5617H87.0633C85.5065 75.5617 84.0135 74.9433 82.9126 73.8424C81.8118 72.7416 81.1934 71.2486 81.1934 69.6918C81.1934 68.135 81.8118 66.6419 82.9126 65.5411C84.0135 64.4403 85.5065 63.8218 87.0633 63.8218H99.2218C101.11 63.8197 102.92 63.0687 104.255 61.7336C105.59 60.3985 106.341 58.5884 106.344 56.7002V47.328C106.344 45.7711 106.962 44.2781 108.063 43.1773C109.164 42.0764 110.657 41.458 112.213 41.458C113.77 41.458 115.263 42.0764 116.364 43.1773C117.465 44.2781 118.083 45.7711 118.083 47.328V56.7002C118.078 61.7009 116.089 66.4951 112.553 70.0311C109.017 73.5671 104.222 75.5561 99.2218 75.5617Z" fill="white" stroke="#E6E6E6" stroke-width="1.63812" stroke-linecap="round" stroke-linejoin="round"/>
<path d="M79.6305 5.21143H79.6305C83.3362 5.21143 86.8901 6.6835 89.5105 9.30382C92.1308 11.9241 93.6029 15.478 93.6029 19.1837V105.253H65.6582V19.1837C65.6582 15.478 67.1303 11.9241 69.7506 9.30382C72.3709 6.6835 75.9248 5.21143 79.6305 5.21143Z" fill="white" stroke="#E6E6E6" stroke-width="1.63812" stroke-linecap="round" stroke-linejoin="round"/>
<path d="M72.3385 60.0725H60.18C55.1793 60.0668 50.385 58.0778 46.849 54.5418C43.313 51.0058 41.324 46.2115 41.3184 41.2108V31.8387C41.3184 30.2819 41.9368 28.7888 43.0376 27.688C44.1385 26.5872 45.6315 25.9688 47.1883 25.9688C48.7451 25.9688 50.2382 26.5872 51.339 27.688C52.4398 28.7888 53.0582 30.2819 53.0582 31.8387V41.2109C53.0604 43.099 53.8114 44.9092 55.1465 46.2443C56.4816 47.5795 58.2918 48.3305 60.18 48.3326H72.3385C73.8953 48.3326 75.3883 48.951 76.4891 50.0519C77.59 51.1527 78.2084 52.6457 78.2084 54.2025C78.2084 55.7593 77.59 57.2524 76.4891 58.3532C75.3883 59.454 73.8953 60.0725 72.3385 60.0725L72.3385 60.0725Z" fill="white" stroke="#E6E6E6" stroke-width="1.63812" stroke-linecap="round" stroke-linejoin="round"/>
<path d="M68.8572 13.4102L68.8572 13.4102C68.359 13.8306 68.2959 14.5753 68.7162 15.0735L70.3709 17.0347C70.7913 17.5329 71.536 17.596 72.0342 17.1757L72.0342 17.1757C72.5324 16.7553 72.5956 16.0106 72.1752 15.5124L70.5205 13.5512C70.1001 13.053 69.3555 12.9899 68.8572 13.4102Z" fill="#E6E6E6"/>
<path d="M111.694 48.8559C111.274 48.3577 110.529 48.2945 110.031 48.7149C109.533 49.1353 109.47 49.88 109.89 50.3782L111.545 52.3394C111.965 52.8376 112.71 52.9007 113.208 52.4804C113.706 52.06 113.769 51.3153 113.349 50.8171L111.694 48.8559Z" fill="#E6E6E6"/>
<path d="M87.5935 69.7652L87.5935 69.7652C87.0953 70.1856 87.0322 70.9303 87.4526 71.4285L89.1073 73.3897C89.5276 73.8879 90.2723 73.951 90.7705 73.5307L90.7705 73.5307C91.2688 73.1103 91.3319 72.3656 90.9115 71.8674L89.2568 69.9062C88.8365 69.408 88.0918 69.3448 87.5935 69.7652Z" fill="#E6E6E6"/>
<path d="M90.917 47.646C91.5387 47.4498 91.8836 46.7868 91.6873 46.1651C91.4911 45.5435 90.8281 45.1986 90.2064 45.3949L87.7595 46.1673C87.1378 46.3635 86.793 47.0265 86.9892 47.6482C87.1854 48.2698 87.8484 48.6147 88.4701 48.4185L90.917 47.646Z" fill="#E6E6E6"/>
<path d="M52.1014 42.2794L52.1014 42.2794C51.9052 41.6578 51.2421 41.3129 50.6205 41.5091L48.1735 42.2815C47.5519 42.4777 47.207 43.1408 47.4033 43.7624L47.4033 43.7624C47.5995 44.3841 48.2625 44.7289 48.8842 44.5327L51.3311 43.7603C51.9528 43.5641 52.2976 42.9011 52.1014 42.2794Z" fill="#E6E6E6"/>
<path d="M79.2643 85.8668L79.2643 85.8668C79.8777 85.6462 80.1961 84.97 79.9755 84.3566L79.1069 81.9421C78.8863 81.3287 78.2101 81.0103 77.5967 81.231L77.5967 81.231C76.9833 81.4516 76.6649 82.1278 76.8856 82.7412L77.7541 85.1557C77.9748 85.7691 78.6509 86.0875 79.2643 85.8668Z" fill="#E6E6E6"/>
<path d="M74.5966 42.5445C75.2469 42.4985 75.7367 41.9341 75.6907 41.2838C75.6447 40.6336 75.0803 40.1437 74.43 40.1898L71.8705 40.3708C71.2202 40.4169 70.7304 40.9813 70.7764 41.6316C70.8224 42.2818 71.3868 42.7717 72.0371 42.7256L74.5966 42.5445Z" fill="#E6E6E6"/>
<path d="M112.983 64.4928C113.634 64.4468 114.123 63.8823 114.077 63.2321C114.031 62.5818 113.467 62.092 112.817 62.138L110.257 62.3191C109.607 62.3651 109.117 62.9295 109.163 63.5798C109.209 64.2301 109.774 64.7199 110.424 64.6739L112.983 64.4928Z" fill="#E6E6E6"/>
<path d="M47.0568 36.1459L47.0568 36.1459C47.5551 35.7255 47.6182 34.9809 47.1978 34.4826L45.5431 32.5215C45.1228 32.0232 44.3781 31.9601 43.8799 32.3805L43.8798 32.3805C43.3816 32.8009 43.3185 33.5455 43.7389 34.0438L45.3936 36.0049C45.8139 36.5032 46.5586 36.5663 47.0568 36.1459Z" fill="#E6E6E6"/>
<path d="M86.0465 61.2502L86.0465 61.2502C86.1999 60.6166 85.8106 59.9787 85.177 59.8253L82.6831 59.2215C82.0495 59.0682 81.4115 59.4574 81.2582 60.091L81.2582 60.091C81.1048 60.7246 81.4941 61.3626 82.1276 61.5159L84.6216 62.1197C85.2551 62.2731 85.8931 61.8838 86.0465 61.2502Z" fill="#E6E6E6"/>
<path d="M64.5615 58.3258C65.2117 58.2798 65.7016 57.7154 65.6556 57.0651C65.6096 56.4148 65.0451 55.925 64.3949 55.971L61.8353 56.1521C61.185 56.1981 60.6952 56.7625 60.7412 57.4128C60.7872 58.0631 61.3517 58.5529 62.0019 58.5069L64.5615 58.3258Z" fill="#E6E6E6"/>
<path d="M80.7939 27.6024C80.4164 28.1339 80.5413 28.8708 81.0728 29.2482C81.6043 29.6257 82.3411 29.5008 82.7186 28.9693L84.2043 26.8772C84.5818 26.3457 84.4569 25.6089 83.9254 25.2314C83.3939 24.854 82.657 24.9788 82.2796 25.5103L80.7939 27.6024Z" fill="#E6E6E6"/>
<path d="M50.6822 54.7668L50.6822 54.7668C51.2137 55.1442 51.9505 55.0193 52.328 54.4878L53.8137 52.3958C54.1911 51.8643 54.0663 51.1274 53.5348 50.75L53.5348 50.75C53.0033 50.3725 52.2664 50.4974 51.889 51.0289L50.4032 53.121C50.0258 53.6525 50.1507 54.3893 50.6822 54.7668Z" fill="#E6E6E6"/>
<path d="M97.9325 71.5692C97.5551 72.1007 97.68 72.8376 98.2115 73.215C98.743 73.5925 99.4798 73.4676 99.8573 72.9361L101.343 70.844C101.72 70.3125 101.596 69.5757 101.064 69.1982C100.533 68.8208 99.7957 68.9456 99.4183 69.4771L97.9325 71.5692Z" fill="#E6E6E6"/>
<path d="M69.0201 70.276L69.0201 70.276C69.5516 70.6535 70.2884 70.5286 70.6659 69.9971L72.1516 67.905C72.529 67.3735 72.4041 66.6367 71.8727 66.2593L71.8727 66.2593C71.3412 65.8818 70.6043 66.0067 70.2269 66.5382L68.7411 68.6303C68.3637 69.1617 68.4886 69.8986 69.0201 70.276Z" fill="#E6E6E6"/>
<path d="M100.992 85.506C100.622 85.0772 100.097 84.8115 99.5323 84.7666C99.1754 83.7705 98.4773 83.0444 97.5738 82.8808C96.6703 82.7172 95.762 83.1524 95.0785 83.9602C94.5337 83.8042 93.9494 83.869 93.452 84.1407C92.2034 84.8585 91.9893 86.829 92.974 88.5419C93.6838 89.7768 94.8223 90.5367 95.8706 90.598C96.0618 90.6621 96.2613 90.6982 96.4628 90.7053C97.4661 91.0155 98.7988 90.7029 99.8966 89.7954C101.419 88.5365 101.91 86.6161 100.992 85.506Z" fill="#B3B3B3"/>
<path d="M131.84 109.067C132.187 109.068 132.529 108.972 132.825 108.791C133.122 108.609 133.362 108.349 133.52 108.039C133.678 107.729 133.746 107.382 133.718 107.035C133.69 106.689 133.567 106.357 133.361 106.076C125.372 95.3463 111.955 88.3052 96.7479 88.3052C81.5409 88.3052 68.1236 95.3463 60.1344 106.076C59.9291 106.357 59.8056 106.689 59.7776 107.035C59.7496 107.382 59.8183 107.729 59.9759 108.039C60.1336 108.349 60.3741 108.609 60.6707 108.791C60.9673 108.972 61.3084 109.068 61.6561 109.067H131.84Z" fill="white" stroke="#E6E6E6" stroke-width="1.63812" stroke-linecap="round" stroke-linejoin="round"/>
<path d="M81.2016 102.314C80.9201 101.528 80.3693 100.955 79.6564 100.826C78.9435 100.697 78.2268 101.041 77.6875 101.678C77.2577 101.555 76.7967 101.606 76.4043 101.82C75.4191 102.387 75.2501 103.941 76.0271 105.293C76.5871 106.267 77.4854 106.867 78.3126 106.915C78.4635 106.966 78.6208 106.994 78.7799 107C79.5714 107.245 80.623 106.998 81.4891 106.282C82.6906 105.289 83.0776 103.773 82.3535 102.898C82.0612 102.559 81.6474 102.35 81.2016 102.314Z" fill="#B3B3B3"/>
<path d="M81.3935 109.067C75.433 101.551 64.1141 96.4771 51.1292 96.4771C39.7421 96.4771 29.6362 100.38 23.3017 106.408C23.0801 106.622 22.9275 106.898 22.8636 107.2C22.7998 107.501 22.8275 107.815 22.9433 108.101C23.0591 108.387 23.2577 108.631 23.5135 108.803C23.7694 108.975 24.0708 109.067 24.3791 109.067L81.3935 109.067Z" fill="white" stroke="#E6E6E6" stroke-width="1.63812" stroke-linecap="round" stroke-linejoin="round"/>
<path d="M9.58665 121.14V131.322H8.17472L2.99929 123.855H2.90483V131.322H1.36861V121.14H2.79048L7.97088 128.618H8.06534V121.14H9.58665ZM14.7849 131.476C14.069 131.476 13.4442 131.312 12.9106 130.984C12.377 130.656 11.9627 130.197 11.6677 129.607C11.3727 129.017 11.2252 128.328 11.2252 127.539C11.2252 126.747 11.3727 126.054 11.6677 125.461C11.9627 124.867 12.377 124.407 12.9106 124.079C13.4442 123.751 14.069 123.586 14.7849 123.586C15.5008 123.586 16.1256 123.751 16.6592 124.079C17.1928 124.407 17.6071 124.867 17.9021 125.461C18.1971 126.054 18.3446 126.747 18.3446 127.539C18.3446 128.328 18.1971 129.017 17.9021 129.607C17.6071 130.197 17.1928 130.656 16.6592 130.984C16.1256 131.312 15.5008 131.476 14.7849 131.476ZM14.7899 130.229C15.2539 130.229 15.6383 130.106 15.9433 129.861C16.2482 129.615 16.4736 129.289 16.6194 128.881C16.7686 128.474 16.8431 128.024 16.8431 127.534C16.8431 127.047 16.7686 126.599 16.6194 126.192C16.4736 125.781 16.2482 125.451 15.9433 125.202C15.6383 124.954 15.2539 124.829 14.7899 124.829C14.3225 124.829 13.9348 124.954 13.6265 125.202C13.3216 125.451 13.0946 125.781 12.9454 126.192C12.7996 126.599 12.7267 127.047 12.7267 127.534C12.7267 128.024 12.7996 128.474 12.9454 128.881C13.0946 129.289 13.3216 129.615 13.6265 129.861C13.9348 130.106 14.3225 130.229 14.7899 130.229ZM23.4289 134.186V123.686H24.8806V124.924H25.0049C25.0911 124.765 25.2154 124.581 25.3778 124.372C25.5402 124.163 25.7655 123.981 26.0539 123.825C26.3423 123.666 26.7234 123.586 27.1974 123.586C27.8138 123.586 28.364 123.742 28.8479 124.054C29.3318 124.365 29.7113 124.814 29.9864 125.401C30.2648 125.988 30.404 126.694 30.404 127.519C30.404 128.344 30.2665 129.052 29.9914 129.642C29.7163 130.229 29.3385 130.681 28.8579 130.999C28.3773 131.314 27.8288 131.471 27.2123 131.471C26.7483 131.471 26.3688 131.394 26.0738 131.238C25.7821 131.082 25.5534 130.9 25.3877 130.691C25.222 130.482 25.0944 130.296 25.0049 130.134H24.9154V134.186H23.4289ZM24.8856 127.504C24.8856 128.041 24.9635 128.512 25.1192 128.916C25.275 129.32 25.5004 129.637 25.7954 129.866C26.0904 130.091 26.4516 130.204 26.8792 130.204C27.3233 130.204 27.6945 130.086 27.9928 129.851C28.2911 129.612 28.5165 129.289 28.669 128.881C28.8247 128.474 28.9026 128.015 28.9026 127.504C28.9026 127 28.8264 126.548 28.6739 126.147C28.5248 125.746 28.2994 125.429 27.9978 125.197C27.6995 124.965 27.3266 124.849 26.8792 124.849C26.4483 124.849 26.0837 124.96 25.7854 125.182C25.4905 125.404 25.2667 125.714 25.1143 126.112C24.9618 126.51 24.8856 126.974 24.8856 127.504ZM34.1518 131.491C33.6679 131.491 33.2304 131.402 32.8393 131.223C32.4482 131.041 32.1383 130.777 31.9096 130.432C31.6843 130.088 31.5716 129.665 31.5716 129.165C31.5716 128.734 31.6544 128.379 31.8201 128.101C31.9859 127.822 32.2096 127.602 32.4913 127.439C32.773 127.277 33.0879 127.154 33.4359 127.072C33.7839 126.989 34.1386 126.926 34.4998 126.883C34.9572 126.83 35.3284 126.787 35.6135 126.753C35.8985 126.717 36.1057 126.659 36.2349 126.579C36.3642 126.5 36.4288 126.371 36.4288 126.192V126.157C36.4288 125.723 36.3062 125.386 36.0609 125.148C35.819 124.909 35.4577 124.79 34.9771 124.79C34.4766 124.79 34.0822 124.901 33.7939 125.123C33.5088 125.341 33.3116 125.585 33.2023 125.854L31.8052 125.535C31.971 125.071 32.2129 124.697 32.5311 124.412C32.8526 124.123 33.2221 123.915 33.6398 123.785C34.0574 123.653 34.4965 123.586 34.9572 123.586C35.2621 123.586 35.5853 123.623 35.9267 123.696C36.2714 123.765 36.5929 123.895 36.8912 124.084C37.1928 124.273 37.4397 124.543 37.6319 124.894C37.8242 125.242 37.9203 125.694 37.9203 126.251V131.322H36.4686V130.278H36.4089C36.3128 130.47 36.1686 130.659 35.9764 130.845C35.7842 131.031 35.5372 131.185 35.2356 131.307C34.934 131.43 34.5728 131.491 34.1518 131.491ZM34.475 130.298C34.886 130.298 35.2373 130.217 35.529 130.055C35.8239 129.892 36.0477 129.68 36.2001 129.418C36.3559 129.153 36.4338 128.87 36.4338 128.568V127.584C36.3808 127.637 36.278 127.686 36.1255 127.733C35.9764 127.776 35.8057 127.814 35.6135 127.847C35.4212 127.877 35.234 127.905 35.0517 127.932C34.8694 127.955 34.7169 127.975 34.5943 127.991C34.3059 128.028 34.0425 128.089 33.8038 128.175C33.5685 128.261 33.3796 128.386 33.2371 128.548C33.0978 128.707 33.0282 128.919 33.0282 129.184C33.0282 129.552 33.1641 129.831 33.4359 130.02C33.7077 130.205 34.0541 130.298 34.475 130.298ZM40.4264 134.186C40.2044 134.186 40.0022 134.168 39.8199 134.131C39.6376 134.098 39.5017 134.062 39.4122 134.022L39.7702 132.804C40.042 132.877 40.2839 132.908 40.496 132.898C40.7081 132.888 40.8954 132.809 41.0578 132.66C41.2235 132.51 41.3694 132.267 41.4953 131.929L41.6793 131.422L38.8852 123.686H40.4761L42.4101 129.612H42.4896L44.4236 123.686H46.0195L42.8724 132.341C42.7266 132.739 42.541 133.076 42.3156 133.351C42.0902 133.629 41.8218 133.838 41.5102 133.977C41.1987 134.116 40.8374 134.186 40.4264 134.186ZM47.2765 131.322V123.686H48.7033V124.929H48.7978C48.9569 124.508 49.2171 124.18 49.5783 123.944C49.9396 123.706 50.3721 123.586 50.8759 123.586C51.3863 123.586 51.8139 123.706 52.1586 123.944C52.5066 124.183 52.7635 124.511 52.9292 124.929H53.0087C53.191 124.521 53.481 124.196 53.8787 123.954C54.2765 123.709 54.7504 123.586 55.3006 123.586C55.9933 123.586 56.5584 123.804 56.9959 124.238C57.4368 124.672 57.6572 125.327 57.6572 126.202V131.322H56.1707V126.341C56.1707 125.824 56.0298 125.449 55.7481 125.217C55.4663 124.985 55.1299 124.869 54.7388 124.869C54.2549 124.869 53.8787 125.018 53.6103 125.317C53.3418 125.612 53.2076 125.991 53.2076 126.455V131.322H51.7261V126.246C51.7261 125.832 51.5968 125.499 51.3383 125.247C51.0797 124.995 50.7433 124.869 50.329 124.869C50.0473 124.869 49.7871 124.944 49.5485 125.093C49.3132 125.239 49.1226 125.443 48.9768 125.704C48.8342 125.966 48.763 126.269 48.763 126.614V131.322H47.2765ZM62.8007 131.476C62.0484 131.476 61.4004 131.316 60.8568 130.994C60.3166 130.669 59.899 130.214 59.604 129.627C59.3123 129.037 59.1665 128.346 59.1665 127.554C59.1665 126.772 59.3123 126.082 59.604 125.486C59.899 124.889 60.31 124.423 60.8369 124.089C61.3672 123.754 61.987 123.586 62.6963 123.586C63.1272 123.586 63.5448 123.658 63.9492 123.8C64.3535 123.943 64.7164 124.166 65.0379 124.471C65.3594 124.776 65.613 125.172 65.7986 125.66C65.9842 126.144 66.077 126.732 66.077 127.425V127.952H60.0067V126.838H64.6203C64.6203 126.447 64.5408 126.1 64.3817 125.799C64.2226 125.494 63.9989 125.254 63.7105 125.078C63.4255 124.902 63.0907 124.814 62.7063 124.814C62.2886 124.814 61.9241 124.917 61.6125 125.123C61.3043 125.325 61.0656 125.59 60.8966 125.918C60.7309 126.243 60.648 126.596 60.648 126.977V127.847C60.648 128.358 60.7375 128.792 60.9165 129.15C61.0988 129.508 61.3523 129.781 61.6771 129.97C62.0019 130.156 62.3814 130.248 62.8156 130.248C63.0974 130.248 63.3542 130.209 63.5862 130.129C63.8182 130.046 64.0188 129.924 64.1878 129.761C64.3568 129.599 64.4861 129.398 64.5756 129.16L65.9825 129.413C65.8698 129.827 65.6677 130.19 65.376 130.502C65.0876 130.81 64.7247 131.05 64.2872 131.223C63.853 131.392 63.3575 131.476 62.8007 131.476ZM69.0728 126.788V131.322H67.5863V123.686H69.0132V124.929H69.1076C69.2833 124.524 69.5584 124.2 69.9329 123.954C70.3108 123.709 70.7864 123.586 71.3598 123.586C71.8801 123.586 72.3358 123.696 72.7269 123.915C73.118 124.13 73.4213 124.452 73.6367 124.879C73.8522 125.307 73.9599 125.835 73.9599 126.465V131.322H72.4734V126.644C72.4734 126.09 72.3292 125.658 72.0409 125.346C71.7525 125.032 71.3564 124.874 70.8527 124.874C70.508 124.874 70.2014 124.949 69.9329 125.098C69.6678 125.247 69.4573 125.466 69.3015 125.754C69.1491 126.039 69.0728 126.384 69.0728 126.788ZM79.3781 123.686V124.879H75.207V123.686H79.3781ZM76.3256 121.856H77.8121V129.08C77.8121 129.368 77.8552 129.586 77.9413 129.731C78.0275 129.874 78.1386 129.972 78.2744 130.025C78.4136 130.074 78.5645 130.099 78.7269 130.099C78.8462 130.099 78.9506 130.091 79.0401 130.074C79.1296 130.058 79.1992 130.045 79.2489 130.035L79.5173 131.263C79.4312 131.296 79.3085 131.329 79.1494 131.362C78.9904 131.398 78.7915 131.418 78.5529 131.422C78.1618 131.428 77.7972 131.359 77.4591 131.213C77.121 131.067 76.8476 130.842 76.6388 130.537C76.43 130.232 76.3256 129.849 76.3256 129.388V121.856ZM85.9341 126.788V131.322H84.4476V121.14H85.9142V124.929H86.0086C86.1876 124.518 86.4611 124.191 86.829 123.949C87.1969 123.707 87.6774 123.586 88.2707 123.586C88.7944 123.586 89.2518 123.694 89.6429 123.91C90.0373 124.125 90.3422 124.447 90.5577 124.874C90.7764 125.298 90.8858 125.829 90.8858 126.465V131.322H89.3993V126.644C89.3993 126.084 89.2551 125.65 88.9667 125.341C88.6784 125.03 88.2774 124.874 87.7636 124.874C87.4123 124.874 87.0974 124.949 86.819 125.098C86.5439 125.247 86.3268 125.466 86.1677 125.754C86.012 126.039 85.9341 126.384 85.9341 126.788ZM92.7294 131.322V123.686H94.216V131.322H92.7294ZM93.4802 122.508C93.2216 122.508 92.9996 122.421 92.814 122.249C92.6317 122.073 92.5405 121.865 92.5405 121.623C92.5405 121.377 92.6317 121.169 92.814 120.996C92.9996 120.821 93.2216 120.733 93.4802 120.733C93.7387 120.733 93.9591 120.821 94.1414 120.996C94.327 121.169 94.4198 121.377 94.4198 121.623C94.4198 121.865 94.327 122.073 94.1414 122.249C93.9591 122.421 93.7387 122.508 93.4802 122.508ZM101.798 125.55L100.451 125.789C100.394 125.617 100.305 125.452 100.182 125.297C100.063 125.141 99.9006 125.013 99.6951 124.914C99.4896 124.814 99.2327 124.765 98.9245 124.765C98.5036 124.765 98.1522 124.859 97.8705 125.048C97.5888 125.234 97.4479 125.474 97.4479 125.769C97.4479 126.024 97.5424 126.23 97.7313 126.385C97.9202 126.541 98.2252 126.669 98.6461 126.768L99.8592 127.047C100.562 127.209 101.085 127.459 101.43 127.797C101.775 128.135 101.947 128.575 101.947 129.115C101.947 129.572 101.815 129.98 101.549 130.338C101.288 130.693 100.921 130.971 100.451 131.173C99.9834 131.375 99.4415 131.476 98.8251 131.476C97.97 131.476 97.2723 131.294 96.732 130.93C96.1918 130.562 95.8603 130.04 95.7377 129.363L97.1745 129.145C97.264 129.519 97.4479 129.803 97.7263 129.995C98.0048 130.184 98.3677 130.278 98.8151 130.278C99.3023 130.278 99.6918 130.177 99.9834 129.975C100.275 129.769 100.421 129.519 100.421 129.224C100.421 128.986 100.331 128.785 100.152 128.623C99.9768 128.46 99.7067 128.338 99.3421 128.255L98.0495 127.971C97.3369 127.809 96.8099 127.55 96.4685 127.196C96.1305 126.841 95.9614 126.392 95.9614 125.849C95.9614 125.398 96.0874 125.003 96.3393 124.665C96.5912 124.327 96.9392 124.064 97.3833 123.875C97.8274 123.683 98.3362 123.586 98.9096 123.586C99.7349 123.586 100.384 123.765 100.858 124.123C101.332 124.478 101.646 124.954 101.798 125.55ZM107.006 123.686V124.879H102.835V123.686H107.006ZM103.954 121.856H105.44V129.08C105.44 129.368 105.483 129.586 105.569 129.731C105.656 129.874 105.767 129.972 105.903 130.025C106.042 130.074 106.193 130.099 106.355 130.099C106.474 130.099 106.579 130.091 106.668 130.074C106.758 130.058 106.827 130.045 106.877 130.035L107.145 131.263C107.059 131.296 106.937 131.329 106.778 131.362C106.618 131.398 106.42 131.418 106.181 131.422C105.79 131.428 105.425 131.359 105.087 131.213C104.749 131.067 104.476 130.842 104.267 130.537C104.058 130.232 103.954 129.849 103.954 129.388V121.856ZM111.645 131.476C110.929 131.476 110.305 131.312 109.771 130.984C109.237 130.656 108.823 130.197 108.528 129.607C108.233 129.017 108.086 128.328 108.086 127.539C108.086 126.747 108.233 126.054 108.528 125.461C108.823 124.867 109.237 124.407 109.771 124.079C110.305 123.751 110.929 123.586 111.645 123.586C112.361 123.586 112.986 123.751 113.519 124.079C114.053 124.407 114.467 124.867 114.762 125.461C115.057 126.054 115.205 126.747 115.205 127.539C115.205 128.328 115.057 129.017 114.762 129.607C114.467 130.197 114.053 130.656 113.519 130.984C112.986 131.312 112.361 131.476 111.645 131.476ZM111.65 130.229C112.114 130.229 112.499 130.106 112.804 129.861C113.109 129.615 113.334 129.289 113.48 128.881C113.629 128.474 113.703 128.024 113.703 127.534C113.703 127.047 113.629 126.599 113.48 126.192C113.334 125.781 113.109 125.451 112.804 125.202C112.499 124.954 112.114 124.829 111.65 124.829C111.183 124.829 110.795 124.954 110.487 125.202C110.182 125.451 109.955 125.781 109.806 126.192C109.66 126.599 109.587 127.047 109.587 127.534C109.587 128.024 109.66 128.474 109.806 128.881C109.955 129.289 110.182 129.615 110.487 129.861C110.795 130.106 111.183 130.229 111.65 130.229ZM116.724 131.322V123.686H118.161V124.899H118.24C118.38 124.488 118.625 124.165 118.976 123.93C119.331 123.691 119.732 123.572 120.179 123.572C120.272 123.572 120.382 123.575 120.508 123.581C120.637 123.588 120.738 123.596 120.811 123.606V125.028C120.751 125.012 120.645 124.993 120.493 124.974C120.34 124.95 120.188 124.939 120.035 124.939C119.684 124.939 119.371 125.013 119.096 125.162C118.824 125.308 118.608 125.512 118.449 125.774C118.29 126.032 118.211 126.327 118.211 126.659V131.322H116.724ZM123.129 134.186C122.907 134.186 122.705 134.168 122.523 134.131C122.34 134.098 122.205 134.062 122.115 134.022L122.473 132.804C122.745 132.877 122.987 132.908 123.199 132.898C123.411 132.888 123.598 132.809 123.761 132.66C123.926 132.51 124.072 132.267 124.198 131.929L124.382 131.422L121.588 123.686H123.179L125.113 129.612H125.192L127.126 123.686H128.722L125.575 132.341C125.429 132.739 125.244 133.076 125.018 133.351C124.793 133.629 124.525 133.838 124.213 133.977C123.901 134.116 123.54 134.186 123.129 134.186ZM134.484 134.186C134.262 134.186 134.06 134.168 133.877 134.131C133.695 134.098 133.559 134.062 133.47 134.022L133.828 132.804C134.1 132.877 134.341 132.908 134.554 132.898C134.766 132.888 134.953 132.809 135.115 132.66C135.281 132.51 135.427 132.267 135.553 131.929L135.737 131.422L132.943 123.686H134.534L136.468 129.612H136.547L138.481 123.686H140.077L136.93 132.341C136.784 132.739 136.599 133.076 136.373 133.351C136.148 133.629 135.879 133.838 135.568 133.977C135.256 134.116 134.895 134.186 134.484 134.186ZM144.365 131.476C143.613 131.476 142.965 131.316 142.422 130.994C141.881 130.669 141.464 130.214 141.169 129.627C140.877 129.037 140.731 128.346 140.731 127.554C140.731 126.772 140.877 126.082 141.169 125.486C141.464 124.889 141.875 124.423 142.402 124.089C142.932 123.754 143.552 123.586 144.261 123.586C144.692 123.586 145.11 123.658 145.514 123.8C145.918 123.943 146.281 124.166 146.603 124.471C146.924 124.776 147.178 125.172 147.363 125.66C147.549 126.144 147.642 126.732 147.642 127.425V127.952H141.571V126.838H146.185C146.185 126.447 146.106 126.1 145.946 125.799C145.787 125.494 145.564 125.254 145.275 125.078C144.99 124.902 144.655 124.814 144.271 124.814C143.853 124.814 143.489 124.917 143.177 125.123C142.869 125.325 142.63 125.59 142.461 125.918C142.296 126.243 142.213 126.596 142.213 126.977V127.847C142.213 128.358 142.302 128.792 142.481 129.15C142.664 129.508 142.917 129.781 143.242 129.97C143.567 130.156 143.946 130.248 144.38 130.248C144.662 130.248 144.919 130.209 145.151 130.129C145.383 130.046 145.584 129.924 145.753 129.761C145.922 129.599 146.051 129.398 146.14 129.16L147.547 129.413C147.435 129.827 147.232 130.19 146.941 130.502C146.652 130.81 146.289 131.05 145.852 131.223C145.418 131.392 144.922 131.476 144.365 131.476ZM152.716 123.686V124.879H148.545V123.686H152.716ZM149.663 121.856H151.15V129.08C151.15 129.368 151.193 129.586 151.279 129.731C151.365 129.874 151.476 129.972 151.612 130.025C151.751 130.074 151.902 130.099 152.064 130.099C152.184 130.099 152.288 130.091 152.378 130.074C152.467 130.058 152.537 130.045 152.586 130.035L152.855 131.263C152.769 131.296 152.646 131.329 152.487 131.362C152.328 131.398 152.129 131.418 151.89 131.422C151.499 131.428 151.135 131.359 150.797 131.213C150.459 131.067 150.185 130.842 149.976 130.537C149.768 130.232 149.663 129.849 149.663 129.388V121.856Z" fill="#999999"/>
</svg>
