<svg width="24" height="24" viewBox="0 0 24 24" fill="none" xmlns="http://www.w3.org/2000/svg">
<g clip-path="url(#clip0_1025_2191)">
<path d="M20.4739 3.52611C15.7733 -1.17457 8.22834 -1.17617 3.52611 3.52611C-1.17457 8.22674 -1.17617 15.7717 3.52611 20.4739C8.22674 25.1746 15.7717 25.1762 20.4739 20.4739C25.1746 15.7733 25.1762 8.22834 20.4739 3.52611ZM11.297 6.37611C11.297 5.98787 11.6118 5.67312 12 5.67312C12.3882 5.67312 12.703 5.98787 12.703 6.37611V10.1254C12.703 10.5136 12.3882 10.8284 12 10.8284C11.6118 10.8284 11.297 10.5136 11.297 10.1254V6.37611ZM12 17.2021C9.13153 17.2021 6.7979 14.8685 6.7979 12C6.7979 10.4991 7.44638 9.07122 8.57716 8.08254C8.86946 7.82698 9.31356 7.85674 9.56912 8.14899C9.82468 8.44125 9.79492 8.8854 9.50266 9.14095C8.67731 9.86264 8.20392 10.9047 8.20392 12C8.20392 14.0932 9.90683 15.7961 12 15.7961C14.0933 15.7961 15.7962 14.0932 15.7962 12C15.7962 10.9154 15.3305 9.88017 14.5186 9.15961C14.2282 8.90189 14.2018 8.45761 14.4594 8.16718C14.7171 7.87675 15.1614 7.85032 15.4518 8.10799C16.5642 9.09517 17.2021 10.5137 17.2021 12C17.2021 14.8685 14.8685 17.2021 12 17.2021Z" fill="#F37472"/>
</g>
<defs>
<clipPath id="clip0_1025_2191">
<rect width="24" height="24" fill="white"/>
</clipPath>
</defs>
</svg>
