<svg width="120" height="120" viewBox="0 0 120 120" fill="none" xmlns="http://www.w3.org/2000/svg">
<g clip-path="url(#clip0_914_3057)">
<path d="M56.2591 4.66297C58.3195 6.02914 61.691 6.02914 63.7483 4.66297L69.1891 1.04797C71.2483 -0.320075 74.0156 0.270316 75.3398 2.35836L78.8395 7.87766C80.1637 9.96453 83.2418 11.3349 85.6788 10.9227L92.1203 9.83117C94.5581 9.41844 96.8489 11.0809 97.2077 13.5266L98.163 19.9796C98.5254 22.4258 100.778 24.9338 103.173 25.5507L109.494 27.181C111.89 27.8002 113.304 30.2553 112.639 32.6363L110.888 38.9099C110.223 41.2906 111.263 44.4976 113.2 46.0348L118.331 50.1052C120.268 51.6425 120.562 54.4571 118.986 56.3633L114.82 61.3918C113.245 63.2961 112.893 66.6479 114.037 68.8391L117.062 74.6225C118.207 76.8148 117.334 79.5078 115.119 80.6068L109.267 83.5114C107.053 84.6111 105.369 87.5307 105.524 89.998L105.928 96.5122C106.084 98.9783 104.188 101.085 101.716 101.19L95.1932 101.466C92.7236 101.572 89.9978 103.554 89.1344 105.873L86.8652 111.986C86.0018 114.305 83.4159 115.459 81.1171 114.549L75.0398 112.147C72.7425 111.236 69.4455 111.937 67.7151 113.704L63.1509 118.366C61.4198 120.131 58.5897 120.131 56.8575 118.368L52.286 113.703C50.5544 111.938 47.2575 111.238 44.9587 112.147L38.8844 114.549C36.5859 115.46 33.9998 114.306 33.1382 111.987L30.8636 105.873C30.0014 103.556 27.2756 101.573 24.8048 101.467L18.284 101.191C15.8125 101.085 13.9183 98.9785 14.0725 96.5127L14.4806 89.9984C14.6341 87.5319 12.9482 84.6116 10.7341 83.5119L4.8841 80.6073C2.67019 79.508 1.7948 76.8158 2.94019 74.623L5.9655 68.8395C7.11019 66.6484 6.75816 63.2968 5.18011 61.3941L1.0141 56.3591C-0.562778 54.4559 -0.267465 51.6413 1.66871 50.1041L6.80105 46.0337C8.73722 44.4964 9.77832 41.2913 9.1141 38.9094L7.3591 32.6333C6.69441 30.2525 8.1091 27.7991 10.5025 27.1836L16.8283 25.5498C19.2218 24.9336 21.4771 22.4256 21.8383 19.9794L22.7929 13.5263C23.1548 11.0806 25.4444 9.41821 27.8814 9.83094L34.3237 10.9224C36.7614 11.3347 39.839 9.9643 41.1614 7.87743L44.6594 2.35813C45.9818 0.270082 48.7509 -0.320309 50.8118 1.04774L56.2591 4.66297Z" fill="#A2F6BE"/>
<path d="M98.825 60.0652C98.825 81.5075 81.4412 98.8894 60.0008 98.8894C38.5616 98.8894 21.1777 81.5075 21.1777 60.0652C21.1777 38.6295 38.5609 21.2471 60.0008 21.2471C81.4412 21.2471 98.825 38.6295 98.825 60.0652Z" fill="#12BA4A"/>
<path d="M53.5263 78.2018L37.9863 62.6611L43.1637 57.4814L53.5263 67.8422L76.8352 44.5303L82.0125 49.7118L53.5263 78.2018Z" fill="white"/>
</g>
<defs>
<clipPath id="clip0_914_3057">
<rect width="120" height="120" fill="white"/>
</clipPath>
</defs>
</svg>
