<svg width="171" height="135" viewBox="0 0 171 135" fill="none" xmlns="http://www.w3.org/2000/svg">
<path d="M51.8406 108.822H121.712C123.633 108.827 125.484 108.101 126.895 106.791C132.781 101.308 137.49 94.6723 140.732 87.2911C143.974 79.9098 145.681 71.9393 145.747 63.8699C146.048 31.0581 119.536 4.06003 86.9194 3.98259C54.2845 3.90511 27.8047 30.4967 27.8047 63.3103C27.7954 71.4774 29.467 79.5579 32.7142 87.0431C35.9614 94.5283 40.714 101.256 46.6726 106.803C48.0806 108.107 49.9264 108.829 51.8406 108.822Z" fill="#F8F8F8"/>
<path d="M73.6175 89.4296C72.8694 89.3819 72.1327 89.6308 71.5669 90.1224C70.296 89.5361 68.9639 89.5223 67.9723 90.2235C66.9807 90.9246 66.5498 92.1851 66.6789 93.5788C66.0268 93.9484 65.5466 94.56 65.3422 95.2812C64.8627 97.1248 66.5241 99.1526 69.0532 99.8105C70.8765 100.285 72.6487 99.9144 73.6779 98.9817C73.9156 98.8606 74.1345 98.7058 74.3279 98.5221C75.5503 97.8627 76.4902 96.3152 76.6508 94.4382C76.8736 91.8344 75.5155 89.592 73.6175 89.4296Z" fill="#B3B3B3"/>
<path d="M130.464 10.7793C129.537 10.7793 128.619 10.9619 127.763 11.3166C126.906 11.6713 126.128 12.1913 125.473 12.8467C124.817 13.5022 124.297 14.2803 123.943 15.1367C123.588 15.9931 123.405 16.9109 123.405 17.8379C123.405 17.8426 123.406 17.8472 123.406 17.8519L118.117 16.7999V24.8964H130.464C131.391 24.897 132.31 24.7149 133.167 24.3604C134.023 24.0059 134.802 23.4861 135.458 22.8306C136.114 22.1751 136.634 21.3968 136.989 20.5401C137.344 19.6834 137.527 18.7652 137.527 17.8379C137.527 16.9106 137.344 15.9923 136.989 15.1357C136.634 14.279 136.114 13.5007 135.458 12.8452C134.802 12.1896 134.023 11.6698 133.167 11.3153C132.31 10.9609 131.391 10.7787 130.464 10.7793V10.7793Z" fill="white" stroke="#E6E6E6" stroke-width="1.63812" stroke-miterlimit="10"/>
<mask id="path-4-inside-1_1065_3011" fill="white">
<path d="M125.212 22.541C126.742 21.3981 127.974 19.9026 128.802 18.1816C129.63 16.4606 130.03 14.5651 129.969 12.6561C129.907 10.7472 129.386 8.8813 128.448 7.21721C127.511 5.55312 126.186 4.14002 124.585 3.09808C122.984 2.05614 121.156 1.41618 119.255 1.23263C117.353 1.04908 115.436 1.32737 113.666 2.04382C111.895 2.76028 110.324 3.89371 109.086 5.34773C107.847 6.80175 106.978 8.53335 106.553 10.3953C105.551 10.2006 104.52 10.2174 103.526 10.4447C102.531 10.672 101.595 11.1047 100.778 11.715C99.9601 12.3254 99.2793 13.0999 98.7789 13.9889C98.2784 14.8779 97.9694 15.8617 97.8716 16.8772C97.7738 17.8927 97.8894 18.9174 98.211 19.8855C98.5326 20.8537 99.053 21.7439 99.739 22.4991C100.425 23.2542 101.261 23.8576 102.194 24.2705C103.127 24.6834 104.136 24.8967 105.156 24.8967H118.116"/>
</mask>
<path d="M125.212 22.541C126.742 21.3981 127.974 19.9026 128.802 18.1816C129.63 16.4606 130.03 14.5651 129.969 12.6561C129.907 10.7472 129.386 8.8813 128.448 7.21721C127.511 5.55312 126.186 4.14002 124.585 3.09808C122.984 2.05614 121.156 1.41618 119.255 1.23263C117.353 1.04908 115.436 1.32737 113.666 2.04382C111.895 2.76028 110.324 3.89371 109.086 5.34773C107.847 6.80175 106.978 8.53335 106.553 10.3953C105.551 10.2006 104.52 10.2174 103.526 10.4447C102.531 10.672 101.595 11.1047 100.778 11.715C99.9601 12.3254 99.2793 13.0999 98.7789 13.9889C98.2784 14.8779 97.9694 15.8617 97.8716 16.8772C97.7738 17.8927 97.8894 18.9174 98.211 19.8855C98.5326 20.8537 99.053 21.7439 99.739 22.4991C100.425 23.2542 101.261 23.8576 102.194 24.2705C103.127 24.6834 104.136 24.8967 105.156 24.8967H118.116" fill="white"/>
<path d="M106.553 10.3953L106.5 10.6633L106.76 10.7137L106.819 10.4561L106.553 10.3953ZM105.156 24.8967V24.6237H105.156L105.156 24.8967ZM125.375 22.7597C126.94 21.5906 128.2 20.0606 129.048 18.3L128.556 18.0632C127.747 19.7446 126.543 21.2057 125.048 22.3222L125.375 22.7597ZM129.048 18.3C129.895 16.5394 130.305 14.6002 130.242 12.6473L129.696 12.6649C129.756 14.5299 129.365 16.3818 128.556 18.0632L129.048 18.3ZM130.242 12.6473C130.179 10.6944 129.645 8.78562 128.686 7.08322L128.211 7.35121C129.126 8.97699 129.636 10.7999 129.696 12.6649L130.242 12.6473ZM128.686 7.08322C127.727 5.38082 126.371 3.93519 124.734 2.86926L124.436 3.32689C126 4.34485 127.295 5.72542 128.211 7.35121L128.686 7.08322ZM124.734 2.86926C123.096 1.80334 121.226 1.14865 119.281 0.960877L119.228 1.50439C121.086 1.68372 122.872 2.30894 124.436 3.32689L124.734 2.86926ZM119.281 0.960877C117.336 0.773101 115.374 1.05779 113.563 1.79074L113.768 2.29691C115.498 1.59695 117.371 1.32507 119.228 1.50439L119.281 0.960877ZM113.563 1.79074C111.752 2.52369 110.145 3.68321 108.878 5.1707L109.293 5.52476C110.503 4.10421 112.038 2.99687 113.768 2.29691L113.563 1.79074ZM108.878 5.1707C107.611 6.65819 106.722 8.42965 106.286 10.3344L106.819 10.4561C107.234 8.63705 108.083 6.94531 109.293 5.52476L108.878 5.1707ZM106.605 10.1273C105.566 9.9253 104.496 9.94275 103.465 10.1785L103.586 10.7108C104.544 10.492 105.536 10.4758 106.5 10.6633L106.605 10.1273ZM103.465 10.1785C102.433 10.4143 101.462 10.8631 100.614 11.4963L100.941 11.9338C101.728 11.3462 102.629 10.9296 103.586 10.7108L103.465 10.1785ZM100.614 11.4963C99.7662 12.1294 99.0601 12.9328 98.541 13.855L99.0168 14.1229C99.4986 13.267 100.154 12.5214 100.941 11.9338L100.614 11.4963ZM98.541 13.855C98.0218 14.7772 97.7013 15.7977 97.5998 16.851L98.1434 16.9034C98.2375 15.9258 98.535 14.9787 99.0168 14.1229L98.541 13.855ZM97.5998 16.851C97.4984 17.9044 97.6183 18.9673 97.9519 19.9716L98.4701 19.7995C98.1605 18.8674 98.0492 17.881 98.1434 16.9034L97.5998 16.851ZM97.9519 19.9716C98.2855 20.9759 98.8253 21.8993 99.5369 22.6826L99.9411 22.3155C99.2807 21.5885 98.7797 20.7315 98.4701 19.7995L97.9519 19.9716ZM99.5369 22.6826C100.248 23.466 101.116 24.0919 102.083 24.5202L102.305 24.0209C101.406 23.6234 100.601 23.0425 99.9411 22.3155L99.5369 22.6826ZM102.083 24.5202C103.051 24.9485 104.098 25.1697 105.156 25.1697L105.156 24.6237C104.174 24.6237 103.203 24.4184 102.305 24.0209L102.083 24.5202ZM105.156 25.1697H118.116V24.6237H105.156V25.1697Z" fill="#E6E6E6" mask="url(#path-4-inside-1_1065_3011)"/>
<path d="M125.212 22.541C126.742 21.3981 127.974 19.9026 128.802 18.1816C129.63 16.4606 130.03 14.5651 129.969 12.6561C129.907 10.7472 129.386 8.8813 128.448 7.21721C127.511 5.55312 126.186 4.14002 124.585 3.09808C122.984 2.05614 121.156 1.41618 119.255 1.23263C117.353 1.04908 115.436 1.32737 113.666 2.04382C111.895 2.76028 110.324 3.89371 109.086 5.34773C107.847 6.80175 106.978 8.53335 106.553 10.3953C105.551 10.2006 104.52 10.2174 103.526 10.4447C102.531 10.672 101.595 11.1047 100.778 11.715C99.9601 12.3254 99.2793 13.0999 98.7789 13.9889C98.2784 14.8779 97.9694 15.8617 97.8716 16.8772C97.7738 17.8927 97.8894 18.9174 98.211 19.8855C98.5326 20.8537 99.053 21.7439 99.739 22.4991C100.425 23.2542 101.261 23.8576 102.194 24.2705C103.127 24.6834 104.136 24.8967 105.156 24.8967H120.681" stroke="#E6E6E6" stroke-width="1.63812" stroke-linecap="round" stroke-linejoin="round"/>
<path d="M106.258 13.0372C106.258 9.89189 107.507 6.87538 109.731 4.6513C111.955 2.42721 114.972 1.17773 118.117 1.17773C121.263 1.17773 124.279 2.42721 126.503 4.6513C128.727 6.87538 129.977 9.89189 129.977 13.0372" stroke="#E6E6E6" stroke-width="1.63812" stroke-linecap="round" stroke-linejoin="round"/>
<path d="M58.3761 52.2593C57.4491 52.2593 56.5313 52.4419 55.6749 52.7966C54.8185 53.1513 54.0404 53.6712 53.3849 54.3267C52.7295 54.9821 52.2095 55.7603 51.8548 56.6167C51.5001 57.473 51.3175 58.3909 51.3175 59.3179C51.3175 59.3226 51.3179 59.3272 51.3179 59.3319L46.0293 58.2799V66.3764H58.3761C60.2481 66.3764 62.0435 65.6327 63.3672 64.309C64.691 62.9853 65.4347 61.1899 65.4347 59.3178C65.4347 57.4458 64.691 55.6504 63.3672 54.3267C62.0435 53.0029 60.2481 52.2593 58.3761 52.2593Z" fill="white" stroke="#E6E6E6" stroke-width="1.63812" stroke-miterlimit="10"/>
<mask id="path-9-inside-2_1065_3011" fill="white">
<path d="M53.1237 64.0209C54.654 62.8781 55.8856 61.3826 56.7139 59.6616C57.5422 57.9406 57.9426 56.045 57.8811 54.1361C57.8196 52.2271 57.2979 50.3613 56.3606 48.6972C55.4232 47.0331 54.0978 45.62 52.4971 44.5781C50.8964 43.5361 49.0678 42.8962 47.1667 42.7126C45.2656 42.5291 43.3482 42.8073 41.5778 43.5238C39.8073 44.2403 38.2361 45.3737 36.9976 46.8277C35.7592 48.2817 34.8902 50.0133 34.4647 51.8752C33.4632 51.6805 32.4322 51.6974 31.4376 51.9247C30.4431 52.1519 29.5071 52.5846 28.6896 53.195C27.8722 53.8054 27.1914 54.5799 26.691 55.4689C26.1905 56.3579 25.8815 57.3417 25.7837 58.3572C25.6859 59.3727 25.8015 60.3974 26.1231 61.3655C26.4447 62.3337 26.9651 63.2239 27.6511 63.9791C28.337 64.7342 29.1732 65.3376 30.1061 65.7505C31.039 66.1634 32.0479 66.3767 33.0681 66.3767H46.0284"/>
</mask>
<path d="M53.1237 64.0209C54.654 62.8781 55.8856 61.3826 56.7139 59.6616C57.5422 57.9406 57.9426 56.045 57.8811 54.1361C57.8196 52.2271 57.2979 50.3613 56.3606 48.6972C55.4232 47.0331 54.0978 45.62 52.4971 44.5781C50.8964 43.5361 49.0678 42.8962 47.1667 42.7126C45.2656 42.5291 43.3482 42.8073 41.5778 43.5238C39.8073 44.2403 38.2361 45.3737 36.9976 46.8277C35.7592 48.2817 34.8902 50.0133 34.4647 51.8752C33.4632 51.6805 32.4322 51.6974 31.4376 51.9247C30.4431 52.1519 29.5071 52.5846 28.6896 53.195C27.8722 53.8054 27.1914 54.5799 26.691 55.4689C26.1905 56.3579 25.8815 57.3417 25.7837 58.3572C25.6859 59.3727 25.8015 60.3974 26.1231 61.3655C26.4447 62.3337 26.9651 63.2239 27.6511 63.9791C28.337 64.7342 29.1732 65.3376 30.1061 65.7505C31.039 66.1634 32.0479 66.3767 33.0681 66.3767H46.0284" fill="white"/>
<path d="M34.4647 51.8752L34.4125 52.1433L34.6719 52.1937L34.7308 51.9361L34.4647 51.8752ZM33.0681 66.3767V66.1037H33.0681L33.0681 66.3767ZM53.287 64.2397C54.8526 63.0705 56.1126 61.5406 56.9599 59.78L56.4679 59.5432C55.6587 61.2246 54.4554 62.6857 52.9603 63.8022L53.287 64.2397ZM56.9599 59.78C57.8073 58.0194 58.2169 56.0802 58.154 54.1273L57.6082 54.1449C57.6683 56.0099 57.2771 57.8618 56.4679 59.5432L56.9599 59.78ZM58.154 54.1273C58.091 52.1744 57.5574 50.2656 56.5984 48.5632L56.1227 48.8312C57.0385 50.457 57.5481 52.2799 57.6082 54.1449L58.154 54.1273ZM56.5984 48.5632C55.6395 46.8608 54.2836 45.4152 52.646 44.3492L52.3482 44.8069C53.912 45.8248 55.2069 47.2054 56.1227 48.8312L56.5984 48.5632ZM52.646 44.3492C51.0085 43.2833 49.1378 42.6286 47.1929 42.4409L47.1404 42.9844C48.9978 43.1637 50.7843 43.7889 52.3482 44.8069L52.646 44.3492ZM47.1929 42.4409C45.248 42.2531 43.2866 42.5378 41.4754 43.2707L41.6802 43.7769C43.4099 43.0769 45.2831 42.805 47.1404 42.9844L47.1929 42.4409ZM41.4754 43.2707C39.6641 44.0037 38.0567 45.1632 36.7898 46.6507L37.2055 47.0047C38.4154 45.5842 39.9505 44.4768 41.6802 43.7769L41.4754 43.2707ZM36.7898 46.6507C35.5228 48.1382 34.6339 49.9096 34.1985 51.8144L34.7308 51.9361C35.1466 50.117 35.9956 48.4253 37.2055 47.0047L36.7898 46.6507ZM34.5168 51.6072C33.478 51.4053 32.4084 51.4227 31.3768 51.6585L31.4985 52.1908C32.4559 51.972 33.4485 51.9558 34.4125 52.1433L34.5168 51.6072ZM31.3768 51.6585C30.3452 51.8943 29.3742 52.3431 28.5263 52.9762L28.853 53.4138C29.6399 52.8262 30.541 52.4096 31.4985 52.1908L31.3768 51.6585ZM28.5263 52.9762C27.6784 53.6094 26.9722 54.4128 26.4531 55.335L26.9289 55.6028C27.4107 54.747 28.0661 54.0014 28.853 53.4138L28.5263 52.9762ZM26.4531 55.335C25.934 56.2571 25.6134 57.2777 25.5119 58.331L26.0555 58.3834C26.1496 57.4058 26.4471 56.4587 26.9289 55.6028L26.4531 55.335ZM25.5119 58.331C25.4105 59.3844 25.5304 60.4473 25.864 61.4516L26.3822 61.2795C26.0726 60.3474 25.9613 59.3609 26.0555 58.3834L25.5119 58.331ZM25.864 61.4516C26.1976 62.4559 26.7375 63.3793 27.449 64.1626L27.8532 63.7955C27.1928 63.0685 26.6918 62.2115 26.3822 61.2795L25.864 61.4516ZM27.449 64.1626C28.1605 64.946 29.0279 65.5719 29.9956 66.0002L30.2166 65.5009C29.3185 65.1034 28.5135 64.5225 27.8532 63.7955L27.449 64.1626ZM29.9956 66.0002C30.9633 66.4285 32.0098 66.6497 33.0681 66.6497L33.0681 66.1037C32.086 66.1037 31.1147 65.8983 30.2166 65.5009L29.9956 66.0002ZM33.0681 66.6497H46.0284V66.1037H33.0681V66.6497Z" fill="#E6E6E6" mask="url(#path-9-inside-2_1065_3011)"/>
<path d="M53.1237 64.0209C54.654 62.8781 55.8856 61.3826 56.7139 59.6616C57.5422 57.9406 57.9426 56.045 57.8811 54.1361C57.8196 52.2271 57.2979 50.3613 56.3606 48.6972C55.4232 47.0331 54.0978 45.62 52.4971 44.5781C50.8964 43.5361 49.0678 42.8962 47.1667 42.7126C45.2656 42.5291 43.3482 42.8073 41.5778 43.5238C39.8073 44.2403 38.2361 45.3737 36.9976 46.8277C35.7592 48.2817 34.8902 50.0133 34.4647 51.8753C33.4632 51.6805 32.4322 51.6974 31.4376 51.9247C30.4431 52.1519 29.5071 52.5846 28.6896 53.195C27.8722 53.8054 27.1914 54.5799 26.691 55.4689C26.1905 56.3579 25.8815 57.3417 25.7837 58.3572C25.6859 59.3727 25.8015 60.3974 26.1231 61.3655C26.4447 62.3337 26.9651 63.2239 27.6511 63.9791C28.337 64.7342 29.1732 65.3376 30.1061 65.7505C31.039 66.1634 32.0479 66.3767 33.0681 66.3767H48.5931" stroke="#E6E6E6" stroke-width="1.63812" stroke-linecap="round" stroke-linejoin="round"/>
<path d="M34.168 54.5172C34.168 52.9598 34.4747 51.4176 35.0707 49.9788C35.6667 48.5399 36.5403 47.2325 37.6415 46.1313C38.7428 45.03 40.0502 44.1565 41.489 43.5605C42.9279 42.9645 44.47 42.6577 46.0275 42.6577C47.5849 42.6577 49.127 42.9645 50.5659 43.5605C52.0047 44.1565 53.3121 45.03 54.4134 46.1313C55.5146 47.2325 56.3882 48.5399 56.9842 49.9788C57.5802 51.4176 57.8869 52.9598 57.8869 54.5172" stroke="#E6E6E6" stroke-width="1.63812" stroke-linecap="round" stroke-linejoin="round"/>
<path d="M107.722 75.0617H95.5633C94.0065 75.0617 92.5135 74.4433 91.4126 73.3424C90.3118 72.2416 89.6934 70.7486 89.6934 69.1918C89.6934 67.635 90.3118 66.1419 91.4126 65.0411C92.5135 63.9403 94.0065 63.3218 95.5633 63.3218H107.722C109.61 63.3197 111.42 62.5687 112.755 61.2336C114.09 59.8985 114.841 58.0884 114.844 56.2002V46.828C114.844 45.2711 115.462 43.7781 116.563 42.6773C117.664 41.5764 119.157 40.958 120.713 40.958C122.27 40.958 123.763 41.5764 124.864 42.6773C125.965 43.7781 126.583 45.2711 126.583 46.828V56.2002C126.578 61.2009 124.589 65.9951 121.053 69.5311C117.517 73.0671 112.722 75.0561 107.722 75.0617Z" fill="white" stroke="#E6E6E6" stroke-width="1.63812" stroke-linecap="round" stroke-linejoin="round"/>
<path d="M88.1305 4.71143H88.1305C91.8362 4.71143 95.3901 6.1835 98.0105 8.80382C100.631 11.4241 102.103 14.978 102.103 18.6837V104.753H74.1582V18.6837C74.1582 14.978 75.6303 11.4241 78.2506 8.80382C80.8709 6.1835 84.4248 4.71143 88.1305 4.71143Z" fill="white" stroke="#E6E6E6" stroke-width="1.63812" stroke-linecap="round" stroke-linejoin="round"/>
<path d="M80.8385 59.5725H68.68C63.6793 59.5668 58.885 57.5778 55.349 54.0418C51.813 50.5058 49.824 45.7115 49.8184 40.7108V31.3387C49.8184 29.7819 50.4368 28.2888 51.5376 27.188C52.6385 26.0872 54.1315 25.4688 55.6883 25.4688C57.2451 25.4688 58.7382 26.0872 59.839 27.188C60.9398 28.2888 61.5582 29.7819 61.5582 31.3387V40.7109C61.5604 42.599 62.3114 44.4092 63.6465 45.7443C64.9816 47.0795 66.7918 47.8305 68.68 47.8326H80.8385C82.3953 47.8326 83.8883 48.451 84.9891 49.5519C86.09 50.6527 86.7084 52.1457 86.7084 53.7025C86.7084 55.2593 86.09 56.7524 84.9891 57.8532C83.8883 58.954 82.3953 59.5725 80.8385 59.5725L80.8385 59.5725Z" fill="white" stroke="#E6E6E6" stroke-width="1.63812" stroke-linecap="round" stroke-linejoin="round"/>
<path d="M77.3572 12.9102L77.3572 12.9102C76.859 13.3306 76.7959 14.0753 77.2162 14.5735L78.8709 16.5347C79.2913 17.0329 80.036 17.096 80.5342 16.6757L80.5342 16.6757C81.0324 16.2553 81.0956 15.5106 80.6752 15.0124L79.0205 13.0512C78.6001 12.553 77.8555 12.4899 77.3572 12.9102Z" fill="#E6E6E6"/>
<path d="M120.194 48.3559C119.774 47.8577 119.029 47.7945 118.531 48.2149C118.033 48.6353 117.97 49.38 118.39 49.8782L120.045 51.8394C120.465 52.3376 121.21 52.4007 121.708 51.9804C122.206 51.56 122.269 50.8153 121.849 50.3171L120.194 48.3559Z" fill="#E6E6E6"/>
<path d="M96.0935 69.2652L96.0935 69.2652C95.5953 69.6856 95.5322 70.4303 95.9526 70.9285L97.6073 72.8897C98.0276 73.3879 98.7723 73.451 99.2705 73.0307L99.2705 73.0307C99.7688 72.6103 99.8319 71.8656 99.4115 71.3674L97.7568 69.4062C97.3365 68.908 96.5918 68.8448 96.0935 69.2652Z" fill="#E6E6E6"/>
<path d="M99.417 47.146C100.039 46.9498 100.384 46.2868 100.187 45.6651C99.9911 45.0435 99.3281 44.6986 98.7064 44.8949L96.2595 45.6673C95.6378 45.8635 95.293 46.5265 95.4892 47.1482C95.6854 47.7698 96.3484 48.1147 96.9701 47.9185L99.417 47.146Z" fill="#E6E6E6"/>
<path d="M60.6014 41.7794L60.6014 41.7794C60.4052 41.1578 59.7421 40.8129 59.1205 41.0091L56.6735 41.7815C56.0519 41.9777 55.707 42.6408 55.9033 43.2624L55.9033 43.2624C56.0995 43.8841 56.7625 44.2289 57.3842 44.0327L59.8311 43.2603C60.4528 43.0641 60.7976 42.4011 60.6014 41.7794Z" fill="#E6E6E6"/>
<path d="M87.7643 85.3668L87.7643 85.3668C88.3777 85.1462 88.6961 84.47 88.4755 83.8566L87.6069 81.4421C87.3863 80.8287 86.7101 80.5103 86.0967 80.731L86.0967 80.731C85.4833 80.9516 85.1649 81.6278 85.3856 82.2412L86.2541 84.6557C86.4748 85.2691 87.1509 85.5875 87.7643 85.3668Z" fill="#E6E6E6"/>
<path d="M83.0966 42.0445C83.7469 41.9985 84.2367 41.4341 84.1907 40.7838C84.1447 40.1336 83.5803 39.6437 82.93 39.6898L80.3705 39.8708C79.7202 39.9169 79.2304 40.4813 79.2764 41.1316C79.3224 41.7818 79.8868 42.2717 80.5371 42.2256L83.0966 42.0445Z" fill="#E6E6E6"/>
<path d="M121.483 63.9928C122.134 63.9468 122.623 63.3823 122.577 62.7321C122.531 62.0818 121.967 61.592 121.317 61.638L118.757 61.8191C118.107 61.8651 117.617 62.4295 117.663 63.0798C117.709 63.7301 118.274 64.2199 118.924 64.1739L121.483 63.9928Z" fill="#E6E6E6"/>
<path d="M55.5568 35.6459L55.5568 35.6459C56.0551 35.2255 56.1182 34.4809 55.6978 33.9826L54.0431 32.0215C53.6228 31.5232 52.8781 31.4601 52.3799 31.8805L52.3798 31.8805C51.8816 32.3009 51.8185 33.0455 52.2389 33.5438L53.8936 35.5049C54.3139 36.0032 55.0586 36.0663 55.5568 35.6459Z" fill="#E6E6E6"/>
<path d="M94.5465 60.7502L94.5465 60.7502C94.6999 60.1166 94.3106 59.4787 93.677 59.3253L91.1831 58.7215C90.5495 58.5682 89.9115 58.9574 89.7582 59.591L89.7582 59.591C89.6048 60.2246 89.9941 60.8626 90.6276 61.0159L93.1216 61.6197C93.7551 61.7731 94.3931 61.3838 94.5465 60.7502Z" fill="#E6E6E6"/>
<path d="M73.0615 57.8258C73.7117 57.7798 74.2016 57.2154 74.1556 56.5651C74.1096 55.9148 73.5451 55.425 72.8949 55.471L70.3353 55.6521C69.685 55.6981 69.1952 56.2625 69.2412 56.9128C69.2872 57.5631 69.8517 58.0529 70.5019 58.0069L73.0615 57.8258Z" fill="#E6E6E6"/>
<path d="M89.2939 27.1024C88.9164 27.6339 89.0413 28.3708 89.5728 28.7482C90.1043 29.1257 90.8411 29.0008 91.2186 28.4693L92.7043 26.3772C93.0818 25.8457 92.9569 25.1089 92.4254 24.7314C91.8939 24.354 91.157 24.4788 90.7796 25.0103L89.2939 27.1024Z" fill="#E6E6E6"/>
<path d="M59.1822 54.2668L59.1822 54.2668C59.7137 54.6442 60.4505 54.5193 60.828 53.9878L62.3137 51.8958C62.6911 51.3643 62.5663 50.6274 62.0348 50.25L62.0348 50.25C61.5033 49.8725 60.7664 49.9974 60.389 50.5289L58.9032 52.621C58.5258 53.1525 58.6507 53.8893 59.1822 54.2668Z" fill="#E6E6E6"/>
<path d="M106.433 71.0692C106.055 71.6007 106.18 72.3376 106.711 72.715C107.243 73.0925 107.98 72.9676 108.357 72.4361L109.843 70.344C110.22 69.8125 110.096 69.0757 109.564 68.6982C109.033 68.3208 108.296 68.4456 107.918 68.9771L106.433 71.0692Z" fill="#E6E6E6"/>
<path d="M77.5201 69.776L77.5201 69.776C78.0516 70.1535 78.7884 70.0286 79.1659 69.4971L80.6516 67.405C81.029 66.8735 80.9041 66.1367 80.3727 65.7593L80.3727 65.7593C79.8412 65.3818 79.1043 65.5067 78.7269 66.0382L77.2411 68.1303C76.8637 68.6617 76.9886 69.3986 77.5201 69.776Z" fill="#E6E6E6"/>
<path d="M109.492 85.006C109.122 84.5772 108.597 84.3115 108.032 84.2666C107.675 83.2705 106.977 82.5444 106.074 82.3808C105.17 82.2172 104.262 82.6524 103.579 83.4602C103.034 83.3042 102.449 83.369 101.952 83.6407C100.703 84.3585 100.489 86.329 101.474 88.0419C102.184 89.2768 103.322 90.0367 104.371 90.098C104.562 90.1621 104.761 90.1982 104.963 90.2053C105.966 90.5155 107.299 90.2029 108.397 89.2954C109.919 88.0365 110.41 86.1161 109.492 85.006Z" fill="#B3B3B3"/>
<path d="M140.34 108.567C140.687 108.568 141.029 108.472 141.325 108.291C141.622 108.109 141.862 107.849 142.02 107.539C142.178 107.229 142.246 106.882 142.218 106.535C142.19 106.189 142.067 105.857 141.861 105.576C133.872 94.8463 120.455 87.8052 105.248 87.8052C90.0409 87.8052 76.6236 94.8463 68.6344 105.576C68.4291 105.857 68.3056 106.189 68.2776 106.535C68.2496 106.882 68.3183 107.229 68.4759 107.539C68.6336 107.849 68.8741 108.109 69.1707 108.291C69.4673 108.472 69.8084 108.568 70.1561 108.567H140.34Z" fill="white" stroke="#E6E6E6" stroke-width="1.63812" stroke-linecap="round" stroke-linejoin="round"/>
<path d="M89.7016 101.814C89.4201 101.028 88.8693 100.455 88.1564 100.326C87.4435 100.197 86.7268 100.541 86.1875 101.178C85.7577 101.055 85.2967 101.106 84.9043 101.32C83.9191 101.887 83.7501 103.441 84.5271 104.793C85.0871 105.767 85.9854 106.367 86.8126 106.415C86.9635 106.466 87.1208 106.494 87.2799 106.5C88.0714 106.745 89.123 106.498 89.9891 105.782C91.1906 104.789 91.5776 103.273 90.8535 102.398C90.5612 102.059 90.1474 101.85 89.7016 101.814Z" fill="#B3B3B3"/>
<path d="M89.8935 108.567C83.933 101.051 72.6141 95.9771 59.6292 95.9771C48.2421 95.9771 38.1362 99.8795 31.8017 105.908C31.5801 106.122 31.4275 106.398 31.3636 106.7C31.2998 107.001 31.3275 107.315 31.4433 107.601C31.5591 107.887 31.7577 108.131 32.0135 108.303C32.2694 108.475 32.5708 108.567 32.8791 108.567L89.8935 108.567Z" fill="white" stroke="#E6E6E6" stroke-width="1.63812" stroke-linecap="round" stroke-linejoin="round"/>
<path d="M10.0866 120.64V130.822H8.67472L3.49929 123.355H3.40483V130.822H1.86861V120.64H3.29048L8.47088 128.118H8.56534V120.64H10.0866ZM15.2849 130.976C14.569 130.976 13.9442 130.812 13.4106 130.484C12.877 130.156 12.4627 129.697 12.1677 129.107C11.8727 128.517 11.7252 127.828 11.7252 127.039C11.7252 126.247 11.8727 125.554 12.1677 124.961C12.4627 124.367 12.877 123.907 13.4106 123.579C13.9442 123.251 14.569 123.086 15.2849 123.086C16.0008 123.086 16.6256 123.251 17.1592 123.579C17.6928 123.907 18.1071 124.367 18.4021 124.961C18.6971 125.554 18.8446 126.247 18.8446 127.039C18.8446 127.828 18.6971 128.517 18.4021 129.107C18.1071 129.697 17.6928 130.156 17.1592 130.484C16.6256 130.812 16.0008 130.976 15.2849 130.976ZM15.2899 129.729C15.7539 129.729 16.1383 129.606 16.4433 129.361C16.7482 129.115 16.9736 128.789 17.1194 128.381C17.2686 127.974 17.3431 127.524 17.3431 127.034C17.3431 126.547 17.2686 126.099 17.1194 125.692C16.9736 125.281 16.7482 124.951 16.4433 124.702C16.1383 124.454 15.7539 124.329 15.2899 124.329C14.8225 124.329 14.4348 124.454 14.1265 124.702C13.8216 124.951 13.5946 125.281 13.4454 125.692C13.2996 126.099 13.2267 126.547 13.2267 127.034C13.2267 127.524 13.2996 127.974 13.4454 128.381C13.5946 128.789 13.8216 129.115 14.1265 129.361C14.4348 129.606 14.8225 129.729 15.2899 129.729ZM27.4935 123.186V124.379H23.3224V123.186H27.4935ZM24.441 121.356H25.9275V128.58C25.9275 128.868 25.9706 129.086 26.0567 129.231C26.1429 129.374 26.2539 129.472 26.3898 129.525C26.529 129.574 26.6798 129.599 26.8423 129.599C26.9616 129.599 27.066 129.591 27.1555 129.574C27.245 129.558 27.3146 129.545 27.3643 129.535L27.6327 130.763C27.5466 130.796 27.4239 130.829 27.2648 130.862C27.1057 130.898 26.9069 130.918 26.6682 130.922C26.2771 130.928 25.9126 130.859 25.5745 130.713C25.2364 130.567 24.963 130.342 24.7542 130.037C24.5454 129.732 24.441 129.349 24.441 128.888V121.356ZM28.9979 130.822V123.186H30.4347V124.399H30.5142C30.6534 123.988 30.8987 123.665 31.25 123.43C31.6047 123.191 32.0057 123.072 32.4531 123.072C32.5459 123.072 32.6553 123.075 32.7813 123.081C32.9105 123.088 33.0116 123.096 33.0845 123.106V124.528C33.0249 124.512 32.9188 124.493 32.7664 124.474C32.6139 124.45 32.4614 124.439 32.309 124.439C31.9576 124.439 31.6444 124.513 31.3693 124.662C31.0976 124.808 30.8821 125.012 30.723 125.274C30.5639 125.532 30.4844 125.827 30.4844 126.159V130.822H28.9979ZM36.3849 130.991C35.901 130.991 35.4635 130.902 35.0724 130.723C34.6813 130.541 34.3714 130.277 34.1427 129.932C33.9173 129.588 33.8046 129.165 33.8046 128.665C33.8046 128.234 33.8875 127.879 34.0532 127.601C34.2189 127.322 34.4426 127.102 34.7244 126.939C35.0061 126.777 35.321 126.654 35.669 126.572C36.017 126.489 36.3716 126.426 36.7329 126.383C37.1903 126.33 37.5615 126.287 37.8465 126.253C38.1316 126.217 38.3387 126.159 38.468 126.079C38.5972 126 38.6619 125.871 38.6619 125.692V125.657C38.6619 125.223 38.5392 124.886 38.294 124.648C38.052 124.409 37.6907 124.29 37.2102 124.29C36.7097 124.29 36.3153 124.401 36.0269 124.623C35.7419 124.841 35.5447 125.085 35.4353 125.354L34.0383 125.035C34.204 124.571 34.446 124.197 34.7641 123.912C35.0856 123.623 35.4552 123.415 35.8728 123.285C36.2904 123.153 36.7296 123.086 37.1903 123.086C37.4952 123.086 37.8183 123.123 38.1597 123.196C38.5044 123.265 38.8259 123.395 39.1242 123.584C39.4258 123.773 39.6728 124.043 39.865 124.394C40.0572 124.742 40.1533 125.194 40.1533 125.751V130.822H38.7016V129.778H38.642C38.5459 129.97 38.4017 130.159 38.2094 130.345C38.0172 130.531 37.7703 130.685 37.4687 130.807C37.1671 130.93 36.8058 130.991 36.3849 130.991ZM36.708 129.798C37.119 129.798 37.4703 129.717 37.762 129.555C38.057 129.392 38.2807 129.18 38.4332 128.918C38.5889 128.653 38.6668 128.37 38.6668 128.068V127.084C38.6138 127.137 38.5111 127.186 38.3586 127.233C38.2094 127.276 38.0388 127.314 37.8465 127.347C37.6543 127.377 37.467 127.405 37.2847 127.432C37.1024 127.455 36.95 127.475 36.8273 127.491C36.539 127.528 36.2755 127.589 36.0369 127.675C35.8015 127.761 35.6126 127.886 35.4701 128.048C35.3309 128.207 35.2613 128.419 35.2613 128.684C35.2613 129.052 35.3972 129.331 35.669 129.52C35.9407 129.705 36.2871 129.798 36.708 129.798ZM43.4798 126.288V130.822H41.9933V123.186H43.4201V124.429H43.5146C43.6902 124.024 43.9653 123.7 44.3399 123.454C44.7177 123.209 45.1933 123.086 45.7667 123.086C46.2871 123.086 46.7428 123.196 47.1339 123.415C47.525 123.63 47.8283 123.952 48.0437 124.379C48.2591 124.807 48.3669 125.335 48.3669 125.965V130.822H46.8803V126.144C46.8803 125.59 46.7362 125.158 46.4478 124.846C46.1595 124.532 45.7634 124.374 45.2596 124.374C44.9149 124.374 44.6083 124.449 44.3399 124.598C44.0747 124.747 43.8642 124.966 43.7085 125.254C43.556 125.539 43.4798 125.884 43.4798 126.288ZM55.9428 125.05L54.5955 125.289C54.5391 125.117 54.4496 124.952 54.327 124.797C54.2077 124.641 54.0453 124.513 53.8398 124.414C53.6343 124.314 53.3774 124.265 53.0692 124.265C52.6483 124.265 52.2969 124.359 52.0152 124.548C51.7335 124.734 51.5926 124.974 51.5926 125.269C51.5926 125.524 51.6871 125.73 51.876 125.885C52.0649 126.041 52.3698 126.169 52.7908 126.268L54.0038 126.547C54.7065 126.709 55.2302 126.959 55.5749 127.297C55.9196 127.635 56.0919 128.075 56.0919 128.615C56.0919 129.072 55.9593 129.48 55.6942 129.838C55.4323 130.193 55.0661 130.471 54.5955 130.673C54.1281 130.875 53.5862 130.976 52.9698 130.976C52.1146 130.976 51.417 130.794 50.8767 130.43C50.3365 130.062 50.005 129.54 49.8824 128.863L51.3192 128.645C51.4087 129.019 51.5926 129.303 51.871 129.495C52.1494 129.684 52.5124 129.778 52.9598 129.778C53.447 129.778 53.8365 129.677 54.1281 129.475C54.4198 129.269 54.5656 129.019 54.5656 128.724C54.5656 128.486 54.4761 128.285 54.2972 128.123C54.1215 127.96 53.8514 127.838 53.4868 127.755L52.1942 127.471C51.4816 127.309 50.9546 127.05 50.6132 126.696C50.2751 126.341 50.1061 125.892 50.1061 125.349C50.1061 124.898 50.2321 124.503 50.484 124.165C50.7359 123.827 51.0839 123.564 51.528 123.375C51.9721 123.183 52.4809 123.086 53.0543 123.086C53.8796 123.086 54.5292 123.265 55.0031 123.623C55.4771 123.978 55.7903 124.454 55.9428 125.05ZM59.8086 130.991C59.3247 130.991 58.8872 130.902 58.4961 130.723C58.105 130.541 57.7951 130.277 57.5664 129.932C57.3411 129.588 57.2284 129.165 57.2284 128.665C57.2284 128.234 57.3112 127.879 57.4769 127.601C57.6427 127.322 57.8664 127.102 58.1481 126.939C58.4298 126.777 58.7447 126.654 59.0927 126.572C59.4407 126.489 59.7954 126.426 60.1566 126.383C60.614 126.33 60.9852 126.287 61.2703 126.253C61.5553 126.217 61.7625 126.159 61.8917 126.079C62.021 126 62.0856 125.871 62.0856 125.692V125.657C62.0856 125.223 61.963 124.886 61.7177 124.648C61.4758 124.409 61.1145 124.29 60.6339 124.29C60.1334 124.29 59.739 124.401 59.4507 124.623C59.1656 124.841 58.9684 125.085 58.859 125.354L57.462 125.035C57.6278 124.571 57.8697 124.197 58.1879 123.912C58.5094 123.623 58.8789 123.415 59.2965 123.285C59.7142 123.153 60.1533 123.086 60.614 123.086C60.9189 123.086 61.2421 123.123 61.5835 123.196C61.9282 123.265 62.2497 123.395 62.548 123.584C62.8496 123.773 63.0965 124.043 63.2887 124.394C63.481 124.742 63.5771 125.194 63.5771 125.751V130.822H62.1254V129.778H62.0657C61.9696 129.97 61.8254 130.159 61.6332 130.345C61.441 130.531 61.194 130.685 60.8924 130.807C60.5908 130.93 60.2296 130.991 59.8086 130.991ZM60.1318 129.798C60.5428 129.798 60.8941 129.717 61.1858 129.555C61.4807 129.392 61.7045 129.18 61.8569 128.918C62.0127 128.653 62.0906 128.37 62.0906 128.068V127.084C62.0376 127.137 61.9348 127.186 61.7823 127.233C61.6332 127.276 61.4625 127.314 61.2703 127.347C61.078 127.377 60.8908 127.405 60.7085 127.432C60.5262 127.455 60.3737 127.475 60.2511 127.491C59.9627 127.528 59.6992 127.589 59.4606 127.675C59.2253 127.761 59.0364 127.886 58.8939 128.048C58.7546 128.207 58.685 128.419 58.685 128.684C58.685 129.052 58.8209 129.331 59.0927 129.52C59.3645 129.705 59.7108 129.798 60.1318 129.798ZM68.6336 130.976C67.8945 130.976 67.2582 130.809 66.7246 130.474C66.1943 130.136 65.7866 129.671 65.5015 129.077C65.2165 128.484 65.074 127.805 65.074 127.039C65.074 126.263 65.2198 125.579 65.5115 124.986C65.8032 124.389 66.2141 123.923 66.7444 123.589C67.2747 123.254 67.8995 123.086 68.6187 123.086C69.1987 123.086 69.7158 123.194 70.1699 123.41C70.6239 123.622 70.9902 123.92 71.2686 124.305C71.5503 124.689 71.7177 125.138 71.7707 125.652H70.324C70.2444 125.294 70.0621 124.986 69.7771 124.727C69.4954 124.469 69.1175 124.339 68.6436 124.339C68.2293 124.339 67.8664 124.449 67.5548 124.667C67.2466 124.883 67.0063 125.191 66.8339 125.592C66.6616 125.99 66.5754 126.461 66.5754 127.004C66.5754 127.561 66.6599 128.041 66.829 128.446C66.998 128.85 67.2366 129.163 67.5449 129.385C67.8564 129.608 68.2227 129.719 68.6436 129.719C68.9253 129.719 69.1805 129.667 69.4092 129.564C69.6412 129.458 69.8351 129.308 69.9909 129.112C70.15 128.916 70.261 128.681 70.324 128.406H71.7707C71.7177 128.9 71.5569 129.341 71.2885 129.729C71.02 130.116 70.6604 130.421 70.2096 130.643C69.7622 130.865 69.2369 130.976 68.6336 130.976ZM76.785 123.186V124.379H72.6138V123.186H76.785ZM73.7325 121.356H75.219V128.58C75.219 128.868 75.262 129.086 75.3482 129.231C75.4344 129.374 75.5454 129.472 75.6813 129.525C75.8205 129.574 75.9713 129.599 76.1337 129.599C76.2531 129.599 76.3575 129.591 76.4469 129.574C76.5364 129.558 76.606 129.545 76.6558 129.535L76.9242 130.763C76.838 130.796 76.7154 130.829 76.5563 130.862C76.3972 130.898 76.1984 130.918 75.9597 130.922C75.5686 130.928 75.204 130.859 74.866 130.713C74.5279 130.567 74.2545 130.342 74.0457 130.037C73.8369 129.732 73.7325 129.349 73.7325 128.888V121.356ZM78.2894 130.822V123.186H79.7759V130.822H78.2894ZM79.0401 122.008C78.7816 122.008 78.5595 121.921 78.3739 121.749C78.1916 121.573 78.1004 121.365 78.1004 121.123C78.1004 120.877 78.1916 120.669 78.3739 120.496C78.5595 120.321 78.7816 120.233 79.0401 120.233C79.2986 120.233 79.519 120.321 79.7013 120.496C79.8869 120.669 79.9797 120.877 79.9797 121.123C79.9797 121.365 79.8869 121.573 79.7013 121.749C79.519 121.921 79.2986 122.008 79.0401 122.008ZM84.8523 130.976C84.1364 130.976 83.5116 130.812 82.978 130.484C82.4444 130.156 82.0301 129.697 81.7351 129.107C81.4401 128.517 81.2927 127.828 81.2927 127.039C81.2927 126.247 81.4401 125.554 81.7351 124.961C82.0301 124.367 82.4444 123.907 82.978 123.579C83.5116 123.251 84.1364 123.086 84.8523 123.086C85.5682 123.086 86.193 123.251 86.7266 123.579C87.2602 123.907 87.6745 124.367 87.9695 124.961C88.2645 125.554 88.412 126.247 88.412 127.039C88.412 127.828 88.2645 128.517 87.9695 129.107C87.6745 129.697 87.2602 130.156 86.7266 130.484C86.193 130.812 85.5682 130.976 84.8523 130.976ZM84.8573 129.729C85.3213 129.729 85.7058 129.606 86.0107 129.361C86.3156 129.115 86.541 128.789 86.6868 128.381C86.836 127.974 86.9106 127.524 86.9106 127.034C86.9106 126.547 86.836 126.099 86.6868 125.692C86.541 125.281 86.3156 124.951 86.0107 124.702C85.7058 124.454 85.3213 124.329 84.8573 124.329C84.39 124.329 84.0022 124.454 83.6939 124.702C83.389 124.951 83.162 125.281 83.0128 125.692C82.867 126.099 82.7941 126.547 82.7941 127.034C82.7941 127.524 82.867 127.974 83.0128 128.381C83.162 128.789 83.389 129.115 83.6939 129.361C84.0022 129.606 84.39 129.729 84.8573 129.729ZM91.4177 126.288V130.822H89.9312V123.186H91.3581V124.429H91.4526C91.6282 124.024 91.9033 123.7 92.2778 123.454C92.6557 123.209 93.1313 123.086 93.7047 123.086C94.225 123.086 94.6808 123.196 95.0719 123.415C95.463 123.63 95.7662 123.952 95.9817 124.379C96.1971 124.807 96.3048 125.335 96.3048 125.965V130.822H94.8183V126.144C94.8183 125.59 94.6741 125.158 94.3858 124.846C94.0974 124.532 93.7014 124.374 93.1976 124.374C92.8529 124.374 92.5463 124.449 92.2778 124.598C92.0127 124.747 91.8022 124.966 91.6464 125.254C91.494 125.539 91.4177 125.884 91.4177 126.288ZM103.21 126.288V130.822H101.724V120.64H103.19V124.429H103.285C103.464 124.018 103.737 123.691 104.105 123.449C104.473 123.207 104.953 123.086 105.547 123.086C106.07 123.086 106.528 123.194 106.919 123.41C107.313 123.625 107.618 123.947 107.834 124.374C108.052 124.798 108.162 125.329 108.162 125.965V130.822H106.675V126.144C106.675 125.584 106.531 125.15 106.243 124.841C105.954 124.53 105.553 124.374 105.04 124.374C104.688 124.374 104.373 124.449 104.095 124.598C103.82 124.747 103.603 124.966 103.444 125.254C103.288 125.539 103.21 125.884 103.21 126.288ZM110.005 130.822V123.186H111.492V130.822H110.005ZM110.756 122.008C110.498 122.008 110.276 121.921 110.09 121.749C109.908 121.573 109.816 121.365 109.816 121.123C109.816 120.877 109.908 120.669 110.09 120.496C110.276 120.321 110.498 120.233 110.756 120.233C111.015 120.233 111.235 120.321 111.417 120.496C111.603 120.669 111.696 120.877 111.696 121.123C111.696 121.365 111.603 121.573 111.417 121.749C111.235 121.921 111.015 122.008 110.756 122.008ZM119.074 125.05L117.727 125.289C117.67 125.117 117.581 124.952 117.458 124.797C117.339 124.641 117.177 124.513 116.971 124.414C116.766 124.314 116.509 124.265 116.2 124.265C115.78 124.265 115.428 124.359 115.146 124.548C114.865 124.734 114.724 124.974 114.724 125.269C114.724 125.524 114.818 125.73 115.007 125.885C115.196 126.041 115.501 126.169 115.922 126.268L117.135 126.547C117.838 126.709 118.361 126.959 118.706 127.297C119.051 127.635 119.223 128.075 119.223 128.615C119.223 129.072 119.091 129.48 118.825 129.838C118.564 130.193 118.197 130.471 117.727 130.673C117.259 130.875 116.717 130.976 116.101 130.976C115.246 130.976 114.548 130.794 114.008 130.43C113.468 130.062 113.136 129.54 113.014 128.863L114.45 128.645C114.54 129.019 114.724 129.303 115.002 129.495C115.281 129.684 115.644 129.778 116.091 129.778C116.578 129.778 116.968 129.677 117.259 129.475C117.551 129.269 117.697 129.019 117.697 128.724C117.697 128.486 117.607 128.285 117.428 128.123C117.253 127.96 116.983 127.838 116.618 127.755L115.325 127.471C114.613 127.309 114.086 127.05 113.744 126.696C113.406 126.341 113.237 125.892 113.237 125.349C113.237 124.898 113.363 124.503 113.615 124.165C113.867 123.827 114.215 123.564 114.659 123.375C115.103 123.183 115.612 123.086 116.186 123.086C117.011 123.086 117.66 123.265 118.134 123.623C118.608 123.978 118.922 124.454 119.074 125.05ZM124.282 123.186V124.379H120.111V123.186H124.282ZM121.23 121.356H122.716V128.58C122.716 128.868 122.759 129.086 122.845 129.231C122.932 129.374 123.043 129.472 123.179 129.525C123.318 129.574 123.469 129.599 123.631 129.599C123.75 129.599 123.855 129.591 123.944 129.574C124.034 129.558 124.103 129.545 124.153 129.535L124.421 130.763C124.335 130.796 124.213 130.829 124.054 130.862C123.894 130.898 123.696 130.918 123.457 130.922C123.066 130.928 122.701 130.859 122.363 130.713C122.025 130.567 121.752 130.342 121.543 130.037C121.334 129.732 121.23 129.349 121.23 128.888V121.356ZM128.921 130.976C128.205 130.976 127.58 130.812 127.047 130.484C126.513 130.156 126.099 129.697 125.804 129.107C125.509 128.517 125.361 127.828 125.361 127.039C125.361 126.247 125.509 125.554 125.804 124.961C126.099 124.367 126.513 123.907 127.047 123.579C127.58 123.251 128.205 123.086 128.921 123.086C129.637 123.086 130.262 123.251 130.795 123.579C131.329 123.907 131.743 124.367 132.038 124.961C132.333 125.554 132.481 126.247 132.481 127.039C132.481 127.828 132.333 128.517 132.038 129.107C131.743 129.697 131.329 130.156 130.795 130.484C130.262 130.812 129.637 130.976 128.921 130.976ZM128.926 129.729C129.39 129.729 129.775 129.606 130.08 129.361C130.384 129.115 130.61 128.789 130.756 128.381C130.905 127.974 130.979 127.524 130.979 127.034C130.979 126.547 130.905 126.099 130.756 125.692C130.61 125.281 130.384 124.951 130.08 124.702C129.775 124.454 129.39 124.329 128.926 124.329C128.459 124.329 128.071 124.454 127.763 124.702C127.458 124.951 127.231 125.281 127.082 125.692C126.936 126.099 126.863 126.547 126.863 127.034C126.863 127.524 126.936 127.974 127.082 128.381C127.231 128.789 127.458 129.115 127.763 129.361C128.071 129.606 128.459 129.729 128.926 129.729ZM134 130.822V123.186H135.437V124.399H135.516C135.656 123.988 135.901 123.665 136.252 123.43C136.607 123.191 137.008 123.072 137.455 123.072C137.548 123.072 137.658 123.075 137.783 123.081C137.913 123.088 138.014 123.096 138.087 123.106V124.528C138.027 124.512 137.921 124.493 137.769 124.474C137.616 124.45 137.464 124.439 137.311 124.439C136.96 124.439 136.647 124.513 136.372 124.662C136.1 124.808 135.884 125.012 135.725 125.274C135.566 125.532 135.487 125.827 135.487 126.159V130.822H134ZM140.405 133.686C140.183 133.686 139.981 133.668 139.799 133.631C139.616 133.598 139.48 133.562 139.391 133.522L139.749 132.304C140.021 132.377 140.263 132.408 140.475 132.398C140.687 132.388 140.874 132.309 141.037 132.16C141.202 132.01 141.348 131.767 141.474 131.429L141.658 130.922L138.864 123.186H140.455L142.389 129.112H142.468L144.402 123.186H145.998L142.851 131.841C142.705 132.239 142.52 132.576 142.294 132.851C142.069 133.129 141.801 133.338 141.489 133.477C141.177 133.616 140.816 133.686 140.405 133.686ZM151.76 133.686C151.538 133.686 151.336 133.668 151.153 133.631C150.971 133.598 150.835 133.562 150.746 133.522L151.104 132.304C151.375 132.377 151.617 132.408 151.83 132.398C152.042 132.388 152.229 132.309 152.391 132.16C152.557 132.01 152.703 131.767 152.829 131.429L153.013 130.922L150.219 123.186H151.81L153.744 129.112H153.823L155.757 123.186H157.353L154.206 131.841C154.06 132.239 153.875 132.576 153.649 132.851C153.424 133.129 153.155 133.338 152.844 133.477C152.532 133.616 152.171 133.686 151.76 133.686ZM161.641 130.976C160.889 130.976 160.241 130.816 159.698 130.494C159.157 130.169 158.74 129.714 158.445 129.127C158.153 128.537 158.007 127.846 158.007 127.054C158.007 126.272 158.153 125.582 158.445 124.986C158.74 124.389 159.151 123.923 159.678 123.589C160.208 123.254 160.828 123.086 161.537 123.086C161.968 123.086 162.386 123.158 162.79 123.3C163.194 123.443 163.557 123.666 163.879 123.971C164.2 124.276 164.454 124.672 164.639 125.16C164.825 125.644 164.918 126.232 164.918 126.925V127.452H158.847V126.338H163.461C163.461 125.947 163.381 125.6 163.222 125.299C163.063 124.994 162.84 124.754 162.551 124.578C162.266 124.402 161.931 124.314 161.547 124.314C161.129 124.314 160.765 124.417 160.453 124.623C160.145 124.825 159.906 125.09 159.737 125.418C159.572 125.743 159.489 126.096 159.489 126.477V127.347C159.489 127.858 159.578 128.292 159.757 128.65C159.939 129.008 160.193 129.281 160.518 129.47C160.843 129.656 161.222 129.748 161.656 129.748C161.938 129.748 162.195 129.709 162.427 129.629C162.659 129.546 162.859 129.424 163.028 129.261C163.198 129.099 163.327 128.898 163.416 128.66L164.823 128.913C164.711 129.327 164.508 129.69 164.217 130.002C163.928 130.31 163.565 130.55 163.128 130.723C162.694 130.892 162.198 130.976 161.641 130.976ZM169.992 123.186V124.379H165.82V123.186H169.992ZM166.939 121.356H168.426V128.58C168.426 128.868 168.469 129.086 168.555 129.231C168.641 129.374 168.752 129.472 168.888 129.525C169.027 129.574 169.178 129.599 169.34 129.599C169.46 129.599 169.564 129.591 169.654 129.574C169.743 129.558 169.813 129.545 169.862 129.535L170.131 130.763C170.045 130.796 169.922 130.829 169.763 130.862C169.604 130.898 169.405 130.918 169.166 130.922C168.775 130.928 168.411 130.859 168.073 130.713C167.735 130.567 167.461 130.342 167.252 130.037C167.044 129.732 166.939 129.349 166.939 128.888V121.356Z" fill="#999999"/>
</svg>
