<svg width="202" height="154" viewBox="0 0 202 154" fill="none" xmlns="http://www.w3.org/2000/svg">
<path d="M65.4547 107.525H136.544C138.498 107.529 140.381 106.791 141.817 105.458C147.805 99.8796 152.596 93.128 155.895 85.6181C159.193 78.1082 160.93 69.9988 160.997 61.7887C161.304 28.405 134.33 0.936379 101.145 0.857594C67.9412 0.778764 41 27.8339 41 61.2194C40.9906 69.5288 42.6913 77.7501 45.9951 85.3658C49.2989 92.9815 54.1342 99.8265 60.1966 105.47C61.6292 106.797 63.5072 107.531 65.4547 107.525Z" fill="#F8F8F8"/>
<path d="M121.504 64.378L150.29 68.9966L148.63 60.3133C148.172 57.9179 147.008 55.7141 145.289 53.9844C143.57 52.2547 141.373 51.0781 138.981 50.6055L109.109 44.7051L107.047 55.9554L122.047 61.0315C121.817 62.1775 121.633 63.2946 121.504 64.378Z" fill="white" stroke="#E6E6E6" stroke-width="1.66667" stroke-linecap="round" stroke-linejoin="round"/>
<path d="M101.422 63.8301L105.352 89.0348C105.395 89.3071 105.503 89.5649 105.668 89.7858C105.832 90.0067 106.049 90.184 106.298 90.3023C106.546 90.4205 106.821 90.4762 107.096 90.4645C107.371 90.4527 107.639 90.3739 107.877 90.2349L108.498 89.8724C109.83 89.0935 110.914 87.9519 111.623 86.5807C112.333 85.2094 112.637 83.6649 112.502 82.1271L111.547 71.2366L101.422 63.8301Z" fill="white" stroke="#E6E6E6" stroke-width="1.66667" stroke-linecap="round" stroke-linejoin="round"/>
<path d="M97.2715 53.9766L97.5279 77.1316C97.5307 77.3818 97.5945 77.6274 97.7139 77.8473C97.8332 78.0672 98.0044 78.2545 98.2127 78.3931C98.421 78.5317 98.6599 78.6174 98.9088 78.6426C99.1577 78.6678 99.409 78.6319 99.6408 78.5378L100.245 78.2928C101.544 77.7661 102.666 76.8814 103.481 75.7415C104.296 74.6017 104.771 73.2537 104.849 71.8545L105.406 61.9462L97.2715 53.9766Z" fill="white" stroke="#E6E6E6" stroke-width="1.66667" stroke-linecap="round" stroke-linejoin="round"/>
<path d="M121.995 22.1756L59.0373 6.98357C55.8089 6.202 52.5582 8.18555 51.7766 11.414L43.3856 46.0746C42.604 49.303 44.5876 52.5537 47.816 53.3353L110.774 68.5273C114.002 69.3088 117.253 67.3253 118.035 64.0969L126.426 29.4363C127.207 26.2079 125.224 22.9571 121.995 22.1756Z" fill="white" stroke="#E6E6E6" stroke-width="1.66667" stroke-linecap="round" stroke-linejoin="round"/>
<path d="M69.826 19.7032L59.6067 17.2292C58.9189 17.0627 58.2263 17.4853 58.0598 18.1731L58.0598 18.1731C57.8933 18.8609 58.3159 19.5534 59.0037 19.7199L69.223 22.194C69.9108 22.3605 70.6033 21.9379 70.7698 21.2501C70.9363 20.5623 70.5138 19.8698 69.826 19.7032Z" fill="#D4D9E3"/>
<path d="M85.4002 23.4728L75.1809 20.9988C74.4931 20.8322 73.8006 21.2548 73.6341 21.9426L73.6341 21.9426C73.4675 22.6304 73.8901 23.323 74.5779 23.4895L84.7972 25.9635C85.485 26.13 86.1775 25.7074 86.344 25.0196C86.5106 24.3318 86.088 23.6393 85.4002 23.4728Z" fill="#D4D9E3"/>
<path d="M90.7532 24.7683L100.972 27.2423C101.303 27.3223 101.588 27.5302 101.765 27.8202C101.942 28.1103 101.996 28.4589 101.916 28.7892C101.836 29.1194 101.628 29.4044 101.338 29.5815C101.048 29.7585 100.7 29.813 100.369 29.733L90.1502 27.259C89.8199 27.179 89.5349 26.9711 89.3579 26.6811C89.1809 26.391 89.1264 26.0424 89.2063 25.7122C89.2863 25.3819 89.4942 25.0969 89.7843 24.9199C90.0743 24.7429 90.4229 24.6883 90.7532 24.7683L90.7532 24.7683Z" fill="#D4D9E3"/>
<path d="M106.325 28.5378L116.545 31.0118C116.875 31.0918 117.16 31.2997 117.337 31.5898C117.514 31.8799 117.569 32.2284 117.489 32.5587C117.409 32.889 117.201 33.174 116.911 33.351C116.621 33.528 116.272 33.5825 115.942 33.5026L105.722 31.0285C105.392 30.9486 105.107 30.7407 104.93 30.4506C104.753 30.1605 104.699 29.812 104.779 29.4817C104.818 29.3181 104.89 29.164 104.989 29.0281C105.088 28.8921 105.213 28.777 105.357 28.6894C105.5 28.6017 105.66 28.5433 105.826 28.5172C105.992 28.4912 106.162 28.4982 106.325 28.5378Z" fill="#D4D9E3"/>
<path d="M100.247 60.1725C103.33 60.1725 105.829 57.6736 105.829 54.5911C105.829 51.5086 103.33 49.0098 100.247 49.0098C97.1649 49.0098 94.666 51.5086 94.666 54.5911C94.666 57.6736 97.1649 60.1725 100.247 60.1725Z" fill="#B3B3B3"/>
<path d="M108.615 62.1979C111.697 62.1979 114.196 59.699 114.196 56.6165C114.196 53.534 111.697 51.0352 108.615 51.0352C105.532 51.0352 103.033 53.534 103.033 56.6165C103.033 59.699 105.532 62.1979 108.615 62.1979Z" fill="#B3B3B3"/>
<path d="M66.9601 40.5534L53.8882 37.3888C53.0191 37.1784 52.1439 37.7124 51.9335 38.5816L50.0689 46.2833C49.8585 47.1525 50.3925 48.0277 51.2617 48.2381L64.3336 51.4027C65.2027 51.6131 66.0779 51.0791 66.2883 50.2099L68.1529 42.5082C68.3633 41.639 67.8293 40.7638 66.9601 40.5534Z" fill="white" stroke="#E6E6E6" stroke-width="1.66667" stroke-linecap="round" stroke-linejoin="round"/>
<mask id="path-13-inside-1_1234_4928" fill="white">
<path d="M122.048 61.0314C121.244 65.0307 120.984 68.6925 121.766 71.7057L105.224 56.1635C104.251 55.2492 102.962 54.7456 101.627 54.7575C100.292 54.7694 99.0128 55.2959 98.0562 56.2274C97.0961 57.1622 96.5353 58.4323 96.4911 59.7716C96.4469 61.1108 96.9229 62.4151 97.8193 63.4111L113.047 80.3311C113.423 81.6864 113.757 83.1659 114.103 84.6938C115.059 88.9023 116.968 92.8352 119.684 96.189C122.4 99.5427 125.85 102.228 129.768 104.037C132.928 105.498 136.292 106.998 139.494 108.831C139.848 109.031 140.248 109.138 140.655 109.142C141.062 109.146 141.463 109.047 141.822 108.853C149.105 104.966 155.278 100.401 158.527 94.0555C158.704 93.706 158.792 93.3185 158.784 92.9269C158.777 92.5354 158.673 92.1516 158.483 91.8092L152.611 81.128L148.63 60.3131C148.172 57.9178 147.009 55.714 145.289 53.9843C143.57 52.2547 141.374 51.0781 138.981 50.6055"/>
</mask>
<path d="M122.048 61.0314C121.244 65.0307 120.984 68.6925 121.766 71.7057L105.224 56.1635C104.251 55.2492 102.962 54.7456 101.627 54.7575C100.292 54.7694 99.0128 55.2959 98.0562 56.2274C97.0961 57.1622 96.5353 58.4323 96.4911 59.7716C96.4469 61.1108 96.9229 62.4151 97.8193 63.4111L113.047 80.3311C113.423 81.6864 113.757 83.1659 114.103 84.6938C115.059 88.9023 116.968 92.8352 119.684 96.189C122.4 99.5427 125.85 102.228 129.768 104.037C132.928 105.498 136.292 106.998 139.494 108.831C139.848 109.031 140.248 109.138 140.655 109.142C141.062 109.146 141.463 109.047 141.822 108.853C149.105 104.966 155.278 100.401 158.527 94.0555C158.704 93.706 158.792 93.3185 158.784 92.9269C158.777 92.5354 158.673 92.1516 158.483 91.8092L152.611 81.128L148.63 60.3131C148.172 57.9178 147.009 55.714 145.289 53.9843C143.57 52.2547 141.374 51.0781 138.981 50.6055" fill="white"/>
<path d="M121.766 71.7057L120.625 72.9204L124.829 76.8707L123.379 71.2868L121.766 71.7057ZM105.224 56.1635L104.083 57.3782L105.224 56.1635ZM97.8193 63.4111L96.5805 64.526L96.5805 64.526L97.8193 63.4111ZM113.047 80.3311L114.653 79.8861L114.549 79.5079L114.286 79.2162L113.047 80.3311ZM114.103 84.6938L112.478 85.062L112.478 85.0627L114.103 84.6938ZM129.768 104.037L130.467 102.524L130.467 102.524L129.768 104.037ZM139.494 108.831L138.666 110.277L138.674 110.282L139.494 108.831ZM141.822 108.853L141.037 107.383L141.03 107.387L141.822 108.853ZM158.527 94.0555L160.01 94.8151L160.015 94.8071L158.527 94.0555ZM158.483 91.8092L157.023 92.6121L157.026 92.6179L158.483 91.8092ZM152.611 81.128L150.974 81.441L151.023 81.6999L151.15 81.9309L152.611 81.128ZM148.63 60.3131L150.267 60.0001V60.0001L148.63 60.3131ZM120.413 60.7032C119.594 64.7821 119.275 68.7429 120.153 72.1247L123.379 71.2868C122.692 68.642 122.894 65.2792 123.682 61.3596L120.413 60.7032ZM122.907 70.4911L106.365 54.9488L104.083 57.3782L120.625 72.9204L122.907 70.4911ZM106.365 54.9488C105.079 53.7407 103.377 53.0752 101.612 53.0909L101.642 56.4241C102.548 56.416 103.422 56.7578 104.083 57.3782L106.365 54.9488ZM101.612 53.0909C99.8479 53.1066 98.1576 53.8024 96.8935 55.0333L99.2189 57.4215C99.868 56.7895 100.736 56.4322 101.642 56.4241L101.612 53.0909ZM96.8935 55.0333C95.6249 56.2686 94.8837 57.9469 94.8253 59.7166L98.1569 59.8265C98.1868 58.9177 98.5674 58.0559 99.2189 57.4215L96.8935 55.0333ZM94.8253 59.7166C94.767 61.4863 95.396 63.2099 96.5805 64.526L99.0582 62.2962C98.4499 61.6203 98.1269 60.7352 98.1569 59.8265L94.8253 59.7166ZM96.5805 64.526L111.808 81.4461L114.286 79.2162L99.0582 62.2962L96.5805 64.526ZM111.441 80.7761C111.804 82.0858 112.129 83.5242 112.478 85.062L115.729 84.3255C115.385 82.8076 115.041 81.287 114.653 79.8861L111.441 80.7761ZM112.478 85.0627C113.49 89.5202 115.512 93.6857 118.389 97.2379L120.979 95.14C118.424 91.9846 116.627 88.2844 115.728 84.3248L112.478 85.0627ZM118.389 97.2379C121.265 100.79 124.92 103.634 129.069 105.55L130.467 102.524C126.781 100.822 123.535 98.2955 120.979 95.14L118.389 97.2379ZM129.069 105.55C132.26 107.025 135.542 108.489 138.666 110.277L140.322 107.384C137.041 105.506 133.595 103.97 130.467 102.524L129.069 105.55ZM138.674 110.282C139.274 110.621 139.95 110.802 140.639 110.809L140.671 107.476C140.546 107.474 140.423 107.441 140.314 107.38L138.674 110.282ZM140.639 110.809C141.328 110.815 142.007 110.647 142.613 110.32L141.03 107.387C140.919 107.446 140.796 107.477 140.671 107.476L140.639 110.809ZM142.606 110.324C149.975 106.391 156.523 101.625 160.01 94.8151L157.043 93.2959C154.032 99.1773 148.236 103.541 141.037 107.383L142.606 110.324ZM160.015 94.8071C160.314 94.2148 160.464 93.5581 160.451 92.8946L157.118 92.9593C157.12 93.0788 157.093 93.1972 157.039 93.3039L160.015 94.8071ZM160.451 92.8946C160.438 92.231 160.263 91.5807 159.941 91.0004L157.026 92.6179C157.084 92.7225 157.116 92.8397 157.118 92.9593L160.451 92.8946ZM159.944 91.0062L154.071 80.325L151.15 81.9309L157.023 92.6121L159.944 91.0062ZM154.248 80.8149L150.267 60.0001L146.993 60.6262L150.974 81.441L154.248 80.8149ZM150.267 60.0001C149.747 57.2785 148.425 54.7746 146.472 52.8094L144.107 55.1592C145.592 56.6534 146.597 58.5571 146.993 60.6262L150.267 60.0001ZM146.472 52.8094C144.518 50.8442 142.022 49.5073 139.304 48.9704L138.658 52.2405C140.725 52.6488 142.622 53.6651 144.107 55.1592L146.472 52.8094Z" fill="#E6E6E6" mask="url(#path-13-inside-1_1234_4928)"/>
<path d="M122.048 61.0313C121.244 65.0306 120.984 68.6924 121.766 71.7056L105.224 56.1634C104.251 55.2491 102.962 54.7455 101.627 54.7574C100.292 54.7693 99.0128 55.2958 98.0562 56.2273C97.0961 57.1621 96.5353 58.4322 96.4911 59.7715C96.4469 61.1107 96.9229 62.415 97.8193 63.411L113.047 80.331C113.423 81.6863 113.757 83.1658 114.103 84.6937C115.059 88.9022 116.968 92.8351 119.684 96.1889C122.4 99.5426 125.85 102.228 129.768 104.037C132.928 105.498 136.292 106.998 139.494 108.831C139.848 109.031 140.248 109.138 140.655 109.142C141.062 109.146 141.463 109.047 141.822 108.853C149.105 104.966 155.278 100.401 158.527 94.0554C158.704 93.7059 158.792 93.3184 158.784 92.9268C158.777 92.5352 158.673 92.1515 158.483 91.809L152.611 81.1279L148.63 60.313C148.172 57.9177 147.009 55.7139 145.289 53.9842C143.57 52.2545 141.374 51.078 138.981 50.6054L128.204 48.4766" fill="white"/>
<path d="M122.048 61.0313C121.244 65.0306 120.984 68.6924 121.766 71.7056L105.224 56.1634C104.251 55.2491 102.962 54.7455 101.627 54.7574C100.292 54.7693 99.0128 55.2958 98.0562 56.2273V56.2273C97.0961 57.1621 96.5353 58.4322 96.4911 59.7715C96.4469 61.1107 96.9229 62.415 97.8193 63.411L113.047 80.331C113.423 81.6863 113.757 83.1658 114.103 84.6937C115.059 88.9022 116.968 92.8351 119.684 96.1889C122.4 99.5426 125.85 102.228 129.768 104.037C132.928 105.498 136.292 106.998 139.494 108.831C139.848 109.031 140.248 109.138 140.655 109.142C141.062 109.146 141.463 109.047 141.822 108.853C149.105 104.966 155.278 100.401 158.527 94.0554C158.704 93.7059 158.792 93.3184 158.784 92.9268C158.777 92.5352 158.673 92.1515 158.483 91.809L152.611 81.1279L148.63 60.313C148.172 57.9177 147.009 55.7139 145.289 53.9842C143.57 52.2545 141.374 51.078 138.981 50.6054L128.204 48.4766" stroke="#E6E6E6" stroke-width="1.66667" stroke-linecap="round" stroke-linejoin="round"/>
<path d="M10.0991 120.961V131.143H8.68717L3.51175 123.675H3.41729V131.143H1.88107V120.961H3.30294L8.48334 128.438H8.5778V120.961H10.0991ZM15.2974 131.297C14.5814 131.297 13.9567 131.133 13.4231 130.805C12.8894 130.476 12.4751 130.017 12.1802 129.427C11.8852 128.837 11.7377 128.148 11.7377 127.359C11.7377 126.567 11.8852 125.874 12.1802 125.281C12.4751 124.688 12.8894 124.227 13.4231 123.899C13.9567 123.571 14.5814 123.407 15.2974 123.407C16.0133 123.407 16.638 123.571 17.1716 123.899C17.7053 124.227 18.1196 124.688 18.4145 125.281C18.7095 125.874 18.857 126.567 18.857 127.359C18.857 128.148 18.7095 128.837 18.4145 129.427C18.1196 130.017 17.7053 130.476 17.1716 130.805C16.638 131.133 16.0133 131.297 15.2974 131.297ZM15.3023 130.049C15.7663 130.049 16.1508 129.926 16.4557 129.681C16.7607 129.436 16.986 129.109 17.1319 128.702C17.281 128.294 17.3556 127.845 17.3556 127.354C17.3556 126.867 17.281 126.42 17.1319 126.012C16.986 125.601 16.7607 125.271 16.4557 125.023C16.1508 124.774 15.7663 124.65 15.3023 124.65C14.835 124.65 14.4472 124.774 14.139 125.023C13.834 125.271 13.607 125.601 13.4579 126.012C13.312 126.42 13.2391 126.867 13.2391 127.354C13.2391 127.845 13.312 128.294 13.4579 128.702C13.607 129.109 13.834 129.436 14.139 129.681C14.4472 129.926 14.835 130.049 15.3023 130.049ZM26.1637 131.312C25.6798 131.312 25.2423 131.222 24.8512 131.043C24.4601 130.861 24.1502 130.597 23.9215 130.253C23.6961 129.908 23.5834 129.485 23.5834 128.985C23.5834 128.554 23.6663 128.199 23.832 127.921C23.9977 127.643 24.2214 127.422 24.5031 127.26C24.7849 127.097 25.0997 126.975 25.4478 126.892C25.7958 126.809 26.1504 126.746 26.5117 126.703C26.9691 126.65 27.3403 126.607 27.6253 126.574C27.9103 126.537 28.1175 126.479 28.2468 126.4C28.376 126.32 28.4406 126.191 28.4406 126.012V125.977C28.4406 125.543 28.318 125.206 28.0728 124.968C27.8308 124.729 27.4695 124.61 26.9889 124.61C26.4885 124.61 26.0941 124.721 25.8057 124.943C25.5207 125.162 25.3235 125.405 25.2141 125.674L23.8171 125.356C23.9828 124.892 24.2247 124.517 24.5429 124.232C24.8644 123.944 25.234 123.735 25.6516 123.606C26.0692 123.473 26.5084 123.407 26.9691 123.407C27.274 123.407 27.5971 123.443 27.9385 123.516C28.2832 123.586 28.6047 123.715 28.903 123.904C29.2046 124.093 29.4515 124.363 29.6438 124.714C29.836 125.062 29.9321 125.515 29.9321 126.072V131.143H28.4804V130.099H28.4208C28.3246 130.291 28.1805 130.48 27.9882 130.665C27.796 130.851 27.5491 131.005 27.2475 131.128C26.9459 131.25 26.5846 131.312 26.1637 131.312ZM26.4868 130.118C26.8978 130.118 27.2491 130.037 27.5408 129.875C27.8358 129.712 28.0595 129.5 28.212 129.238C28.3677 128.973 28.4456 128.69 28.4456 128.388V127.404C28.3926 127.457 28.2898 127.507 28.1374 127.553C27.9882 127.596 27.8175 127.634 27.6253 127.667C27.4331 127.697 27.2458 127.725 27.0635 127.752C26.8812 127.775 26.7288 127.795 26.6061 127.812C26.3178 127.848 26.0543 127.909 25.8156 127.996C25.5803 128.082 25.3914 128.206 25.2489 128.368C25.1097 128.528 25.0401 128.74 25.0401 129.005C25.0401 129.373 25.176 129.651 25.4478 129.84C25.7195 130.026 26.0659 130.118 26.4868 130.118ZM34.9887 131.297C34.2496 131.297 33.6132 131.129 33.0796 130.795C32.5493 130.456 32.1416 129.991 31.8566 129.398C31.5715 128.804 31.429 128.125 31.429 127.359C31.429 126.584 31.5749 125.899 31.8665 125.306C32.1582 124.709 32.5692 124.244 33.0995 123.909C33.6298 123.574 34.2545 123.407 34.9738 123.407C35.5538 123.407 36.0708 123.515 36.5249 123.73C36.979 123.942 37.3452 124.24 37.6236 124.625C37.9053 125.009 38.0727 125.458 38.1258 125.972H36.679C36.5995 125.614 36.4172 125.306 36.1321 125.047C35.8504 124.789 35.4726 124.66 34.9986 124.66C34.5843 124.66 34.2214 124.769 33.9098 124.988C33.6016 125.203 33.3613 125.511 33.189 125.912C33.0166 126.31 32.9304 126.781 32.9304 127.324C32.9304 127.881 33.015 128.362 33.184 128.766C33.353 129.171 33.5917 129.484 33.8999 129.706C34.2115 129.928 34.5777 130.039 34.9986 130.039C35.2803 130.039 35.5356 129.988 35.7642 129.885C35.9963 129.779 36.1901 129.628 36.3459 129.432C36.505 129.237 36.616 129.001 36.679 128.726H38.1258C38.0727 129.22 37.912 129.661 37.6435 130.049C37.375 130.437 37.0154 130.742 36.5647 130.964C36.1172 131.186 35.5919 131.297 34.9887 131.297ZM43.1401 123.506V124.699H38.9689V123.506H43.1401ZM40.0875 121.677H41.574V128.9C41.574 129.189 41.6171 129.406 41.7033 129.552C41.7894 129.694 41.9005 129.792 42.0364 129.845C42.1756 129.895 42.3264 129.92 42.4888 129.92C42.6081 129.92 42.7125 129.911 42.802 129.895C42.8915 129.878 42.9611 129.865 43.0108 129.855L43.2793 131.083C43.1931 131.116 43.0704 131.149 42.9114 131.182C42.7523 131.219 42.5534 131.239 42.3148 131.242C41.9237 131.249 41.5591 131.179 41.221 131.033C40.8829 130.887 40.6095 130.662 40.4007 130.357C40.1919 130.052 40.0875 129.669 40.0875 129.209V121.677ZM44.6444 131.143V123.506H46.1309V131.143H44.6444ZM45.3951 122.328C45.1366 122.328 44.9145 122.242 44.7289 122.069C44.5466 121.894 44.4555 121.685 44.4555 121.443C44.4555 121.198 44.5466 120.989 44.7289 120.817C44.9145 120.641 45.1366 120.553 45.3951 120.553C45.6536 120.553 45.874 120.641 46.0563 120.817C46.2419 120.989 46.3347 121.198 46.3347 121.443C46.3347 121.685 46.2419 121.894 46.0563 122.069C45.874 122.242 45.6536 122.328 45.3951 122.328ZM54.5234 123.506L51.7542 131.143H50.1633L47.3892 123.506H48.9851L50.919 129.383H50.9985L52.9275 123.506H54.5234ZM58.8118 131.297C58.0595 131.297 57.4115 131.136 56.868 130.814C56.3277 130.49 55.9101 130.034 55.6151 129.447C55.3234 128.857 55.1776 128.166 55.1776 127.374C55.1776 126.592 55.3234 125.903 55.6151 125.306C55.9101 124.709 56.3211 124.244 56.8481 123.909C57.3784 123.574 57.9982 123.407 58.7074 123.407C59.1383 123.407 59.5559 123.478 59.9603 123.621C60.3646 123.763 60.7276 123.987 61.0491 124.292C61.3706 124.597 61.6241 124.993 61.8097 125.48C61.9953 125.964 62.0881 126.552 62.0881 127.245V127.772H56.0178V126.658H60.6315C60.6315 126.267 60.5519 125.921 60.3928 125.619C60.2337 125.314 60.01 125.074 59.7217 124.898C59.4366 124.723 59.1019 124.635 58.7174 124.635C58.2998 124.635 57.9352 124.738 57.6236 124.943C57.3154 125.145 57.0768 125.41 56.9077 125.738C56.742 126.063 56.6592 126.416 56.6592 126.797V127.667C56.6592 128.178 56.7486 128.612 56.9276 128.97C57.1099 129.328 57.3635 129.601 57.6883 129.79C58.0131 129.976 58.3926 130.069 58.8268 130.069C59.1085 130.069 59.3654 130.029 59.5974 129.949C59.8294 129.867 60.0299 129.744 60.1989 129.581C60.368 129.419 60.4972 129.219 60.5867 128.98L61.9937 129.233C61.881 129.648 61.6788 130.011 61.3871 130.322C61.0988 130.631 60.7359 130.871 60.2984 131.043C59.8642 131.212 59.3687 131.297 58.8118 131.297ZM73.6952 123.506L70.926 131.143H69.3351L66.561 123.506H68.1568L70.0908 129.383H70.1703L72.0993 123.506H73.6952ZM74.9522 131.143V123.506H76.4387V131.143H74.9522ZM75.7029 122.328C75.4444 122.328 75.2223 122.242 75.0367 122.069C74.8544 121.894 74.7633 121.685 74.7633 121.443C74.7633 121.198 74.8544 120.989 75.0367 120.817C75.2223 120.641 75.4444 120.553 75.7029 120.553C75.9614 120.553 76.1819 120.641 76.3641 120.817C76.5498 120.989 76.6426 121.198 76.6426 121.443C76.6426 121.685 76.5498 121.894 76.3641 122.069C76.1819 122.242 75.9614 122.328 75.7029 122.328ZM78.2985 131.143V123.506H79.7353V124.719H79.8149C79.9541 124.308 80.1994 123.985 80.5507 123.75C80.9053 123.511 81.3064 123.392 81.7538 123.392C81.8466 123.392 81.956 123.395 82.0819 123.402C82.2112 123.408 82.3123 123.417 82.3852 123.427V124.849C82.3255 124.832 82.2195 124.814 82.067 124.794C81.9145 124.771 81.7621 124.759 81.6096 124.759C81.2583 124.759 80.9451 124.834 80.67 124.983C80.3982 125.129 80.1828 125.332 80.0237 125.594C79.8646 125.853 79.7851 126.148 79.7851 126.479V131.143H78.2985ZM87.5474 123.506V124.699H83.3762V123.506H87.5474ZM84.4948 121.677H85.9813V128.9C85.9813 129.189 86.0244 129.406 86.1106 129.552C86.1968 129.694 86.3078 129.792 86.4437 129.845C86.5829 129.895 86.7337 129.92 86.8961 129.92C87.0154 129.92 87.1198 129.911 87.2093 129.895C87.2988 129.878 87.3684 129.865 87.4181 129.855L87.6866 131.083C87.6004 131.116 87.4778 131.149 87.3187 131.182C87.1596 131.219 86.9607 131.239 86.7221 131.242C86.331 131.249 85.9664 131.179 85.6284 131.033C85.2903 130.887 85.0169 130.662 84.808 130.357C84.5992 130.052 84.4948 129.669 84.4948 129.209V121.677ZM93.8891 127.976V123.506H95.3806V131.143H93.9189V129.82H93.8394C93.6637 130.228 93.382 130.568 92.9942 130.839C92.6098 131.108 92.1308 131.242 91.5574 131.242C91.0669 131.242 90.6327 131.134 90.2549 130.919C89.8803 130.7 89.5854 130.377 89.3699 129.949C89.1578 129.522 89.0517 128.993 89.0517 128.363V123.506H90.5383V128.184C90.5383 128.705 90.6824 129.119 90.9708 129.427C91.2591 129.736 91.6337 129.89 92.0944 129.89C92.3728 129.89 92.6495 129.82 92.9246 129.681C93.203 129.542 93.4334 129.331 93.6157 129.05C93.8013 128.768 93.8924 128.41 93.8891 127.976ZM99.4602 131.312C98.9763 131.312 98.5388 131.222 98.1477 131.043C97.7566 130.861 97.4467 130.597 97.218 130.253C96.9927 129.908 96.88 129.485 96.88 128.985C96.88 128.554 96.9628 128.199 97.1285 127.921C97.2943 127.643 97.518 127.422 97.7997 127.26C98.0814 127.097 98.3963 126.975 98.7443 126.892C99.0923 126.809 99.447 126.746 99.8082 126.703C100.266 126.65 100.637 126.607 100.922 126.574C101.207 126.537 101.414 126.479 101.543 126.4C101.673 126.32 101.737 126.191 101.737 126.012V125.977C101.737 125.543 101.615 125.206 101.369 124.968C101.127 124.729 100.766 124.61 100.286 124.61C99.785 124.61 99.3906 124.721 99.1023 124.943C98.8172 125.162 98.62 125.405 98.5106 125.674L97.1136 125.356C97.2794 124.892 97.5213 124.517 97.8395 124.232C98.161 123.944 98.5305 123.735 98.9481 123.606C99.3658 123.473 99.8049 123.407 100.266 123.407C100.571 123.407 100.894 123.443 101.235 123.516C101.58 123.586 101.901 123.715 102.2 123.904C102.501 124.093 102.748 124.363 102.94 124.714C103.133 125.062 103.229 125.515 103.229 126.072V131.143H101.777V130.099H101.717C101.621 130.291 101.477 130.48 101.285 130.665C101.093 130.851 100.846 131.005 100.544 131.128C100.242 131.25 99.8812 131.312 99.4602 131.312ZM99.7834 130.118C100.194 130.118 100.546 130.037 100.837 129.875C101.132 129.712 101.356 129.5 101.509 129.238C101.664 128.973 101.742 128.69 101.742 128.388V127.404C101.689 127.457 101.586 127.507 101.434 127.553C101.285 127.596 101.114 127.634 100.922 127.667C100.73 127.697 100.542 127.725 100.36 127.752C100.178 127.775 100.025 127.795 99.9027 127.812C99.6143 127.848 99.3508 127.909 99.1122 127.996C98.8769 128.082 98.688 128.206 98.5455 128.368C98.4062 128.528 98.3366 128.74 98.3366 129.005C98.3366 129.373 98.4725 129.651 98.7443 129.84C99.0161 130.026 99.3624 130.118 99.7834 130.118ZM106.555 120.961V131.143H105.069V120.961H106.555ZM115.197 131.297C114.458 131.297 113.821 131.129 113.288 130.795C112.757 130.456 112.35 129.991 112.065 129.398C111.78 128.804 111.637 128.125 111.637 127.359C111.637 126.584 111.783 125.899 112.074 125.306C112.366 124.709 112.777 124.244 113.307 123.909C113.838 123.574 114.463 123.407 115.182 123.407C115.762 123.407 116.279 123.515 116.733 123.73C117.187 123.942 117.553 124.24 117.832 124.625C118.113 125.009 118.281 125.458 118.334 125.972H116.887C116.807 125.614 116.625 125.306 116.34 125.047C116.058 124.789 115.681 124.66 115.207 124.66C114.792 124.66 114.429 124.769 114.118 124.988C113.81 125.203 113.569 125.511 113.397 125.912C113.225 126.31 113.138 126.781 113.138 127.324C113.138 127.881 113.223 128.362 113.392 128.766C113.561 129.171 113.8 129.484 114.108 129.706C114.419 129.928 114.786 130.039 115.207 130.039C115.488 130.039 115.744 129.988 115.972 129.885C116.204 129.779 116.398 129.628 116.554 129.432C116.713 129.237 116.824 129.001 116.887 128.726H118.334C118.281 129.22 118.12 129.661 117.851 130.049C117.583 130.437 117.223 130.742 116.773 130.964C116.325 131.186 115.8 131.297 115.197 131.297ZM122.006 131.312C121.522 131.312 121.084 131.222 120.693 131.043C120.302 130.861 119.992 130.597 119.763 130.253C119.538 129.908 119.425 129.485 119.425 128.985C119.425 128.554 119.508 128.199 119.674 127.921C119.84 127.643 120.063 127.422 120.345 127.26C120.627 127.097 120.942 126.975 121.29 126.892C121.638 126.809 121.992 126.746 122.354 126.703C122.811 126.65 123.182 126.607 123.467 126.574C123.752 126.537 123.96 126.479 124.089 126.4C124.218 126.32 124.283 126.191 124.283 126.012V125.977C124.283 125.543 124.16 125.206 123.915 124.968C123.673 124.729 123.312 124.61 122.831 124.61C122.33 124.61 121.936 124.721 121.648 124.943C121.363 125.162 121.165 125.405 121.056 125.674L119.659 125.356C119.825 124.892 120.067 124.517 120.385 124.232C120.706 123.944 121.076 123.735 121.494 123.606C121.911 123.473 122.35 123.407 122.811 123.407C123.116 123.407 123.439 123.443 123.781 123.516C124.125 123.586 124.447 123.715 124.745 123.904C125.047 124.093 125.294 124.363 125.486 124.714C125.678 125.062 125.774 125.515 125.774 126.072V131.143H124.322V130.099H124.263C124.167 130.291 124.022 130.48 123.83 130.665C123.638 130.851 123.391 131.005 123.089 131.128C122.788 131.25 122.427 131.312 122.006 131.312ZM122.329 130.118C122.74 130.118 123.091 130.037 123.383 129.875C123.678 129.712 123.902 129.5 124.054 129.238C124.21 128.973 124.288 128.69 124.288 128.388V127.404C124.235 127.457 124.132 127.507 123.979 127.553C123.83 127.596 123.66 127.634 123.467 127.667C123.275 127.697 123.088 127.725 122.906 127.752C122.723 127.775 122.571 127.795 122.448 127.812C122.16 127.848 121.896 127.909 121.658 127.996C121.422 128.082 121.233 128.206 121.091 128.368C120.952 128.528 120.882 128.74 120.882 129.005C120.882 129.373 121.018 129.651 121.29 129.84C121.562 130.026 121.908 130.118 122.329 130.118ZM127.614 131.143V123.506H129.051V124.719H129.13C129.27 124.308 129.515 123.985 129.866 123.75C130.221 123.511 130.622 123.392 131.069 123.392C131.162 123.392 131.272 123.395 131.397 123.402C131.527 123.408 131.628 123.417 131.701 123.427V124.849C131.641 124.832 131.535 124.814 131.383 124.794C131.23 124.771 131.078 124.759 130.925 124.759C130.574 124.759 130.261 124.834 129.986 124.983C129.714 125.129 129.498 125.332 129.339 125.594C129.18 125.853 129.101 126.148 129.101 126.479V131.143H127.614ZM135.432 131.292C134.816 131.292 134.266 131.134 133.782 130.819C133.301 130.501 132.923 130.049 132.648 129.462C132.376 128.872 132.241 128.165 132.241 127.339C132.241 126.514 132.378 125.808 132.653 125.221C132.932 124.635 133.313 124.186 133.797 123.874C134.281 123.563 134.829 123.407 135.442 123.407C135.916 123.407 136.297 123.486 136.586 123.645C136.877 123.801 137.103 123.983 137.262 124.192C137.424 124.401 137.55 124.585 137.64 124.744H137.729V120.961H139.216V131.143H137.764V129.954H137.64C137.55 130.117 137.421 130.302 137.252 130.511C137.086 130.72 136.858 130.902 136.566 131.058C136.274 131.214 135.896 131.292 135.432 131.292ZM135.76 130.024C136.188 130.024 136.549 129.911 136.844 129.686C137.143 129.457 137.368 129.141 137.52 128.736C137.676 128.332 137.754 127.861 137.754 127.324C137.754 126.794 137.678 126.33 137.525 125.932C137.373 125.535 137.149 125.225 136.854 125.003C136.559 124.781 136.195 124.67 135.76 124.67C135.313 124.67 134.94 124.786 134.642 125.018C134.344 125.25 134.118 125.566 133.966 125.967C133.817 126.368 133.742 126.821 133.742 127.324C133.742 127.835 133.818 128.294 133.971 128.702C134.123 129.109 134.349 129.432 134.647 129.671C134.948 129.906 135.32 130.024 135.76 130.024ZM143.131 129.751L143.057 130.292C143.007 130.69 142.923 131.104 142.803 131.535C142.687 131.97 142.566 132.372 142.44 132.743C142.318 133.115 142.217 133.41 142.137 133.628H141.083C141.126 133.423 141.186 133.144 141.262 132.793C141.338 132.445 141.413 132.056 141.486 131.625C141.559 131.194 141.613 130.755 141.65 130.307L141.7 129.751H143.131ZM151.708 131.297C150.969 131.297 150.333 131.129 149.799 130.795C149.269 130.456 148.861 129.991 148.576 129.398C148.291 128.804 148.149 128.125 148.149 127.359C148.149 126.584 148.294 125.899 148.586 125.306C148.878 124.709 149.289 124.244 149.819 123.909C150.349 123.574 150.974 123.407 151.693 123.407C152.273 123.407 152.79 123.515 153.244 123.73C153.699 123.942 154.065 124.24 154.343 124.625C154.625 125.009 154.792 125.458 154.845 125.972H153.399C153.319 125.614 153.137 125.306 152.852 125.047C152.57 124.789 152.192 124.66 151.718 124.66C151.304 124.66 150.941 124.769 150.629 124.988C150.321 125.203 150.081 125.511 149.909 125.912C149.736 126.31 149.65 126.781 149.65 127.324C149.65 127.881 149.734 128.362 149.904 128.766C150.073 129.171 150.311 129.484 150.619 129.706C150.931 129.928 151.297 130.039 151.718 130.039C152 130.039 152.255 129.988 152.484 129.885C152.716 129.779 152.91 129.628 153.065 129.432C153.225 129.237 153.336 129.001 153.399 128.726H154.845C154.792 129.22 154.632 129.661 154.363 130.049C154.095 130.437 153.735 130.742 153.284 130.964C152.837 131.186 152.311 131.297 151.708 131.297ZM157.781 120.961V131.143H156.295V120.961H157.781ZM159.641 131.143V123.506H161.128V131.143H159.641ZM160.392 122.328C160.133 122.328 159.911 122.242 159.726 122.069C159.544 121.894 159.452 121.685 159.452 121.443C159.452 121.198 159.544 120.989 159.726 120.817C159.911 120.641 160.133 120.553 160.392 120.553C160.651 120.553 160.871 120.641 161.053 120.817C161.239 120.989 161.332 121.198 161.332 121.443C161.332 121.685 161.239 121.894 161.053 122.069C160.871 122.242 160.651 122.328 160.392 122.328ZM166.204 131.297C165.465 131.297 164.829 131.129 164.295 130.795C163.765 130.456 163.357 129.991 163.072 129.398C162.787 128.804 162.645 128.125 162.645 127.359C162.645 126.584 162.79 125.899 163.082 125.306C163.374 124.709 163.785 124.244 164.315 123.909C164.845 123.574 165.47 123.407 166.189 123.407C166.769 123.407 167.286 123.515 167.74 123.73C168.195 123.942 168.561 124.24 168.839 124.625C169.121 125.009 169.288 125.458 169.341 125.972H167.895C167.815 125.614 167.633 125.306 167.348 125.047C167.066 124.789 166.688 124.66 166.214 124.66C165.8 124.66 165.437 124.769 165.125 124.988C164.817 125.203 164.577 125.511 164.405 125.912C164.232 126.31 164.146 126.781 164.146 127.324C164.146 127.881 164.23 128.362 164.4 128.766C164.569 129.171 164.807 129.484 165.115 129.706C165.427 129.928 165.793 130.039 166.214 130.039C166.496 130.039 166.751 129.988 166.98 129.885C167.212 129.779 167.406 129.628 167.561 129.432C167.721 129.237 167.832 129.001 167.895 128.726H169.341C169.288 129.22 169.128 129.661 168.859 130.049C168.591 130.437 168.231 130.742 167.78 130.964C167.333 131.186 166.807 131.297 166.204 131.297ZM172.158 128.552L172.148 126.738H172.407L175.449 123.506H177.229L173.759 127.185H173.525L172.158 128.552ZM170.791 131.143V120.961H172.277V131.143H170.791ZM175.613 131.143L172.879 127.513L173.903 126.474L177.438 131.143H175.613ZM185.226 131.297C184.51 131.297 183.885 131.133 183.351 130.805C182.818 130.476 182.403 130.017 182.108 129.427C181.813 128.837 181.666 128.148 181.666 127.359C181.666 126.567 181.813 125.874 182.108 125.281C182.403 124.688 182.818 124.227 183.351 123.899C183.885 123.571 184.51 123.407 185.226 123.407C185.942 123.407 186.566 123.571 187.1 123.899C187.634 124.227 188.048 124.688 188.343 125.281C188.638 125.874 188.785 126.567 188.785 127.359C188.785 128.148 188.638 128.837 188.343 129.427C188.048 130.017 187.634 130.476 187.1 130.805C186.566 131.133 185.942 131.297 185.226 131.297ZM185.231 130.049C185.695 130.049 186.079 129.926 186.384 129.681C186.689 129.436 186.914 129.109 187.06 128.702C187.209 128.294 187.284 127.845 187.284 127.354C187.284 126.867 187.209 126.42 187.06 126.012C186.914 125.601 186.689 125.271 186.384 125.023C186.079 124.774 185.695 124.65 185.231 124.65C184.763 124.65 184.376 124.774 184.067 125.023C183.762 125.271 183.535 125.601 183.386 126.012C183.24 126.42 183.167 126.867 183.167 127.354C183.167 127.845 183.24 128.294 183.386 128.702C183.535 129.109 183.762 129.436 184.067 129.681C184.376 129.926 184.763 130.049 185.231 130.049ZM191.791 126.608V131.143H190.305V123.506H191.731V124.749H191.826C192.002 124.345 192.277 124.02 192.651 123.775C193.029 123.529 193.505 123.407 194.078 123.407C194.598 123.407 195.054 123.516 195.445 123.735C195.836 123.95 196.14 124.272 196.355 124.699C196.57 125.127 196.678 125.656 196.678 126.285V131.143H195.192V126.464C195.192 125.911 195.047 125.478 194.759 125.167C194.471 124.852 194.075 124.694 193.571 124.694C193.226 124.694 192.92 124.769 192.651 124.918C192.386 125.067 192.176 125.286 192.02 125.574C191.867 125.859 191.791 126.204 191.791 126.608ZM21.2569 149.297C20.5178 149.297 19.8815 149.129 19.3478 148.795C18.8175 148.456 18.4099 147.991 18.1248 147.398C17.8398 146.804 17.6973 146.125 17.6973 145.359C17.6973 144.584 17.8431 143.899 18.1348 143.306C18.4264 142.709 18.8374 142.244 19.3677 141.909C19.898 141.574 20.5228 141.407 21.242 141.407C21.822 141.407 22.3391 141.515 22.7931 141.73C23.2472 141.942 23.6135 142.24 23.8919 142.625C24.1736 143.009 24.341 143.458 24.394 143.972H22.9473C22.8677 143.614 22.6854 143.306 22.4004 143.047C22.1187 142.789 21.7408 142.66 21.2669 142.66C20.8526 142.66 20.4896 142.769 20.1781 142.988C19.8699 143.203 19.6296 143.511 19.4572 143.912C19.2849 144.31 19.1987 144.781 19.1987 145.324C19.1987 145.881 19.2832 146.362 19.4522 146.766C19.6213 147.171 19.8599 147.484 20.1681 147.706C20.4797 147.928 20.8459 148.039 21.2669 148.039C21.5486 148.039 21.8038 147.988 22.0325 147.885C22.2645 147.779 22.4584 147.628 22.6142 147.432C22.7733 147.237 22.8843 147.001 22.9473 146.726H24.394C24.341 147.22 24.1802 147.661 23.9118 148.049C23.6433 148.437 23.2837 148.742 22.8329 148.964C22.3855 149.186 21.8601 149.297 21.2569 149.297ZM25.8437 149.143V141.506H27.2805V142.719H27.36C27.4992 142.308 27.7445 141.985 28.0958 141.75C28.4504 141.511 28.8515 141.392 29.2989 141.392C29.3917 141.392 29.5011 141.395 29.627 141.402C29.7563 141.408 29.8574 141.417 29.9303 141.427V142.849C29.8707 142.832 29.7646 142.814 29.6121 142.794C29.4597 142.771 29.3072 142.759 29.1547 142.759C28.8034 142.759 28.4902 142.834 28.2151 142.983C27.9433 143.129 27.7279 143.332 27.5688 143.594C27.4097 143.853 27.3302 144.148 27.3302 144.479V149.143H25.8437ZM34.0945 149.297C33.3421 149.297 32.6941 149.136 32.1506 148.814C31.6103 148.49 31.1927 148.034 30.8977 147.447C30.6061 146.857 30.4602 146.166 30.4602 145.374C30.4602 144.592 30.6061 143.903 30.8977 143.306C31.1927 142.709 31.6037 142.244 32.1307 141.909C32.661 141.574 33.2808 141.407 33.9901 141.407C34.4209 141.407 34.8386 141.478 35.2429 141.621C35.6473 141.763 36.0102 141.987 36.3317 142.292C36.6532 142.597 36.9067 142.993 37.0923 143.48C37.2779 143.964 37.3707 144.552 37.3707 145.245V145.772H31.3004V144.658H35.9141C35.9141 144.267 35.8345 143.921 35.6754 143.619C35.5163 143.314 35.2926 143.074 35.0043 142.898C34.7192 142.723 34.3845 142.635 34 142.635C33.5824 142.635 33.2178 142.738 32.9063 142.943C32.598 143.145 32.3594 143.41 32.1903 143.738C32.0246 144.063 31.9418 144.416 31.9418 144.797V145.667C31.9418 146.178 32.0313 146.612 32.2102 146.97C32.3925 147.328 32.6461 147.601 32.9709 147.79C33.2957 147.976 33.6752 148.069 34.1094 148.069C34.3911 148.069 34.648 148.029 34.88 147.949C35.112 147.867 35.3125 147.744 35.4815 147.581C35.6506 147.419 35.7798 147.219 35.8693 146.98L37.2763 147.233C37.1636 147.648 36.9614 148.011 36.6698 148.322C36.3814 148.631 36.0185 148.871 35.581 149.043C35.1468 149.212 34.6513 149.297 34.0945 149.297ZM41.1024 149.312C40.6185 149.312 40.181 149.222 39.7899 149.043C39.3988 148.861 39.0889 148.597 38.8602 148.253C38.6348 147.908 38.5221 147.485 38.5221 146.985C38.5221 146.554 38.605 146.199 38.7707 145.921C38.9364 145.643 39.1601 145.422 39.4419 145.26C39.7236 145.097 40.0385 144.975 40.3865 144.892C40.7345 144.809 41.0891 144.746 41.4504 144.703C41.9078 144.65 42.279 144.607 42.564 144.574C42.8491 144.537 43.0562 144.479 43.1855 144.4C43.3147 144.32 43.3794 144.191 43.3794 144.012V143.977C43.3794 143.543 43.2567 143.206 43.0115 142.968C42.7695 142.729 42.4082 142.61 41.9277 142.61C41.4272 142.61 41.0328 142.721 40.7444 142.943C40.4594 143.162 40.2622 143.405 40.1528 143.674L38.7558 143.356C38.9215 142.892 39.1635 142.517 39.4816 142.232C39.8031 141.944 40.1727 141.735 40.5903 141.606C41.0079 141.473 41.4471 141.407 41.9078 141.407C42.2127 141.407 42.5358 141.443 42.8772 141.516C43.2219 141.586 43.5434 141.715 43.8417 141.904C44.1433 142.093 44.3903 142.363 44.5825 142.714C44.7747 143.062 44.8708 143.515 44.8708 144.072V149.143H43.4191V148.099H43.3595C43.2634 148.291 43.1192 148.48 42.9269 148.665C42.7347 148.851 42.4878 149.005 42.1862 149.128C41.8846 149.25 41.5233 149.312 41.1024 149.312ZM41.4255 148.118C41.8365 148.118 42.1878 148.037 42.4795 147.875C42.7745 147.712 42.9982 147.5 43.1507 147.238C43.3064 146.973 43.3843 146.69 43.3843 146.388V145.404C43.3313 145.457 43.2286 145.507 43.0761 145.553C42.9269 145.596 42.7563 145.634 42.564 145.667C42.3718 145.697 42.1845 145.725 42.0022 145.752C41.8199 145.775 41.6675 145.795 41.5448 145.812C41.2565 145.848 40.993 145.909 40.7544 145.996C40.519 146.082 40.3301 146.206 40.1876 146.368C40.0484 146.528 39.9788 146.74 39.9788 147.005C39.9788 147.373 40.1147 147.651 40.3865 147.84C40.6582 148.026 41.0046 148.118 41.4255 148.118ZM50.2754 141.506V142.699H46.1042V141.506H50.2754ZM47.2229 139.677H48.7094V146.9C48.7094 147.189 48.7524 147.406 48.8386 147.552C48.9248 147.694 49.0358 147.792 49.1717 147.845C49.3109 147.895 49.4617 147.92 49.6241 147.92C49.7434 147.92 49.8479 147.911 49.9373 147.895C50.0268 147.878 50.0964 147.865 50.1461 147.855L50.4146 149.083C50.3284 149.116 50.2058 149.149 50.0467 149.182C49.8876 149.219 49.6888 149.239 49.4501 149.242C49.059 149.249 48.6944 149.179 48.3564 149.033C48.0183 148.887 47.7449 148.662 47.5361 148.357C47.3273 148.052 47.2229 147.669 47.2229 147.209V139.677ZM54.9889 149.297C54.2366 149.297 53.5886 149.136 53.045 148.814C52.5048 148.49 52.0872 148.034 51.7922 147.447C51.5005 146.857 51.3547 146.166 51.3547 145.374C51.3547 144.592 51.5005 143.903 51.7922 143.306C52.0872 142.709 52.4982 142.244 53.0251 141.909C53.5554 141.574 54.1752 141.407 54.8845 141.407C55.3154 141.407 55.733 141.478 56.1374 141.621C56.5417 141.763 56.9046 141.987 57.2261 142.292C57.5476 142.597 57.8012 142.993 57.9868 143.48C58.1724 143.964 58.2652 144.552 58.2652 145.245V145.772H52.1949V144.658H56.8085C56.8085 144.267 56.729 143.921 56.5699 143.619C56.4108 143.314 56.1871 143.074 55.8987 142.898C55.6137 142.723 55.2789 142.635 54.8945 142.635C54.4768 142.635 54.1123 142.738 53.8007 142.943C53.4925 143.145 53.2538 143.41 53.0848 143.738C52.9191 144.063 52.8362 144.416 52.8362 144.797V145.667C52.8362 146.178 52.9257 146.612 53.1047 146.97C53.287 147.328 53.5405 147.601 53.8653 147.79C54.1902 147.976 54.5696 148.069 55.0038 148.069C55.2856 148.069 55.5424 148.029 55.7744 147.949C56.0064 147.867 56.207 147.744 56.376 147.581C56.545 147.419 56.6743 147.219 56.7638 146.98L58.1707 147.233C58.058 147.648 57.8559 148.011 57.5642 148.322C57.2759 148.631 56.9129 148.871 56.4754 149.043C56.0412 149.212 55.5457 149.297 54.9889 149.297ZM66.5562 149.297C65.8171 149.297 65.1807 149.129 64.6471 148.795C64.1168 148.456 63.7092 147.991 63.4241 147.398C63.1391 146.804 62.9966 146.125 62.9966 145.359C62.9966 144.584 63.1424 143.899 63.4341 143.306C63.7257 142.709 64.1367 142.244 64.667 141.909C65.1973 141.574 65.8221 141.407 66.5413 141.407C67.1213 141.407 67.6384 141.515 68.0924 141.73C68.5465 141.942 68.9128 142.24 69.1912 142.625C69.4729 143.009 69.6403 143.458 69.6933 143.972H68.2466C68.167 143.614 67.9847 143.306 67.6997 143.047C67.418 142.789 67.0401 142.66 66.5662 142.66C66.1519 142.66 65.7889 142.769 65.4774 142.988C65.1691 143.203 64.9289 143.511 64.7565 143.912C64.5842 144.31 64.498 144.781 64.498 145.324C64.498 145.881 64.5825 146.362 64.7515 146.766C64.9206 147.171 65.1592 147.484 65.4674 147.706C65.779 147.928 66.1452 148.039 66.5662 148.039C66.8479 148.039 67.1031 147.988 67.3318 147.885C67.5638 147.779 67.7577 147.628 67.9135 147.432C68.0726 147.237 68.1836 147.001 68.2466 146.726H69.6933C69.6403 147.22 69.4795 147.661 69.2111 148.049C68.9426 148.437 68.583 148.742 68.1322 148.964C67.6848 149.186 67.1594 149.297 66.5562 149.297ZM73.3653 149.312C72.8814 149.312 72.4439 149.222 72.0528 149.043C71.6617 148.861 71.3518 148.597 71.1231 148.253C70.8977 147.908 70.785 147.485 70.785 146.985C70.785 146.554 70.8679 146.199 71.0336 145.921C71.1993 145.643 71.423 145.422 71.7048 145.26C71.9865 145.097 72.3013 144.975 72.6494 144.892C72.9974 144.809 73.352 144.746 73.7133 144.703C74.1707 144.65 74.5419 144.607 74.8269 144.574C75.112 144.537 75.3191 144.479 75.4484 144.4C75.5776 144.32 75.6423 144.191 75.6423 144.012V143.977C75.6423 143.543 75.5196 143.206 75.2744 142.968C75.0324 142.729 74.6711 142.61 74.1906 142.61C73.6901 142.61 73.2957 142.721 73.0073 142.943C72.7223 143.162 72.5251 143.405 72.4157 143.674L71.0187 143.356C71.1844 142.892 71.4263 142.517 71.7445 142.232C72.066 141.944 72.4356 141.735 72.8532 141.606C73.2708 141.473 73.71 141.407 74.1707 141.407C74.4756 141.407 74.7987 141.443 75.1401 141.516C75.4848 141.586 75.8063 141.715 76.1046 141.904C76.4062 142.093 76.6531 142.363 76.8454 142.714C77.0376 143.062 77.1337 143.515 77.1337 144.072V149.143H75.682V148.099H75.6224C75.5263 148.291 75.3821 148.48 75.1898 148.665C74.9976 148.851 74.7507 149.005 74.4491 149.128C74.1475 149.25 73.7862 149.312 73.3653 149.312ZM73.6884 148.118C74.0994 148.118 74.4507 148.037 74.7424 147.875C75.0374 147.712 75.2611 147.5 75.4136 147.238C75.5693 146.973 75.6472 146.69 75.6472 146.388V145.404C75.5942 145.457 75.4915 145.507 75.339 145.553C75.1898 145.596 75.0192 145.634 74.8269 145.667C74.6347 145.697 74.4474 145.725 74.2651 145.752C74.0828 145.775 73.9304 145.795 73.8077 145.812C73.5194 145.848 73.2559 145.909 73.0173 145.996C72.7819 146.082 72.593 146.206 72.4505 146.368C72.3113 146.528 72.2417 146.74 72.2417 147.005C72.2417 147.373 72.3776 147.651 72.6494 147.84C72.9211 148.026 73.2675 148.118 73.6884 148.118ZM78.9737 149.143V141.506H80.4105V142.719H80.49C80.6292 142.308 80.8745 141.985 81.2258 141.75C81.5804 141.511 81.9815 141.392 82.4289 141.392C82.5217 141.392 82.6311 141.395 82.7571 141.402C82.8863 141.408 82.9874 141.417 83.0603 141.427V142.849C83.0007 142.832 82.8946 142.814 82.7421 142.794C82.5897 142.771 82.4372 142.759 82.2847 142.759C81.9334 142.759 81.6202 142.834 81.3451 142.983C81.0733 143.129 80.8579 143.332 80.6988 143.594C80.5397 143.853 80.4602 144.148 80.4602 144.479V149.143H78.9737ZM86.7919 149.292C86.1755 149.292 85.6253 149.134 85.1414 148.819C84.6608 148.501 84.2829 148.049 84.0078 147.462C83.7361 146.872 83.6002 146.165 83.6002 145.339C83.6002 144.514 83.7377 143.808 84.0128 143.221C84.2912 142.635 84.6724 142.186 85.1563 141.874C85.6402 141.563 86.1887 141.407 86.8019 141.407C87.2758 141.407 87.657 141.486 87.9453 141.645C88.237 141.801 88.4624 141.983 88.6215 142.192C88.7839 142.401 88.9098 142.585 88.9993 142.744H89.0888V138.961H90.5753V149.143H89.1236V147.954H88.9993C88.9098 148.117 88.7806 148.302 88.6115 148.511C88.4458 148.72 88.2171 148.902 87.9255 149.058C87.6338 149.214 87.256 149.292 86.7919 149.292ZM87.1201 148.024C87.5476 148.024 87.9089 147.911 88.2039 147.686C88.5022 147.457 88.7275 147.141 88.88 146.736C89.0358 146.332 89.1137 145.861 89.1137 145.324C89.1137 144.794 89.0374 144.33 88.885 143.932C88.7325 143.535 88.5088 143.225 88.2138 143.003C87.9188 142.781 87.5542 142.67 87.1201 142.67C86.6726 142.67 86.2997 142.786 86.0015 143.018C85.7032 143.25 85.4778 143.566 85.3253 143.967C85.1762 144.368 85.1016 144.821 85.1016 145.324C85.1016 145.835 85.1778 146.294 85.3303 146.702C85.4828 147.109 85.7081 147.432 86.0064 147.671C86.308 147.906 86.6792 148.024 87.1201 148.024ZM99.6867 141.506V142.699H95.5155V141.506H99.6867ZM96.6341 139.677H98.1206V146.9C98.1206 147.189 98.1637 147.406 98.2499 147.552C98.336 147.694 98.4471 147.792 98.583 147.845C98.7222 147.895 98.873 147.92 99.0354 147.92C99.1547 147.92 99.2591 147.911 99.3486 147.895C99.4381 147.878 99.5077 147.865 99.5574 147.855L99.8259 149.083C99.7397 149.116 99.6171 149.149 99.458 149.182C99.2989 149.219 99.1 149.239 98.8614 149.242C98.4703 149.249 98.1057 149.179 97.7676 149.033C97.4296 148.887 97.1561 148.662 96.9473 148.357C96.7385 148.052 96.6341 147.669 96.6341 147.209V139.677ZM104.326 149.297C103.61 149.297 102.985 149.133 102.451 148.805C101.918 148.476 101.503 148.017 101.208 147.427C100.913 146.837 100.766 146.148 100.766 145.359C100.766 144.567 100.913 143.874 101.208 143.281C101.503 142.688 101.918 142.227 102.451 141.899C102.985 141.571 103.61 141.407 104.326 141.407C105.042 141.407 105.666 141.571 106.2 141.899C106.734 142.227 107.148 142.688 107.443 143.281C107.738 143.874 107.885 144.567 107.885 145.359C107.885 146.148 107.738 146.837 107.443 147.427C107.148 148.017 106.734 148.476 106.2 148.805C105.666 149.133 105.042 149.297 104.326 149.297ZM104.331 148.049C104.795 148.049 105.179 147.926 105.484 147.681C105.789 147.436 106.014 147.109 106.16 146.702C106.309 146.294 106.384 145.845 106.384 145.354C106.384 144.867 106.309 144.42 106.16 144.012C106.014 143.601 105.789 143.271 105.484 143.023C105.179 142.774 104.795 142.65 104.331 142.65C103.863 142.65 103.475 142.774 103.167 143.023C102.862 143.271 102.635 143.601 102.486 144.012C102.34 144.42 102.267 144.867 102.267 145.354C102.267 145.845 102.34 146.294 102.486 146.702C102.635 147.109 102.862 147.436 103.167 147.681C103.475 147.926 103.863 148.049 104.331 148.049ZM116.171 152.165C115.565 152.165 115.043 152.086 114.605 151.927C114.171 151.768 113.816 151.557 113.541 151.295C113.266 151.033 113.061 150.747 112.925 150.435L114.203 149.908C114.292 150.054 114.411 150.208 114.561 150.371C114.713 150.536 114.918 150.677 115.177 150.793C115.439 150.909 115.775 150.967 116.186 150.967C116.75 150.967 117.215 150.83 117.583 150.555C117.951 150.283 118.135 149.849 118.135 149.252V147.751H118.041C117.951 147.913 117.822 148.094 117.653 148.292C117.487 148.491 117.258 148.664 116.967 148.809C116.675 148.955 116.296 149.028 115.828 149.028C115.225 149.028 114.681 148.887 114.198 148.606C113.717 148.321 113.336 147.901 113.054 147.348C112.776 146.791 112.637 146.107 112.637 145.295C112.637 144.483 112.774 143.787 113.049 143.206C113.328 142.626 113.709 142.182 114.193 141.874C114.677 141.563 115.225 141.407 115.838 141.407C116.312 141.407 116.695 141.486 116.987 141.645C117.278 141.801 117.505 141.983 117.668 142.192C117.833 142.401 117.961 142.585 118.051 142.744H118.16V141.506H119.617V149.312C119.617 149.968 119.464 150.506 119.159 150.927C118.854 151.348 118.442 151.66 117.921 151.862C117.404 152.064 116.821 152.165 116.171 152.165ZM116.156 147.795C116.584 147.795 116.945 147.696 117.24 147.497C117.538 147.295 117.764 147.006 117.916 146.632C118.072 146.254 118.15 145.802 118.15 145.275C118.15 144.761 118.074 144.309 117.921 143.917C117.769 143.526 117.545 143.221 117.25 143.003C116.955 142.781 116.591 142.67 116.156 142.67C115.709 142.67 115.336 142.786 115.038 143.018C114.739 143.246 114.514 143.558 114.362 143.952C114.213 144.347 114.138 144.787 114.138 145.275C114.138 145.775 114.214 146.214 114.367 146.592C114.519 146.97 114.744 147.265 115.043 147.477C115.344 147.689 115.716 147.795 116.156 147.795ZM124.761 149.297C124.009 149.297 123.361 149.136 122.818 148.814C122.277 148.49 121.86 148.034 121.565 147.447C121.273 146.857 121.127 146.166 121.127 145.374C121.127 144.592 121.273 143.903 121.565 143.306C121.86 142.709 122.271 142.244 122.798 141.909C123.328 141.574 123.948 141.407 124.657 141.407C125.088 141.407 125.506 141.478 125.91 141.621C126.314 141.763 126.677 141.987 126.999 142.292C127.32 142.597 127.574 142.993 127.759 143.48C127.945 143.964 128.038 144.552 128.038 145.245V145.772H121.967V144.658H126.581C126.581 144.267 126.501 143.921 126.342 143.619C126.183 143.314 125.96 143.074 125.671 142.898C125.386 142.723 125.051 142.635 124.667 142.635C124.249 142.635 123.885 142.738 123.573 142.943C123.265 143.145 123.026 143.41 122.857 143.738C122.692 144.063 122.609 144.416 122.609 144.797V145.667C122.609 146.178 122.698 146.612 122.877 146.97C123.059 147.328 123.313 147.601 123.638 147.79C123.963 147.976 124.342 148.069 124.776 148.069C125.058 148.069 125.315 148.029 125.547 147.949C125.779 147.867 125.979 147.744 126.148 147.581C126.318 147.419 126.447 147.219 126.536 146.98L127.943 147.233C127.831 147.648 127.628 148.011 127.337 148.322C127.048 148.631 126.685 148.871 126.248 149.043C125.814 149.212 125.318 149.297 124.761 149.297ZM133.112 141.506V142.699H128.94V141.506H133.112ZM130.059 139.677H131.546V146.9C131.546 147.189 131.589 147.406 131.675 147.552C131.761 147.694 131.872 147.792 132.008 147.845C132.147 147.895 132.298 147.92 132.46 147.92C132.58 147.92 132.684 147.911 132.774 147.895C132.863 147.878 132.933 147.865 132.982 147.855L133.251 149.083C133.165 149.116 133.042 149.149 132.883 149.182C132.724 149.219 132.525 149.239 132.286 149.242C131.895 149.249 131.531 149.179 131.193 149.033C130.855 148.887 130.581 148.662 130.372 148.357C130.163 148.052 130.059 147.669 130.059 147.209V139.677ZM143.903 143.371L142.556 143.609C142.5 143.437 142.41 143.273 142.288 143.117C142.168 142.961 142.006 142.834 141.8 142.734C141.595 142.635 141.338 142.585 141.03 142.585C140.609 142.585 140.258 142.68 139.976 142.868C139.694 143.054 139.553 143.294 139.553 143.589C139.553 143.845 139.648 144.05 139.837 144.206C140.026 144.362 140.33 144.489 140.751 144.589L141.964 144.867C142.667 145.029 143.191 145.28 143.535 145.618C143.88 145.956 144.053 146.395 144.053 146.935C144.053 147.393 143.92 147.8 143.655 148.158C143.393 148.513 143.027 148.791 142.556 148.993C142.089 149.196 141.547 149.297 140.93 149.297C140.075 149.297 139.378 149.114 138.837 148.75C138.297 148.382 137.966 147.86 137.843 147.184L139.28 146.965C139.369 147.34 139.553 147.623 139.832 147.815C140.11 148.004 140.473 148.099 140.92 148.099C141.408 148.099 141.797 147.997 142.089 147.795C142.38 147.59 142.526 147.34 142.526 147.045C142.526 146.806 142.437 146.605 142.258 146.443C142.082 146.281 141.812 146.158 141.447 146.075L140.155 145.792C139.442 145.629 138.915 145.371 138.574 145.016C138.236 144.662 138.067 144.212 138.067 143.669C138.067 143.218 138.193 142.824 138.445 142.486C138.696 142.148 139.044 141.884 139.489 141.695C139.933 141.503 140.441 141.407 141.015 141.407C141.84 141.407 142.49 141.586 142.964 141.944C143.438 142.298 143.751 142.774 143.903 143.371ZM149.112 141.506V142.699H144.94V141.506H149.112ZM146.059 139.677H147.546V146.9C147.546 147.189 147.589 147.406 147.675 147.552C147.761 147.694 147.872 147.792 148.008 147.845C148.147 147.895 148.298 147.92 148.46 147.92C148.58 147.92 148.684 147.911 148.774 147.895C148.863 147.878 148.933 147.865 148.982 147.855L149.251 149.083C149.165 149.116 149.042 149.149 148.883 149.182C148.724 149.219 148.525 149.239 148.286 149.242C147.895 149.249 147.531 149.179 147.193 149.033C146.854 148.887 146.581 148.662 146.372 148.357C146.163 148.052 146.059 147.669 146.059 147.209V139.677ZM152.838 149.312C152.354 149.312 151.917 149.222 151.526 149.043C151.135 148.861 150.825 148.597 150.596 148.253C150.371 147.908 150.258 147.485 150.258 146.985C150.258 146.554 150.341 146.199 150.507 145.921C150.672 145.643 150.896 145.422 151.178 145.26C151.459 145.097 151.774 144.975 152.122 144.892C152.47 144.809 152.825 144.746 153.186 144.703C153.644 144.65 154.015 144.607 154.3 144.574C154.585 144.537 154.792 144.479 154.921 144.4C155.051 144.32 155.115 144.191 155.115 144.012V143.977C155.115 143.543 154.993 143.206 154.747 142.968C154.505 142.729 154.144 142.61 153.664 142.61C153.163 142.61 152.769 142.721 152.48 142.943C152.195 143.162 151.998 143.405 151.889 143.674L150.492 143.356C150.657 142.892 150.899 142.517 151.217 142.232C151.539 141.944 151.909 141.735 152.326 141.606C152.744 141.473 153.183 141.407 153.644 141.407C153.949 141.407 154.272 141.443 154.613 141.516C154.958 141.586 155.279 141.715 155.578 141.904C155.879 142.093 156.126 142.363 156.318 142.714C156.511 143.062 156.607 143.515 156.607 144.072V149.143H155.155V148.099H155.095C154.999 148.291 154.855 148.48 154.663 148.665C154.471 148.851 154.224 149.005 153.922 149.128C153.62 149.25 153.259 149.312 152.838 149.312ZM153.161 148.118C153.572 148.118 153.924 148.037 154.215 147.875C154.51 147.712 154.734 147.5 154.887 147.238C155.042 146.973 155.12 146.69 155.12 146.388V145.404C155.067 145.457 154.964 145.507 154.812 145.553C154.663 145.596 154.492 145.634 154.3 145.667C154.108 145.697 153.92 145.725 153.738 145.752C153.556 145.775 153.403 145.795 153.281 145.812C152.992 145.848 152.729 145.909 152.49 145.996C152.255 146.082 152.066 146.206 151.923 146.368C151.784 146.528 151.715 146.74 151.715 147.005C151.715 147.373 151.851 147.651 152.122 147.84C152.394 148.026 152.74 148.118 153.161 148.118ZM158.447 149.143V141.506H159.883V142.719H159.963C160.102 142.308 160.347 141.985 160.699 141.75C161.053 141.511 161.454 141.392 161.902 141.392C161.995 141.392 162.104 141.395 162.23 141.402C162.359 141.408 162.46 141.417 162.533 141.427V142.849C162.474 142.832 162.368 142.814 162.215 142.794C162.063 142.771 161.91 142.759 161.758 142.759C161.406 142.759 161.093 142.834 160.818 142.983C160.546 143.129 160.331 143.332 160.172 143.594C160.013 143.853 159.933 144.148 159.933 144.479V149.143H158.447ZM167.695 141.506V142.699H163.524V141.506H167.695ZM164.643 139.677H166.129V146.9C166.129 147.189 166.173 147.406 166.259 147.552C166.345 147.694 166.456 147.792 166.592 147.845C166.731 147.895 166.882 147.92 167.044 147.92C167.164 147.92 167.268 147.911 167.357 147.895C167.447 147.878 167.517 147.865 167.566 147.855L167.835 149.083C167.749 149.116 167.626 149.149 167.467 149.182C167.308 149.219 167.109 149.239 166.87 149.242C166.479 149.249 166.115 149.179 165.776 149.033C165.438 148.887 165.165 148.662 164.956 148.357C164.747 148.052 164.643 147.669 164.643 147.209V139.677ZM172.409 149.297C171.657 149.297 171.009 149.136 170.465 148.814C169.925 148.49 169.507 148.034 169.212 147.447C168.921 146.857 168.775 146.166 168.775 145.374C168.775 144.592 168.921 143.903 169.212 143.306C169.507 142.709 169.918 142.244 170.445 141.909C170.976 141.574 171.595 141.407 172.305 141.407C172.735 141.407 173.153 141.478 173.557 141.621C173.962 141.763 174.325 141.987 174.646 142.292C174.968 142.597 175.221 142.993 175.407 143.48C175.592 143.964 175.685 144.552 175.685 145.245V145.772H169.615V144.658H174.229C174.229 144.267 174.149 143.921 173.99 143.619C173.831 143.314 173.607 143.074 173.319 142.898C173.034 142.723 172.699 142.635 172.315 142.635C171.897 142.635 171.532 142.738 171.221 142.943C170.913 143.145 170.674 143.41 170.505 143.738C170.339 144.063 170.256 144.416 170.256 144.797V145.667C170.256 146.178 170.346 146.612 170.525 146.97C170.707 147.328 170.961 147.601 171.285 147.79C171.61 147.976 171.99 148.069 172.424 148.069C172.706 148.069 172.963 148.029 173.195 147.949C173.427 147.867 173.627 147.744 173.796 147.581C173.965 147.419 174.094 147.219 174.184 146.98L175.591 147.233C175.478 147.648 175.276 148.011 174.984 148.322C174.696 148.631 174.333 148.871 173.896 149.043C173.461 149.212 172.966 149.297 172.409 149.297ZM180.053 149.292C179.437 149.292 178.887 149.134 178.403 148.819C177.922 148.501 177.544 148.049 177.269 147.462C176.997 146.872 176.862 146.165 176.862 145.339C176.862 144.514 176.999 143.808 177.274 143.221C177.553 142.635 177.934 142.186 178.418 141.874C178.902 141.563 179.45 141.407 180.063 141.407C180.537 141.407 180.918 141.486 181.207 141.645C181.498 141.801 181.724 141.983 181.883 142.192C182.045 142.401 182.171 142.585 182.261 142.744H182.35V138.961H183.837V149.143H182.385V147.954H182.261C182.171 148.117 182.042 148.302 181.873 148.511C181.707 148.72 181.478 148.902 181.187 149.058C180.895 149.214 180.517 149.292 180.053 149.292ZM180.381 148.024C180.809 148.024 181.17 147.911 181.465 147.686C181.763 147.457 181.989 147.141 182.141 146.736C182.297 146.332 182.375 145.861 182.375 145.324C182.375 144.794 182.299 144.33 182.146 143.932C181.994 143.535 181.77 143.225 181.475 143.003C181.18 142.781 180.816 142.67 180.381 142.67C179.934 142.67 179.561 142.786 179.263 143.018C178.964 143.25 178.739 143.566 178.587 143.967C178.438 144.368 178.363 144.821 178.363 145.324C178.363 145.835 178.439 146.294 178.592 146.702C178.744 147.109 178.969 147.432 179.268 147.671C179.569 147.906 179.941 148.024 180.381 148.024Z" fill="#999999"/>
</svg>
