<svg width="107" height="39" viewBox="0 0 107 39" fill="none" xmlns="http://www.w3.org/2000/svg">
<path fill-rule="evenodd" clip-rule="evenodd" d="M11.5425 0C17.9147 0 23.0802 5.16558 23.0802 11.5379C23.0802 17.91 17.9147 23.0756 11.5425 23.0756C10.1721 23.0756 8.85764 22.8363 7.63812 22.3976V22.4304C7.63812 25.5729 6.66943 35.5265 11.5425 38.8497C2.98797 38.8497 -0.138509 30.0067 0.00468068 22.1081V17.0611C0.228275 17.2512 0.517539 17.3662 0.832429 17.3662H9.92628C10.5538 17.3662 11.0795 16.9091 11.1876 16.3115C11.3047 16.3202 11.4231 16.3246 11.5425 16.3246C14.1861 16.3246 16.3295 14.1813 16.3295 11.5377C16.3295 8.89412 14.1861 6.75076 11.5425 6.75076C11.4231 6.75076 11.3047 6.7554 11.1876 6.76405C11.0797 6.16647 10.554 5.70935 9.92628 5.70935H1.58378C3.587 2.29392 7.29649 0 11.5424 0L11.5425 0Z" fill="white"/>
<path fill-rule="evenodd" clip-rule="evenodd" d="M11.2512 7.47506C13.5028 7.47506 15.3283 9.30066 15.3283 11.5521C15.3283 13.8038 13.5027 15.6292 11.2512 15.6292C10.9997 15.6292 10.7532 15.6063 10.5142 15.5626C10.4459 16.0983 9.98521 16.5164 9.43135 16.5164H1.68627C1.0858 16.5164 0.594727 16.0253 0.594727 15.4247V7.67976C0.594727 7.07913 1.0858 6.58789 1.68627 6.58789H9.43135C9.98521 6.58789 10.4457 7.00577 10.5142 7.54169C10.7532 7.49797 10.9997 7.47506 11.2512 7.47506ZM7.6277 11.5521C7.6277 12.2048 7.09867 12.7339 6.44598 12.7339C5.94738 12.7339 5.52101 12.4251 5.34739 11.9883L4.71649 12.1198L4.37373 12.3435L3.49024 12.5252V10.587L4.37373 10.7688L4.71489 10.9996L5.34355 11.1259C5.51444 10.684 5.9437 10.3703 6.44598 10.3703C7.09867 10.3703 7.6277 10.8993 7.6277 11.552V11.5521ZM11.2512 8.67376C12.8407 8.67376 14.1296 9.96263 14.1296 11.5521C14.1296 13.1416 12.8407 14.4305 11.2512 14.4305C10.9997 14.4305 10.7556 14.3982 10.5231 14.3376V8.76682C10.7556 8.70627 10.9997 8.67392 11.2512 8.67392V8.67376Z" fill="#03045B"/>
<path d="M46.3244 16.4023C45.7417 16.985 45.4503 17.6877 45.4503 18.5101C45.4503 19.3327 45.7418 20.032 46.3244 20.6077C46.9069 21.1835 47.6096 21.4715 48.4322 21.4715C49.2548 21.4715 49.9575 21.1836 50.5402 20.6077C51.1228 20.032 51.414 19.3327 51.414 18.5101C51.414 17.6877 51.1227 16.9848 50.5402 16.4023C49.9575 15.8196 49.255 15.5283 48.4322 15.5283C47.6097 15.5283 46.9069 15.8196 46.3244 16.4023ZM42.6535 18.5101C42.6535 15.4379 45.1463 12.5001 48.432 12.7316C53.1134 13.0612 54.335 16.1808 54.2107 19.843V24.1038H51.4139V23.0755C49.8338 24.4033 46.5638 24.8062 44.35 22.5922C43.219 21.4612 42.6533 20.1006 42.6533 18.5101H42.6535Z" fill="#03045B"/>
<path d="M37.2039 9.70719C38.424 9.70719 39.4659 10.139 40.3296 11.0028C41.1933 11.8664 41.6252 12.9085 41.6252 14.1285C41.6252 15.3486 41.1933 16.3905 40.3296 17.2541C39.4659 18.1179 38.4239 18.5497 37.2039 18.5497H33.0086V24.1021H30.2119V9.70703H37.2039V9.70719ZM37.2039 15.7532C37.6426 15.7532 38.023 15.5921 38.3451 15.2698C38.6673 14.9477 38.8285 14.5673 38.8285 14.1286C38.8285 13.6899 38.6673 13.3095 38.3451 12.9871C38.023 12.665 37.6426 12.5039 37.2039 12.5039H33.0086V15.753H37.2039V15.7532Z" fill="#03045B"/>
<path d="M66.5906 12.8945L62.9097 23.074C62.8547 23.2247 62.7794 23.4305 62.6835 23.691C62.5874 23.9514 62.5019 24.1913 62.4264 24.4108C62.351 24.63 62.2724 24.8357 62.19 25.0277C61.861 25.8777 61.4188 26.5118 60.8637 26.93C60.3084 27.3479 59.6057 27.5571 58.7557 27.5571H55.5889V24.7192H58.3856C58.7421 24.7192 58.9921 24.6473 59.1361 24.5033C59.2801 24.3595 59.4137 24.1161 59.5372 23.7733L55.5889 12.8947H58.5707L58.653 13.1415L59.6812 15.9382L61.1001 19.8455L62.9303 14.7661L63.609 12.8947H66.5908L66.5906 12.8945Z" fill="#03045B"/>
<path d="M87.1547 11.7646C86.7024 11.6137 86.2739 11.5178 85.8695 11.4766C85.4651 11.4354 85.088 11.4423 84.7385 11.4973C84.3889 11.552 84.1182 11.6994 83.9263 11.9393C83.7343 12.1792 83.659 12.498 83.7002 12.8955H87.155V15.3429H83.7002V24.1033H80.9033V12.6282C80.9033 11.7508 81.1466 11.0038 81.6334 10.3868C82.12 9.76984 82.7609 9.34475 83.5562 9.11187C84.1594 8.97477 84.7695 8.92335 85.3864 8.95747C86.0034 8.99175 86.593 9.07071 87.155 9.19404V11.7646H87.1547Z" fill="#03045B"/>
<path d="M91.2679 19.9685C91.2266 20.3661 91.2746 20.7019 91.4117 20.9763C91.5488 21.2505 91.7509 21.4424 92.0183 21.5519C92.2856 21.6617 92.6043 21.7097 92.9745 21.6961C93.3446 21.6823 93.749 21.607 94.1877 21.4698V24.0198C92.9128 24.3076 91.8914 24.3419 91.1236 24.1226C90.3283 23.8896 89.6873 23.461 89.2007 22.8375C88.7143 22.2139 88.4707 21.4699 88.4707 20.6062V11.6992H91.2676V12.8946H94.1876V15.3419H91.2676V19.9688L91.2679 19.9685Z" fill="#03045B"/>
<path d="M70.6912 16.4023C70.1085 16.985 69.8172 17.6877 69.8172 18.5101C69.8172 19.3327 70.1085 20.032 70.6912 20.6077C71.2739 21.1835 71.9766 21.4715 72.799 21.4715C73.6217 21.4715 74.3242 21.1836 74.907 20.6077C75.4895 20.032 75.7809 19.3327 75.7809 18.5101C75.7809 17.6877 75.4895 16.9848 74.907 16.4023C74.3242 15.8196 73.6217 15.5283 72.799 15.5283C71.9766 15.5283 71.2738 15.8196 70.6912 16.4023ZM67.0205 18.5101C67.0205 15.4379 69.5134 12.5001 72.799 12.7316C77.4804 13.0612 78.702 16.1808 78.5777 19.843V24.1038H75.7809V23.0755C74.2008 24.4033 70.9307 24.8062 68.717 22.5922C67.5861 21.4612 67.0205 20.1006 67.0205 18.5101Z" fill="#03045B"/>
<path d="M98.9198 16.4023C98.3371 16.985 98.0457 17.6877 98.0457 18.5101C98.0457 19.3327 98.3371 20.032 98.9198 20.6077C99.5024 21.1835 100.205 21.4715 101.028 21.4715C101.85 21.4715 102.553 21.1836 103.136 20.6077C103.718 20.032 104.009 19.3327 104.009 18.5101C104.009 17.6877 103.718 16.9848 103.136 16.4023C102.553 15.8196 101.85 15.5283 101.028 15.5283C100.205 15.5283 99.5023 15.8196 98.9198 16.4023ZM95.249 18.5101C95.249 15.4379 97.7419 12.5001 101.028 12.7316C105.709 13.0612 106.931 16.1808 106.806 19.843V24.1038H104.009V23.0755C102.429 24.4033 99.1592 24.8062 96.9455 22.5922C95.8146 21.4612 95.249 20.1006 95.249 18.5101Z" fill="#03045B"/>
<path d="M79.0283 28.2146H78.3805V29.0723H78.097V26.5252H79.0283C79.3056 26.5252 79.5105 26.5927 79.643 26.7276C79.7755 26.8626 79.8417 27.0687 79.8417 27.346C79.8417 27.9251 79.5706 28.2146 79.0283 28.2146ZM78.3805 27.9644H79.0246C79.3755 27.9644 79.5509 27.7582 79.5509 27.346C79.5509 27.1497 79.5092 27.0061 79.4258 26.9153C79.3424 26.8221 79.2086 26.7755 79.0246 26.7755H78.3805V27.9644ZM80.1357 28.1484C80.1357 27.8122 80.1958 27.5693 80.3161 27.4196C80.4363 27.2699 80.6387 27.1951 80.9234 27.1951C81.2105 27.1951 81.4129 27.2699 81.5307 27.4196C81.6509 27.5693 81.7111 27.8122 81.7111 28.1484C81.7111 28.4846 81.6546 28.7287 81.5418 28.8809C81.4289 29.033 81.2228 29.1091 80.9234 29.1091C80.624 29.1091 80.4179 29.033 80.305 28.8809C80.1921 28.7287 80.1357 28.4846 80.1357 28.1484ZM80.4191 28.1447C80.4191 28.4122 80.451 28.5999 80.5148 28.7079C80.5811 28.8158 80.7173 28.8698 80.9234 28.8698C81.132 28.8698 81.2681 28.8171 81.3319 28.7116C81.3957 28.6036 81.4276 28.4146 81.4276 28.1447C81.4276 27.8748 81.3921 27.6895 81.3209 27.5889C81.2497 27.4859 81.1172 27.4343 80.9234 27.4343C80.732 27.4343 80.5995 27.4859 80.5259 27.5889C80.4547 27.6895 80.4191 27.8748 80.4191 28.1447ZM81.9924 27.2319H82.2685L82.6402 28.833H82.6991L83.1371 27.2687H83.4242L83.8622 28.833H83.9248L84.2929 27.2319H84.569L84.1309 29.0723H83.6708L83.2807 27.6331L82.8905 29.0723H82.4304L81.9924 27.2319ZM86.1805 28.8441L86.2873 28.833L86.2946 29.0502C86.0149 29.0894 85.7756 29.1091 85.5769 29.1091C85.3119 29.1091 85.1241 29.033 85.0137 28.8809C84.9033 28.7263 84.8481 28.487 84.8481 28.1631C84.8481 27.5178 85.1045 27.1951 85.6174 27.1951C85.8652 27.1951 86.0505 27.265 86.1732 27.4049C86.2959 27.5423 86.3572 27.7595 86.3572 28.0564L86.3425 28.2662H85.1278C85.1278 28.4698 85.1646 28.6208 85.2382 28.7189C85.3119 28.8171 85.4395 28.8661 85.621 28.8661C85.8051 28.8661 85.9916 28.8588 86.1805 28.8441ZM86.0811 28.0453C86.0811 27.8196 86.0443 27.6601 85.9707 27.5668C85.8996 27.4736 85.7818 27.427 85.6174 27.427C85.4554 27.427 85.3327 27.476 85.2493 27.5742C85.1683 27.6723 85.1266 27.8294 85.1241 28.0453H86.0811ZM86.7874 29.0723V27.2319H87.0598V27.4822C87.2733 27.3349 87.4978 27.238 87.7334 27.1914V27.4711C87.6303 27.4908 87.5223 27.5214 87.4095 27.5632C87.299 27.6049 87.2144 27.6417 87.1555 27.6736L87.0635 27.7214V29.0723H86.7874ZM89.2754 28.8441L89.3821 28.833L89.3895 29.0502C89.1098 29.0894 88.8705 29.1091 88.6717 29.1091C88.4067 29.1091 88.219 29.033 88.1086 28.8809C87.9982 28.7263 87.9429 28.487 87.9429 28.1631C87.9429 27.5178 88.1994 27.1951 88.7122 27.1951C88.9601 27.1951 89.1453 27.265 89.268 27.4049C89.3907 27.5423 89.4521 27.7595 89.4521 28.0564L89.4373 28.2662H88.2227C88.2227 28.4698 88.2595 28.6208 88.3331 28.7189C88.4067 28.8171 88.5343 28.8661 88.7159 28.8661C88.8999 28.8661 89.0864 28.8588 89.2754 28.8441ZM89.176 28.0453C89.176 27.8196 89.1392 27.6601 89.0656 27.5668C88.9944 27.4736 88.8766 27.427 88.7122 27.427C88.5503 27.427 88.4276 27.476 88.3442 27.5742C88.2632 27.6723 88.2215 27.8294 88.219 28.0453H89.176ZM91.2957 26.4295V29.0723H91.0233V28.9471C90.8344 29.0551 90.6479 29.1091 90.4638 29.1091C90.3657 29.1091 90.2798 29.0968 90.2062 29.0723C90.1326 29.0477 90.0639 29.0036 90.0001 28.9398C89.8676 28.8073 89.8013 28.5631 89.8013 28.2073C89.8013 27.849 89.8602 27.5914 89.978 27.4343C90.0982 27.2748 90.2958 27.1951 90.5706 27.1951C90.7129 27.1951 90.8638 27.211 91.0233 27.2429V26.4295H91.2957ZM90.2135 28.741C90.2528 28.7876 90.2945 28.8195 90.3387 28.8367C90.3829 28.8539 90.4393 28.8625 90.508 28.8625C90.5792 28.8625 90.6577 28.8514 90.7436 28.8293C90.8319 28.8048 90.9006 28.7815 90.9497 28.7594L91.0233 28.7263V27.4785C90.8663 27.449 90.7203 27.4343 90.5853 27.4343C90.3988 27.4343 90.2688 27.4944 90.1951 27.6147C90.1215 27.7325 90.0847 27.9165 90.0847 28.1668C90.0847 28.4514 90.1277 28.6428 90.2135 28.741ZM93.4527 27.1951C93.7005 27.1951 93.8735 27.2662 93.9717 27.4086C94.0723 27.5484 94.1226 27.795 94.1226 28.1484C94.1226 28.5017 94.06 28.7508 93.9349 28.8956C93.8122 29.0379 93.5852 29.1091 93.2539 29.1091C93.1509 29.1091 92.9803 29.0993 92.7423 29.0796L92.6393 29.0686V26.4295H92.9116V27.3239C93.0981 27.238 93.2785 27.1951 93.4527 27.1951ZM93.2503 28.8625C93.4907 28.8625 93.649 28.8085 93.7251 28.7005C93.8036 28.5901 93.8429 28.4048 93.8429 28.1447C93.8429 27.8846 93.8122 27.703 93.7508 27.6C93.6895 27.4944 93.5803 27.4417 93.4233 27.4417C93.2809 27.4417 93.1349 27.4687 92.9853 27.5227L92.9116 27.5484V28.8441C93.0711 28.8563 93.184 28.8625 93.2503 28.8625ZM94.3713 27.2319H94.6474L95.1075 28.833H95.229L95.6927 27.2319H95.9688L95.2032 29.8894H94.9271L95.1664 29.0723H94.894L94.3713 27.2319ZM98.7188 29.0318C98.466 29.0833 98.2391 29.1091 98.0378 29.1091C97.8366 29.1091 97.6735 29.0821 97.5483 29.0281C97.4256 28.9717 97.3299 28.8858 97.2612 28.7704C97.195 28.6527 97.1483 28.5189 97.1213 28.3692C97.0968 28.2171 97.0845 28.0282 97.0845 27.8024C97.0845 27.5766 97.0968 27.3877 97.1213 27.2356C97.1483 27.081 97.195 26.9448 97.2612 26.827C97.3299 26.7092 97.4256 26.6233 97.5483 26.5693C97.671 26.5154 97.8305 26.4884 98.0268 26.4884C98.2231 26.4884 98.4538 26.5154 98.7188 26.5693L98.7077 26.8086C98.4599 26.7644 98.2391 26.7423 98.0452 26.7423C97.7753 26.7423 97.5962 26.8233 97.5078 26.9853C97.4219 27.1448 97.379 27.4184 97.379 27.8061C97.379 27.9999 97.3864 28.1558 97.4011 28.2735C97.4183 28.3913 97.4502 28.4981 97.4968 28.5938C97.5434 28.687 97.6109 28.7545 97.6992 28.7962C97.79 28.8355 97.9213 28.8551 98.0931 28.8551C98.2673 28.8551 98.4722 28.833 98.7077 28.7888L98.7188 29.0318ZM100.434 27.7877V28.73C100.441 28.8207 100.512 28.8747 100.647 28.8919L100.636 29.1091C100.442 29.1091 100.296 29.06 100.198 28.9618C99.9774 29.06 99.7566 29.1091 99.5357 29.1091C99.3664 29.1091 99.2376 29.0612 99.1492 28.9655C99.0609 28.8698 99.0167 28.7324 99.0167 28.5533C99.0167 28.3741 99.0621 28.2429 99.1529 28.1594C99.2437 28.0736 99.386 28.0208 99.5799 28.0012L100.158 27.946V27.7877C100.158 27.6625 100.131 27.573 100.077 27.519C100.023 27.465 99.9492 27.438 99.8559 27.438C99.6596 27.438 99.456 27.4503 99.2449 27.4748L99.1308 27.4859L99.1198 27.2761C99.3897 27.2221 99.629 27.1951 99.8375 27.1951C100.046 27.1951 100.197 27.2429 100.29 27.3386C100.386 27.4343 100.434 27.584 100.434 27.7877ZM99.3002 28.5386C99.3002 28.7643 99.3934 28.8772 99.5799 28.8772C99.7468 28.8772 99.9112 28.849 100.073 28.7925L100.158 28.7631V28.1558L99.613 28.2073C99.5026 28.2171 99.4228 28.249 99.3738 28.303C99.3247 28.357 99.3002 28.4355 99.3002 28.5386ZM101.556 27.4417C101.289 27.4417 101.155 27.5349 101.155 27.7214C101.155 27.8073 101.186 27.8687 101.247 27.9055C101.309 27.9398 101.448 27.9766 101.667 28.0159C101.885 28.0527 102.04 28.1055 102.131 28.1742C102.221 28.2429 102.267 28.3717 102.267 28.5606C102.267 28.7496 102.205 28.8882 102.083 28.9766C101.962 29.0649 101.786 29.1091 101.553 29.1091C101.401 29.1091 101.221 29.0919 101.015 29.0575L100.905 29.0391L100.92 28.7999C101.199 28.8416 101.41 28.8625 101.553 28.8625C101.695 28.8625 101.803 28.8404 101.877 28.7962C101.953 28.7496 101.991 28.6735 101.991 28.568C101.991 28.46 101.959 28.3876 101.895 28.3508C101.831 28.3116 101.691 28.2748 101.475 28.2404C101.259 28.2061 101.106 28.1558 101.015 28.0895C100.925 28.0232 100.879 27.9006 100.879 27.7214C100.879 27.5423 100.942 27.4098 101.067 27.3239C101.194 27.238 101.353 27.1951 101.542 27.1951C101.691 27.1951 101.879 27.2123 102.105 27.2466L102.208 27.265L102.201 27.5006C101.928 27.4613 101.713 27.4417 101.556 27.4417ZM102.966 29.0723H102.689V26.4295H102.966V27.3349C103.162 27.2417 103.351 27.1951 103.532 27.1951C103.778 27.1951 103.942 27.2613 104.026 27.3938C104.111 27.5263 104.154 27.7619 104.154 28.1005V29.0723H103.878V28.1079C103.878 27.8527 103.853 27.6785 103.801 27.5852C103.752 27.4895 103.646 27.4417 103.485 27.4417C103.33 27.4417 103.18 27.4699 103.035 27.5263L102.966 27.5521V29.0723ZM104.666 29.0723V27.2319H104.943V29.0723H104.666ZM104.666 26.816V26.4957H104.943V26.816H104.666ZM106.771 27.7877V28.73C106.778 28.8207 106.849 28.8747 106.984 28.8919L106.973 29.1091C106.78 29.1091 106.634 29.06 106.535 28.9618C106.315 29.06 106.094 29.1091 105.873 29.1091C105.704 29.1091 105.575 29.0612 105.486 28.9655C105.398 28.8698 105.354 28.7324 105.354 28.5533C105.354 28.3741 105.399 28.2429 105.49 28.1594C105.581 28.0736 105.723 28.0208 105.917 28.0012L106.495 27.946V27.7877C106.495 27.6625 106.468 27.573 106.414 27.519C106.36 27.465 106.286 27.438 106.193 27.438C105.997 27.438 105.793 27.4503 105.582 27.4748L105.468 27.4859L105.457 27.2761C105.727 27.2221 105.966 27.1951 106.175 27.1951C106.383 27.1951 106.534 27.2429 106.627 27.3386C106.723 27.4343 106.771 27.584 106.771 27.7877ZM105.637 28.5386C105.637 28.7643 105.73 28.8772 105.917 28.8772C106.084 28.8772 106.248 28.849 106.41 28.7925L106.495 28.7631V28.1558L105.95 28.2073C105.84 28.2171 105.76 28.249 105.711 28.303C105.662 28.357 105.637 28.4355 105.637 28.5386Z" fill="#03045B"/>
</svg>
