<svg width="40" height="40" viewBox="0 0 40 40" fill="none" xmlns="http://www.w3.org/2000/svg">
<rect width="40" height="40" rx="20" fill="#E9F5FB"/>
<path opacity="0.4" d="M28.6842 17.8722L17.4535 12.2603C15.4561 11.2622 13.3068 13.3147 14.2138 15.3542L15.8502 19.0338C16.1237 19.6489 16.1237 20.3511 15.8502 20.9662L14.2138 24.6458C13.3068 26.6853 15.4561 28.7378 17.4535 27.7397L28.6842 22.1278C30.4386 21.2511 30.4386 18.7489 28.6842 17.8722Z" fill="#185E81"/>
<path fill-rule="evenodd" clip-rule="evenodd" d="M15.75 20C15.75 19.5858 16.0858 19.25 16.5 19.25H20C20.4142 19.25 20.75 19.5858 20.75 20C20.75 20.4142 20.4142 20.75 20 20.75H16.5C16.0858 20.75 15.75 20.4142 15.75 20Z" fill="#185E81"/>
<path fill-rule="evenodd" clip-rule="evenodd" d="M9.25 18C9.25 17.5858 9.58579 17.25 10 17.25H12C12.4142 17.25 12.75 17.5858 12.75 18C12.75 18.4142 12.4142 18.75 12 18.75H10C9.58579 18.75 9.25 18.4142 9.25 18Z" fill="#185E81"/>
<path fill-rule="evenodd" clip-rule="evenodd" d="M9.25 22C9.25 21.5858 9.58579 21.25 10 21.25H12C12.4142 21.25 12.75 21.5858 12.75 22C12.75 22.4142 12.4142 22.75 12 22.75H10C9.58579 22.75 9.25 22.4142 9.25 22Z" fill="#185E81"/>
</svg>
