<svg width="49" height="48" viewBox="0 0 49 48" fill="none" xmlns="http://www.w3.org/2000/svg">
<rect x="0.5" width="48" height="48" rx="24" fill="#FCE9E9"/>
<path opacity="0.4" d="M14.5 20C14.5 17.7909 16.2909 16 18.5 16H30.5C32.7091 16 34.5 17.7909 34.5 20V28C34.5 30.2091 32.7091 32 30.5 32H18.5C16.2909 32 14.5 30.2091 14.5 28V20Z" fill="#D42620"/>
<circle cx="1" cy="1" r="1" transform="matrix(1 0 0 -1 17.5 21)" fill="#D42620"/>
<circle cx="2" cy="2" r="2" transform="matrix(1 0 0 -1 22.5 26)" fill="#D42620"/>
<path fill-rule="evenodd" clip-rule="evenodd" d="M31.75 27.3964L31.0303 28.1161C30.7374 28.409 30.2626 28.409 29.9697 28.1161C29.6768 27.8232 29.6768 27.3483 29.9697 27.0555L31.2626 25.7626C31.946 25.0791 33.054 25.0791 33.7374 25.7626L35.0303 27.0555C35.3232 27.3483 35.3232 27.8232 35.0303 28.1161C34.7374 28.409 34.2626 28.409 33.9697 28.1161L33.25 27.3964V32C33.25 32.4142 32.9142 32.75 32.5 32.75C32.0858 32.75 31.75 32.4142 31.75 32V27.3964Z" fill="#D42620"/>
</svg>
