<svg width="36" height="36" viewBox="0 0 36 36" fill="none" xmlns="http://www.w3.org/2000/svg">
<rect width="36" height="36" rx="18" fill="#86C8E9"/>
<path d="M26.8721 18.25C26.8721 22.6094 23.6729 26.2305 19.4893 26.8633V20.7812H21.5283L21.915 18.25H19.4893V16.6328C19.4893 15.9297 19.8408 15.2617 20.9307 15.2617H22.0205V13.1172C22.0205 13.1172 21.0361 12.9414 20.0518 12.9414C18.083 12.9414 16.7822 14.1719 16.7822 16.3516V18.25H14.5674V20.7812H16.7822V26.8633C12.5986 26.2305 9.43457 22.6094 9.43457 18.25C9.43457 13.4336 13.3369 9.53125 18.1533 9.53125C22.9697 9.53125 26.8721 13.4336 26.8721 18.25Z" fill="white"/>
</svg>
