<svg width="36" height="36" viewBox="0 0 36 36" fill="none" xmlns="http://www.w3.org/2000/svg">
<rect width="36" height="36" rx="18" fill="#86C8E9"/>
<path d="M18.1973 14.207C20.4121 14.207 22.2402 16.0352 22.2402 18.25C22.2402 20.5 20.4121 22.293 18.1973 22.293C15.9473 22.293 14.1543 20.5 14.1543 18.25C14.1543 16.0352 15.9473 14.207 18.1973 14.207ZM18.1973 20.8867C19.6387 20.8867 20.7988 19.7266 20.7988 18.25C20.7988 16.8086 19.6387 15.6484 18.1973 15.6484C16.7207 15.6484 15.5605 16.8086 15.5605 18.25C15.5605 19.7266 16.7559 20.8867 18.1973 20.8867ZM23.3301 14.0664C23.3301 14.5938 22.9082 15.0156 22.3809 15.0156C21.8535 15.0156 21.4316 14.5938 21.4316 14.0664C21.4316 13.5391 21.8535 13.1172 22.3809 13.1172C22.9082 13.1172 23.3301 13.5391 23.3301 14.0664ZM26.002 15.0156C26.0723 16.3164 26.0723 20.2188 26.002 21.5195C25.9316 22.7852 25.6504 23.875 24.7363 24.8242C23.8223 25.7383 22.6973 26.0195 21.4316 26.0898C20.1309 26.1602 16.2285 26.1602 14.9277 26.0898C13.6621 26.0195 12.5723 25.7383 11.623 24.8242C10.709 23.875 10.4277 22.7852 10.3574 21.5195C10.2871 20.2188 10.2871 16.3164 10.3574 15.0156C10.4277 13.75 10.709 12.625 11.623 11.7109C12.5723 10.7969 13.6621 10.5156 14.9277 10.4453C16.2285 10.375 20.1309 10.375 21.4316 10.4453C22.6973 10.5156 23.8223 10.7969 24.7363 11.7109C25.6504 12.625 25.9316 13.75 26.002 15.0156ZM24.3145 22.8906C24.7363 21.8711 24.6309 19.4102 24.6309 18.25C24.6309 17.125 24.7363 14.6641 24.3145 13.6094C24.0332 12.9414 23.5059 12.3789 22.8379 12.1328C21.7832 11.7109 19.3223 11.8164 18.1973 11.8164C17.0371 11.8164 14.5762 11.7109 13.5566 12.1328C12.8535 12.4141 12.3262 12.9414 12.0449 13.6094C11.623 14.6641 11.7285 17.125 11.7285 18.25C11.7285 19.4102 11.623 21.8711 12.0449 22.8906C12.3262 23.5938 12.8535 24.1211 13.5566 24.4023C14.5762 24.8242 17.0371 24.7188 18.1973 24.7188C19.3223 24.7188 21.7832 24.8242 22.8379 24.4023C23.5059 24.1211 24.0684 23.5938 24.3145 22.8906Z" fill="white"/>
</svg>
