<svg width="36" height="36" viewBox="0 0 36 36" fill="none" xmlns="http://www.w3.org/2000/svg">
<rect width="36" height="36" rx="18" fill="#86C8E9"/>
<path d="M24.9473 10.375C25.5449 10.375 26.0723 10.9023 26.0723 11.5352V25C26.0723 25.6328 25.5449 26.125 24.9473 26.125H11.4121C10.8145 26.125 10.3223 25.6328 10.3223 25V11.5352C10.3223 10.9023 10.8145 10.375 11.4121 10.375H24.9473ZM15.0684 23.875V16.3867H12.748V23.875H15.0684ZM13.9082 15.332C14.6465 15.332 15.2441 14.7344 15.2441 13.9961C15.2441 13.2578 14.6465 12.625 13.9082 12.625C13.1348 12.625 12.5371 13.2578 12.5371 13.9961C12.5371 14.7344 13.1348 15.332 13.9082 15.332ZM23.8223 23.875V19.7617C23.8223 17.7578 23.3652 16.1758 21.0098 16.1758C19.8848 16.1758 19.1113 16.8086 18.7949 17.4062H18.7598V16.3867H16.5449V23.875H18.8652V20.1836C18.8652 19.1992 19.041 18.25 20.2715 18.25C21.4668 18.25 21.4668 19.375 21.4668 20.2188V23.875H23.8223Z" fill="white"/>
</svg>
