<svg width="111" height="40" viewBox="0 0 111 40" fill="none" xmlns="http://www.w3.org/2000/svg">
<path fill-rule="evenodd" clip-rule="evenodd" d="M11.8843 0C18.4451 0 23.7636 5.31852 23.7636 11.8795C23.7636 18.4403 18.4451 23.7588 11.8843 23.7588C10.4733 23.7588 9.11991 23.5124 7.86428 23.0607V23.0945C7.86428 26.3301 6.8669 36.5784 11.8843 40C3.07644 40 -0.142611 30.8951 0.00481927 22.7627V17.5663C0.235034 17.762 0.532863 17.8804 0.857077 17.8804H10.2202C10.8663 17.8804 11.4075 17.4098 11.5189 16.7945C11.6394 16.8034 11.7613 16.808 11.8843 16.808C14.6061 16.808 16.813 14.6012 16.813 11.8793C16.813 9.15747 14.6061 6.95064 11.8843 6.95064C11.7613 6.95064 11.6394 6.95543 11.5189 6.96433C11.4077 6.34905 10.8665 5.8784 10.2202 5.8784H1.63067C3.6932 2.36185 7.51253 0 11.8841 0L11.8843 0Z" fill="#86C8E9"/>
<path fill-rule="evenodd" clip-rule="evenodd" d="M11.5843 7.69571C13.9026 7.69571 15.7821 9.57536 15.7821 11.8935C15.7821 14.2118 13.9024 16.0913 11.5843 16.0913C11.3254 16.0913 11.0716 16.0677 10.8255 16.0227C10.7551 16.5743 10.2808 17.0047 9.71057 17.0047H1.73617C1.11792 17.0047 0.612305 16.4991 0.612305 15.8807V7.90647C0.612305 7.28805 1.11792 6.78227 1.73617 6.78227H9.71057C10.2808 6.78227 10.755 7.21252 10.8255 7.76431C11.0716 7.71929 11.3254 7.69571 11.5843 7.69571ZM7.85352 11.8935C7.85352 12.5655 7.30882 13.1102 6.63681 13.1102C6.12345 13.1102 5.68445 12.7923 5.50569 12.3426L4.85611 12.4779L4.5032 12.7083L3.59355 12.8953V10.8998L4.5032 11.0869L4.85446 11.3246L5.50173 11.4547C5.67769 10.9997 6.11965 10.6766 6.63681 10.6766C7.30882 10.6766 7.85352 11.2213 7.85352 11.8933V11.8935ZM11.5843 8.9299C13.2209 8.9299 14.5479 10.2569 14.5479 11.8935C14.5479 13.5301 13.2209 14.8571 11.5843 14.8571C11.3254 14.8571 11.0741 14.8238 10.8346 14.7615V9.02571C11.0741 8.96338 11.3254 8.93007 11.5843 8.93007V8.9299Z" fill="#03045B"/>
<path d="M47.6958 16.8867C47.0958 17.4867 46.7958 18.2101 46.7958 19.0569C46.7958 19.9039 47.096 20.6239 47.6958 21.2166C48.2955 21.8095 49.019 22.106 49.866 22.106C50.713 22.106 51.4364 21.8096 52.0364 21.2166C52.6363 20.6239 52.9361 19.9039 52.9361 19.0569C52.9361 18.2101 52.6361 17.4865 52.0364 16.8867C51.4364 16.2868 50.7131 15.9868 49.866 15.9868C49.0192 15.9868 48.2955 16.2868 47.6958 16.8867ZM43.9162 19.0569C43.9162 15.8938 46.4828 12.869 49.8658 13.1073C54.6858 13.4467 55.9436 16.6587 55.8156 20.4293V24.8163H52.936V23.7576C51.3091 25.1247 47.9423 25.5394 45.6629 23.2599C44.4985 22.0954 43.916 20.6945 43.916 19.0569H43.9162Z" fill="#03045B"/>
<path d="M38.3054 9.99497C39.5617 9.99497 40.6345 10.4396 41.5237 11.3289C42.413 12.2181 42.8576 13.291 42.8576 14.5472C42.8576 15.8034 42.413 16.8762 41.5237 17.7654C40.6345 18.6547 39.5616 19.0993 38.3054 19.0993H33.9859V24.8161H31.1064V9.9948H38.3054V9.99497ZM38.3054 16.22C38.7571 16.22 39.1488 16.0541 39.4804 15.7223C39.8122 15.3907 39.9781 14.999 39.9781 14.5473C39.9781 14.0956 39.8122 13.704 39.4804 13.372C39.1488 13.0404 38.7571 12.8745 38.3054 12.8745H33.9859V16.2198H38.3054V16.22Z" fill="#03045B"/>
<path d="M68.5619 13.2767L64.7719 23.7576C64.7154 23.9127 64.6379 24.1247 64.5391 24.3928C64.4401 24.6609 64.3521 24.908 64.2744 25.1339C64.1967 25.3597 64.1158 25.5714 64.031 25.7691C63.6923 26.6443 63.2369 27.2972 62.6654 27.7278C62.0936 28.158 61.3702 28.3734 60.495 28.3734H57.2344V25.4515H60.1139C60.481 25.4515 60.7384 25.3775 60.8866 25.2292C61.0349 25.0811 61.1724 24.8305 61.2996 24.4776L57.2344 13.2768H60.3045L60.3893 13.531L61.4478 16.4105L62.9088 20.4335L64.7932 15.2037L65.4919 13.2768H68.5621L68.5619 13.2767Z" fill="#03045B"/>
<path d="M89.7353 12.1122C89.2696 11.9569 88.8284 11.8581 88.412 11.8157C87.9956 11.7734 87.6074 11.7804 87.2476 11.837C86.8876 11.8934 86.6089 12.0451 86.4113 12.2922C86.2136 12.5392 86.1361 12.8674 86.1785 13.2767H89.7356V15.7965H86.1785V24.8163H83.2988V13.0014C83.2988 12.0981 83.5493 11.3289 84.0505 10.6937C84.5515 10.0584 85.2115 9.62078 86.0302 9.381C86.6513 9.23983 87.2794 9.1869 87.9147 9.22202C88.5499 9.25732 89.1569 9.33862 89.7356 9.4656V12.1122H89.7353Z" fill="#03045B"/>
<path d="M93.9698 20.5604C93.9273 20.9698 93.9768 21.3156 94.1179 21.5981C94.2591 21.8804 94.4672 22.0779 94.7424 22.1907C95.0177 22.3037 95.3458 22.3532 95.727 22.3392C96.1081 22.325 96.5245 22.2475 96.9762 22.1062V24.7317C95.6635 25.028 94.6118 25.0633 93.8213 24.8376C93.0025 24.5976 92.3425 24.1563 91.8415 23.5143C91.3407 22.8723 91.0898 22.1063 91.0898 21.217V12.0463H93.9695V13.277H96.976V15.7968H93.9695V20.5608L93.9698 20.5604Z" fill="#03045B"/>
<path d="M72.7853 16.8867C72.1853 17.4867 71.8854 18.2101 71.8854 19.0569C71.8854 19.9039 72.1853 20.6239 72.7853 21.2166C73.3852 21.8095 74.1087 22.106 74.9555 22.106C75.8025 22.106 76.5258 21.8096 77.1259 21.2166C77.7257 20.6239 78.0256 19.9039 78.0256 19.0569C78.0256 18.2101 77.7257 17.4865 77.1259 16.8867C76.5258 16.2868 75.8025 15.9868 74.9555 15.9868C74.1087 15.9868 73.3851 16.2868 72.7853 16.8867ZM69.0059 19.0569C69.0059 15.8938 71.5725 12.869 74.9555 13.1073C79.7755 13.4467 81.0333 16.6587 80.9053 20.4293V24.8163H78.0256V23.7576C76.3988 25.1247 73.0318 25.5394 70.7526 23.2599C69.5882 22.0954 69.0059 20.6945 69.0059 19.0569Z" fill="#03045B"/>
<path d="M101.849 16.8867C101.249 17.4867 100.949 18.2101 100.949 19.0569C100.949 19.9039 101.249 20.6239 101.849 21.2166C102.449 21.8095 103.172 22.106 104.019 22.106C104.866 22.106 105.589 21.8096 106.189 21.2166C106.789 20.6239 107.089 19.9039 107.089 19.0569C107.089 18.2101 106.789 17.4865 106.189 16.8867C105.589 16.2868 104.866 15.9868 104.019 15.9868C103.172 15.9868 102.449 16.2868 101.849 16.8867ZM98.0693 19.0569C98.0693 15.8938 100.636 12.869 104.019 13.1073C108.839 13.4467 110.097 16.6587 109.969 20.4293V24.8163H107.089V23.7576C105.462 25.1247 102.095 25.5394 99.8161 23.2599C98.6516 22.0954 98.0693 20.6945 98.0693 19.0569Z" fill="#03045B"/>
<path d="M81.3678 28.9314H80.7009V29.8144H80.409V27.1919H81.3678C81.6533 27.1919 81.8643 27.2614 82.0007 27.4003C82.1372 27.5393 82.2054 27.7515 82.2054 28.037C82.2054 28.6333 81.9262 28.9314 81.3678 28.9314ZM80.7009 28.6737H81.3641C81.7253 28.6737 81.906 28.4615 81.906 28.037C81.906 27.8349 81.863 27.6871 81.7771 27.5936C81.6912 27.4976 81.5535 27.4496 81.3641 27.4496H80.7009V28.6737ZM82.5081 28.8632C82.5081 28.517 82.57 28.2669 82.6938 28.1128C82.8176 27.9587 83.026 27.8816 83.3191 27.8816C83.6147 27.8816 83.8231 27.9587 83.9444 28.1128C84.0682 28.2669 84.1301 28.517 84.1301 28.8632C84.1301 29.2093 84.072 29.4607 83.9557 29.6173C83.8395 29.774 83.6273 29.8523 83.3191 29.8523C83.0108 29.8523 82.7986 29.774 82.6824 29.6173C82.5662 29.4607 82.5081 29.2093 82.5081 28.8632ZM82.7999 28.8594C82.7999 29.1348 82.8327 29.328 82.8984 29.4392C82.9666 29.5504 83.1068 29.606 83.3191 29.606C83.5338 29.606 83.674 29.5516 83.7397 29.443C83.8054 29.3318 83.8383 29.1373 83.8383 28.8594C83.8383 28.5815 83.8016 28.3907 83.7284 28.2871C83.6551 28.181 83.5187 28.128 83.3191 28.128C83.122 28.128 82.9856 28.181 82.9098 28.2871C82.8365 28.3907 82.7999 28.5815 82.7999 28.8594ZM84.4198 27.9195H84.704L85.0867 29.5681H85.1474L85.5984 27.9574H85.894L86.3449 29.5681H86.4094L86.7883 27.9195H87.0726L86.6216 29.8144H86.1479L85.7462 28.3326L85.3445 29.8144H84.8707L84.4198 27.9195ZM88.7319 29.5794L88.8418 29.5681L88.8493 29.7917C88.5613 29.8321 88.315 29.8523 88.1103 29.8523C87.8375 29.8523 87.6442 29.774 87.5305 29.6173C87.4168 29.4582 87.36 29.2118 87.36 28.8783C87.36 28.2139 87.624 27.8816 88.152 27.8816C88.4072 27.8816 88.598 27.9536 88.7243 28.0976C88.8506 28.2391 88.9138 28.4627 88.9138 28.7684L88.8986 28.9844H87.648C87.648 29.1941 87.6859 29.3495 87.7617 29.4506C87.8375 29.5516 87.9689 29.6022 88.1558 29.6022C88.3453 29.6022 88.5373 29.5946 88.7319 29.5794ZM88.6295 28.7571C88.6295 28.5246 88.5916 28.3604 88.5159 28.2644C88.4426 28.1684 88.3213 28.1204 88.152 28.1204C87.9853 28.1204 87.859 28.1709 87.7731 28.272C87.6897 28.373 87.6467 28.5347 87.6442 28.7571H88.6295ZM89.3567 29.8144V27.9195H89.6372V28.1772C89.857 28.0256 90.0882 27.9258 90.3307 27.8778V28.1659C90.2246 28.1861 90.1134 28.2177 89.9972 28.2606C89.8835 28.3036 89.7963 28.3415 89.7357 28.3743L89.641 28.4236V29.8144H89.3567ZM91.9184 29.5794L92.0283 29.5681L92.0358 29.7917C91.7478 29.8321 91.5015 29.8523 91.2968 29.8523C91.024 29.8523 90.8307 29.774 90.717 29.6173C90.6033 29.4582 90.5465 29.2118 90.5465 28.8783C90.5465 28.2139 90.8105 27.8816 91.3385 27.8816C91.5937 27.8816 91.7845 27.9536 91.9108 28.0976C92.0371 28.2391 92.1003 28.4627 92.1003 28.7684L92.0851 28.9844H90.8345C90.8345 29.1941 90.8724 29.3495 90.9482 29.4506C91.024 29.5516 91.1554 29.6022 91.3423 29.6022C91.5318 29.6022 91.7238 29.5946 91.9184 29.5794ZM91.816 28.7571C91.816 28.5246 91.7781 28.3604 91.7023 28.2644C91.6291 28.1684 91.5078 28.1204 91.3385 28.1204C91.1718 28.1204 91.0455 28.1709 90.9596 28.272C90.8762 28.373 90.8332 28.5347 90.8307 28.7571H91.816ZM93.9985 27.0934V29.8144H93.7181V29.6855C93.5235 29.7967 93.3315 29.8523 93.142 29.8523C93.0409 29.8523 92.9525 29.8397 92.8767 29.8144C92.8009 29.7891 92.7302 29.7437 92.6645 29.678C92.5281 29.5415 92.4599 29.2902 92.4599 28.9238C92.4599 28.5549 92.5205 28.2897 92.6418 28.128C92.7656 27.9637 92.9689 27.8816 93.2519 27.8816C93.3984 27.8816 93.5538 27.898 93.7181 27.9309V27.0934H93.9985ZM92.8843 29.4733C92.9247 29.5213 92.9677 29.5542 93.0132 29.5719C93.0586 29.5895 93.1167 29.5984 93.1875 29.5984C93.2608 29.5984 93.3416 29.587 93.43 29.5643C93.521 29.539 93.5917 29.515 93.6423 29.4923L93.7181 29.4582V28.1734C93.5564 28.1431 93.406 28.128 93.2671 28.128C93.0751 28.128 92.9412 28.1899 92.8654 28.3137C92.7896 28.4349 92.7517 28.6244 92.7517 28.8821C92.7517 29.1752 92.7959 29.3723 92.8843 29.4733ZM96.2194 27.8816C96.4746 27.8816 96.6527 27.9549 96.7537 28.1014C96.8573 28.2454 96.9091 28.4994 96.9091 28.8632C96.9091 29.227 96.8447 29.4834 96.7158 29.6325C96.5895 29.779 96.3558 29.8523 96.0147 29.8523C95.9086 29.8523 95.733 29.8422 95.488 29.822L95.3818 29.8106V27.0934H95.6623V28.0143C95.8543 27.9258 96.04 27.8816 96.2194 27.8816ZM96.0109 29.5984C96.2585 29.5984 96.4215 29.5428 96.4998 29.4316C96.5807 29.3179 96.6211 29.1272 96.6211 28.8594C96.6211 28.5916 96.5895 28.4046 96.5263 28.2985C96.4632 28.1899 96.3508 28.1355 96.1891 28.1355C96.0425 28.1355 95.8922 28.1633 95.7381 28.2189L95.6623 28.2454V29.5794C95.8265 29.5921 95.9427 29.5984 96.0109 29.5984ZM97.1652 27.9195H97.4494L97.9232 29.5681H98.0482L98.5257 27.9195H98.81L98.0217 30.6557H97.7375L97.9838 29.8144H97.7034L97.1652 27.9195ZM101.641 29.7727C101.381 29.8258 101.147 29.8523 100.94 29.8523C100.733 29.8523 100.565 29.8245 100.436 29.7689C100.31 29.7108 100.211 29.6224 100.141 29.5036C100.072 29.3824 100.024 29.2447 99.9966 29.0906C99.9714 28.9339 99.9587 28.7394 99.9587 28.5069C99.9587 28.2745 99.9714 28.08 99.9966 27.9233C100.024 27.7641 100.072 27.6239 100.141 27.5027C100.211 27.3814 100.31 27.293 100.436 27.2374C100.563 27.1818 100.727 27.154 100.929 27.154C101.131 27.154 101.369 27.1818 101.641 27.2374L101.63 27.4837C101.375 27.4382 101.147 27.4155 100.948 27.4155C100.67 27.4155 100.486 27.4989 100.395 27.6656C100.306 27.8298 100.262 28.1115 100.262 28.5107C100.262 28.7103 100.269 28.8708 100.285 28.992C100.302 29.1133 100.335 29.2232 100.383 29.3217C100.431 29.4177 100.501 29.4872 100.592 29.5302C100.685 29.5706 100.82 29.5908 100.997 29.5908C101.177 29.5908 101.387 29.5681 101.63 29.5226L101.641 29.7727ZM103.407 28.4918V29.462C103.415 29.5554 103.488 29.611 103.627 29.6287L103.616 29.8523C103.416 29.8523 103.266 29.8018 103.165 29.7007C102.937 29.8018 102.71 29.8523 102.482 29.8523C102.308 29.8523 102.176 29.803 102.085 29.7045C101.994 29.606 101.948 29.4645 101.948 29.28C101.948 29.0956 101.995 28.9604 102.088 28.8745C102.182 28.7861 102.328 28.7318 102.528 28.7116L103.123 28.6547V28.4918C103.123 28.3629 103.095 28.2707 103.04 28.2151C102.984 28.1595 102.908 28.1318 102.812 28.1318C102.61 28.1318 102.4 28.1444 102.183 28.1696L102.066 28.181L102.054 27.965C102.332 27.9094 102.579 27.8816 102.793 27.8816C103.008 27.8816 103.163 27.9309 103.259 28.0294C103.358 28.128 103.407 28.2821 103.407 28.4918ZM102.24 29.2649C102.24 29.4973 102.336 29.6135 102.528 29.6135C102.7 29.6135 102.869 29.5845 103.036 29.5264L103.123 29.4961V28.8708L102.562 28.9238C102.448 28.9339 102.366 28.9668 102.316 29.0223C102.265 29.0779 102.24 29.1588 102.24 29.2649ZM104.563 28.1355C104.288 28.1355 104.15 28.2315 104.15 28.4236C104.15 28.512 104.181 28.5752 104.245 28.613C104.308 28.6484 104.452 28.6863 104.677 28.7267C104.902 28.7646 105.061 28.819 105.154 28.8897C105.248 28.9604 105.294 29.0931 105.294 29.2876C105.294 29.4822 105.231 29.6249 105.105 29.7159C104.981 29.8068 104.799 29.8523 104.559 29.8523C104.403 29.8523 104.218 29.8346 104.006 29.7992L103.892 29.7803L103.907 29.534C104.195 29.5769 104.413 29.5984 104.559 29.5984C104.706 29.5984 104.817 29.5756 104.893 29.5302C104.971 29.4822 105.01 29.4038 105.01 29.2952C105.01 29.184 104.977 29.1095 104.912 29.0716C104.846 29.0312 104.702 28.9933 104.48 28.9579C104.257 28.9225 104.099 28.8708 104.006 28.8025C103.912 28.7343 103.866 28.608 103.866 28.4236C103.866 28.2391 103.93 28.1027 104.059 28.0143C104.19 27.9258 104.353 27.8816 104.548 27.8816C104.702 27.8816 104.895 27.8993 105.128 27.9347L105.234 27.9536L105.226 28.1962C104.946 28.1558 104.725 28.1355 104.563 28.1355ZM106.014 29.8144H105.73V27.0934H106.014V28.0256C106.216 27.9296 106.411 27.8816 106.597 27.8816C106.85 27.8816 107.019 27.9498 107.105 28.0863C107.194 28.2227 107.238 28.4652 107.238 28.8139V29.8144H106.954V28.8215C106.954 28.5587 106.927 28.3793 106.874 28.2833C106.824 28.1848 106.715 28.1355 106.548 28.1355C106.389 28.1355 106.235 28.1646 106.086 28.2227L106.014 28.2492V29.8144ZM107.765 29.8144V27.9195H108.049V29.8144H107.765ZM107.765 27.4913V27.1616H108.049V27.4913H107.765ZM109.932 28.4918V29.462C109.94 29.5554 110.013 29.611 110.152 29.6287L110.14 29.8523C109.941 29.8523 109.79 29.8018 109.689 29.7007C109.462 29.8018 109.235 29.8523 109.007 29.8523C108.833 29.8523 108.7 29.803 108.609 29.7045C108.518 29.606 108.473 29.4645 108.473 29.28C108.473 29.0956 108.52 28.9604 108.613 28.8745C108.707 28.7861 108.853 28.7318 109.053 28.7116L109.648 28.6547V28.4918C109.648 28.3629 109.62 28.2707 109.564 28.2151C109.509 28.1595 109.433 28.1318 109.337 28.1318C109.135 28.1318 108.925 28.1444 108.708 28.1696L108.59 28.181L108.579 27.965C108.857 27.9094 109.103 27.8816 109.318 27.8816C109.533 27.8816 109.688 27.9309 109.784 28.0294C109.883 28.128 109.932 28.2821 109.932 28.4918ZM108.765 29.2649C108.765 29.4973 108.861 29.6135 109.053 29.6135C109.225 29.6135 109.394 29.5845 109.561 29.5264L109.648 29.4961V28.8708L109.087 28.9238C108.973 28.9339 108.891 28.9668 108.84 29.0223C108.79 29.0779 108.765 29.1588 108.765 29.2649Z" fill="#03045B"/>
</svg>
