<svg width="121" height="120" viewBox="0 0 121 120" fill="none" xmlns="http://www.w3.org/2000/svg">
<g clip-path="url(#clip0_133_1688)">
<path fill-rule="evenodd" clip-rule="evenodd" d="M25.8015 55.3416H28.9695V40.1217C28.9695 27.9164 38.9539 17.932 51.1592 17.932C63.3577 17.932 73.3421 27.9164 73.3421 40.1217V55.3416H76.5102C83.2798 55.3416 88.8221 60.8841 88.8221 67.647V106.144C88.8221 112.913 83.2796 118.449 76.5102 118.449H25.8015C19.0318 118.449 13.4961 112.913 13.4961 106.144V67.647C13.4963 60.8841 19.032 55.3416 25.8015 55.3416ZM41.9352 55.3416H60.3765V40.1217C60.3765 35.0728 56.2013 30.8977 51.1592 30.8977C46.1103 30.8977 41.9352 35.0728 41.9352 40.1217V55.3416Z" fill="#86C8E9"/>
<path fill-rule="evenodd" clip-rule="evenodd" d="M88.8218 71.782V103.035H59.6958L46.3301 115.981V108.805V103.035V71.782H88.8218Z" fill="#1F7EAD"/>
<path fill-rule="evenodd" clip-rule="evenodd" d="M100.843 42.7828C98.9389 32.5191 93.8984 23.1002 86.2531 15.7219C76.7844 6.58359 64.3215 1.55086 51.1597 1.55086C23.2904 1.55109 0.617188 24.2213 0.617188 52.087C0.617188 53.5144 1.77828 54.6757 3.20562 54.6757C4.63297 54.6757 5.79406 53.5144 5.79406 52.087C5.79406 27.0762 26.1451 6.72844 51.1595 6.72844C73.0684 6.72844 91.3044 22.0509 95.573 42.783H88.5758L98.7802 54.6949L108.978 42.783H100.843V42.7828Z" fill="#070AC5"/>
<path fill-rule="evenodd" clip-rule="evenodd" d="M49.3847 18.0056C49.9716 17.959 50.5584 17.9323 51.1587 17.9323C63.3572 17.9323 73.3416 27.9166 73.3416 40.122V55.3352C73.1016 55.3219 72.8548 55.3153 72.608 55.3153H69.4399V40.0887C69.4402 28.6036 60.5962 19.0861 49.3847 18.0056ZM73.4817 55.3416H76.5096C83.2793 55.3416 88.8216 60.8841 88.8216 67.647V106.144C88.8216 112.913 83.2791 118.449 76.5096 118.449H76.0095C81.1716 116.888 84.9199 111.746 84.9199 106.11V67.6202C84.9202 61.1442 79.8513 55.7953 73.4817 55.3416ZM49.278 31.0978C45.1162 31.9781 41.9348 35.7197 41.9348 40.1217V55.3148H38.0332V40.0882C38.0332 35.0461 42.2084 30.8709 47.2573 30.8709C47.9508 30.8712 48.6244 30.9511 49.278 31.0978Z" fill="#1F7EAD"/>
<path fill-rule="evenodd" clip-rule="evenodd" d="M113.42 66.9H37.8009C33.9727 66.9 30.8379 70.0348 30.8379 73.863V91.1838C30.8379 95.0189 33.9727 98.1469 37.8009 98.1469H46.3312V111.099L59.697 98.1469H113.42C117.248 98.1469 120.383 95.0189 120.383 91.1838V73.863C120.383 70.0348 117.248 66.9 113.42 66.9Z" fill="#070AC5"/>
<path d="M61.4105 77.9946C60.9553 77.2066 59.948 76.9369 59.16 77.3918L55.215 79.6697V75.1167C55.215 74.2069 54.4774 73.4693 53.5676 73.4693C52.6578 73.4693 51.9202 74.2069 51.9202 75.1167V79.6697L47.9754 77.3918C47.1874 76.9373 46.1799 77.2066 45.7249 77.9946C45.27 78.7826 45.5398 79.7902 46.3278 80.2451L50.2732 82.5234L46.3278 84.8018C45.5398 85.2567 45.27 86.2643 45.7249 87.0523C46.0301 87.5808 46.5839 87.8763 47.153 87.8763C47.4326 87.8763 47.7157 87.8051 47.9754 87.6553L51.9202 85.3774V89.9304C51.9202 90.8402 52.6578 91.5778 53.5676 91.5778C54.4774 91.5778 55.215 90.8402 55.215 89.9304V85.3774L59.16 87.6553C59.4195 87.8051 59.7028 87.8763 59.9824 87.8763C60.5517 87.8763 61.1056 87.5808 61.4105 87.0523C61.8654 86.2643 61.5957 85.2567 60.8077 84.8018L56.8622 82.5234L60.8077 80.2451C61.5957 79.7902 61.8654 78.7826 61.4105 77.9946Z" fill="white"/>
<path d="M83.4536 77.9946C82.9984 77.2066 81.9911 76.9369 81.2031 77.3918L77.2581 79.6699V75.1169C77.2581 74.2071 76.5205 73.4695 75.6107 73.4695C74.7008 73.4695 73.9633 74.2071 73.9633 75.1169V79.6699L70.0185 77.392C69.2308 76.9376 68.2229 77.2069 67.768 77.9948C67.3131 78.7828 67.5829 79.7904 68.3708 80.2453L72.3163 82.5237L68.3708 84.802C67.5829 85.2569 67.3129 86.2645 67.768 87.0525C68.0732 87.581 68.627 87.8766 69.1961 87.8766C69.4757 87.8766 69.7588 87.8053 70.0185 87.6555L73.9633 85.3777V89.9306C73.9633 90.8405 74.7008 91.578 75.6107 91.578C76.5205 91.578 77.2581 90.8405 77.2581 89.9306V85.3777L81.2031 87.6558C81.4625 87.8055 81.7459 87.8768 82.0255 87.8768C82.5948 87.8768 83.1486 87.5812 83.4536 87.0527C83.9085 86.2648 83.6387 85.2572 82.8508 84.8023L78.9053 82.5239L82.8508 80.2455C83.6387 79.7902 83.9085 78.7826 83.4536 77.9946Z" fill="white"/>
<path d="M104.887 84.8018L100.943 82.5232L104.887 80.2446C105.675 79.7895 105.945 78.7819 105.49 77.9939C105.034 77.2059 104.027 76.9359 103.239 77.3916L99.3011 79.6669V75.1165C99.3011 74.2066 98.5636 73.4691 97.6537 73.4691C96.7439 73.4691 96.0063 74.2066 96.0063 75.1165V79.6709L92.0615 77.3918C91.274 76.9364 90.266 77.2062 89.8111 77.9941C89.3559 78.7821 89.6257 79.7897 90.4134 80.2448L94.3572 82.5234L90.4134 84.802C89.6257 85.2572 89.3559 86.2648 89.8111 87.0527C90.1162 87.581 90.6698 87.8763 91.2389 87.8763C91.5185 87.8763 91.8021 87.8051 92.0615 87.6551L96.0063 85.376V89.9304C96.0063 90.8402 96.7439 91.5778 97.6537 91.5778C98.5636 91.5778 99.3011 90.8402 99.3011 89.9304V85.38L103.239 87.6553C103.499 87.8053 103.782 87.8766 104.062 87.8766C104.631 87.8766 105.185 87.5812 105.49 87.053C105.945 86.2645 105.675 85.2572 104.887 84.8018Z" fill="white"/>
<path fill-rule="evenodd" clip-rule="evenodd" d="M33.3924 71.3086H84.9214H88.823H109.005C112.833 71.3086 115.968 74.4434 115.968 78.2716V95.599C115.968 96.3661 115.841 97.0997 115.615 97.7932C118.376 96.866 120.384 94.2516 120.384 91.1836V73.8628C120.384 70.0345 117.249 66.8998 113.42 66.8998H88.7963H84.8947H37.801C34.7396 66.8998 32.1186 68.9006 31.1914 71.6686C31.8852 71.4352 32.6255 71.3086 33.3924 71.3086Z" fill="#03045B"/>
</g>
<defs>
<clipPath id="clip0_133_1688">
<rect width="120" height="120" fill="white" transform="translate(0.5)"/>
</clipPath>
</defs>
</svg>
