<svg width="36" height="36" viewBox="0 0 36 36" fill="none" xmlns="http://www.w3.org/2000/svg">
<rect width="36" height="36" rx="18" fill="#86C8E9"/>
<path d="M25.29 14.5938C25.29 14.7695 25.29 14.9102 25.29 15.0859C25.29 19.9727 21.5986 25.5625 14.8135 25.5625C12.7041 25.5625 10.7705 24.9648 9.15332 23.9102C9.43457 23.9453 9.71582 23.9805 10.0322 23.9805C11.7549 23.9805 13.3369 23.3828 14.6025 22.3984C12.9854 22.3633 11.6143 21.3086 11.1572 19.832C11.4033 19.8672 11.6143 19.9023 11.8604 19.9023C12.1768 19.9023 12.5283 19.832 12.8096 19.7617C11.1221 19.4102 9.85645 17.9336 9.85645 16.1406V16.1055C10.3486 16.3867 10.9463 16.5273 11.5439 16.5625C10.5244 15.8945 9.8916 14.7695 9.8916 13.5039C9.8916 12.8008 10.0674 12.168 10.3838 11.6406C12.2119 13.8555 14.9541 15.332 18.0127 15.5078C17.9424 15.2266 17.9072 14.9453 17.9072 14.6641C17.9072 12.625 19.5596 10.9727 21.5986 10.9727C22.6533 10.9727 23.6025 11.3945 24.3057 12.1328C25.1143 11.957 25.9229 11.6406 26.626 11.2188C26.3447 12.0977 25.7822 12.8008 25.0088 13.2578C25.7471 13.1875 26.4854 12.9766 27.1182 12.6953C26.626 13.4336 25.9932 14.0664 25.29 14.5938Z" fill="white"/>
</svg>
