<svg width="70" height="22" viewBox="0 0 70 22" fill="none" xmlns="http://www.w3.org/2000/svg">
<path d="M24.7285 21.1993L28.2689 0.423828H33.9315L30.3886 21.1993H24.7285Z" fill="#0E4595"/>
<path d="M50.8443 0.872564C49.7226 0.45167 47.9646 0 45.7692 0C40.1737 0 36.2324 2.81774 36.1988 6.85614C36.1672 9.84134 39.0126 11.5067 41.1606 12.5004C43.3648 13.5189 44.1058 14.1683 44.0951 15.0775C44.081 16.4702 42.3349 17.1062 40.7072 17.1062C38.4409 17.1062 37.2368 16.7913 35.377 16.0158L34.6472 15.6856L33.8525 20.3363C35.1752 20.9164 37.6208 21.4187 40.1604 21.4448C46.113 21.4448 49.9773 18.6592 50.0212 14.3467C50.0423 11.9833 48.5337 10.1849 45.2667 8.70208C43.2874 7.74101 42.0753 7.0997 42.0881 6.12652C42.0881 5.26298 43.1141 4.33958 45.3312 4.33958C47.1828 4.31082 48.5243 4.71463 49.5694 5.13552L50.0768 5.37526L50.8443 0.872564Z" fill="#0E4595"/>
<path d="M65.4166 0.423828H61.0411C59.6855 0.423828 58.6711 0.793781 58.0758 2.14667L49.666 21.1858H55.6123C55.6123 21.1858 56.5844 18.626 56.8043 18.0638C57.4541 18.0638 63.2308 18.0727 64.0565 18.0727C64.2259 18.8001 64.7455 21.1858 64.7455 21.1858H70L65.4166 0.423828ZM58.4742 13.839C58.9427 12.642 60.7305 8.03133 60.7305 8.03133C60.6971 8.08662 61.1954 6.82851 61.4812 6.04848L61.864 7.83967C61.864 7.83967 62.9483 12.7988 63.1748 13.8386H58.4742V13.839Z" fill="#0E4595"/>
<path d="M0.0723395 0.423828L0 0.856C2.2385 1.39788 4.23781 2.18217 5.98822 3.15781L11.0128 21.166L17.0041 21.1594L25.9191 0.423828H19.9203L14.3765 14.5912L13.786 11.7119C13.7583 11.6229 13.7282 11.5338 13.6975 11.4445L11.7702 2.1778C11.4275 0.862269 10.4334 0.469674 9.20349 0.423828H0.0723395Z" fill="#0E4595"/>
</svg>
